<svg version="1.2" xmlns="http://www.w3.org/2000/svg" viewBox="0 0 1190 1684" width="1190" height="1684">
	<title>probarambientes1-pdf</title>
	<defs>
		<clipPath clipPathUnits="userSpaceOnUse" id="cp1">
			<path d="m0 0h1190v1684h-1190z"/>
		</clipPath>
	</defs>
	<style>
		.s0 { fill: none;stroke: #ff0000;stroke-linecap: round;stroke-linejoin: round;stroke-width: 1.7 } 
		.s1 { fill: none;stroke: #ffff00;stroke-linecap: round;stroke-linejoin: round;stroke-width: .8 } 
		.s2 { fill: none;stroke: #5e5e5e;stroke-linecap: round;stroke-linejoin: round;stroke-width: .7 } 
		.s3 { fill: none;stroke: #000000;stroke-linecap: round;stroke-linejoin: round;stroke-width: 1.4 } 
		.s4 { fill: none;stroke: #989898;stroke-linecap: round;stroke-linejoin: round;stroke-width: .4 } 
		.s5 { fill: #989898;stroke: #989898;stroke-linecap: round;stroke-miterlimit:10;stroke-width: .4 } 
		.s6 { fill: none;stroke: #ffbf00;stroke-linecap: round;stroke-linejoin: round;stroke-width: 1.4 } 
		.s7 { fill: rgba(232, 226, 229, 0.21);stroke: #efefef;stroke-linecap: round;stroke-linejoin: round;stroke-width: 0.4 } 
		.s8 { fill:  rgba(232, 226, 229, 0.21);stroke: #7fbfff;stroke-linecap: round;stroke-linejoin: round;stroke-width: 1.4 } 
		.s9 { fill:  rgba(232, 226, 229, 0.21);stroke: #37dd00;stroke-linecap: round;stroke-linejoin: round;stroke-width: 1.4 } 
		.s10 { fill: rgba(232, 226, 229, 0.21);stroke: #ffff00;stroke-linecap: round;stroke-linejoin: round;stroke-width: 1.4 } 
		.s11 { fill: rgba(232, 226, 229, 0.21);stroke: #3f00ff;stroke-linecap: round;stroke-linejoin: round;stroke-width: 1.4 } 
		.s12 { fill: none;stroke: #000000;stroke-linecap: round;stroke-linejoin: round;stroke-width: .4 } 
	</style>
	<g id="Page 1" clip-path="url(#cp1)">
		<path id="Path 2" class="s0" d="m239 951.8v3.4h-6v-3.4z"/>
		<path id="Path 3" class="s1" d="m235.5 950.4h3.5m-1.7 0v-2.5m1.7-36.1v1.2h-3.5v-1.2zm-3.5 38.6v1.4m3.5-1.4v1.4m-1.7-1.4h37.4m-37.4-2.5h37.4m0 2.5v-2.5m0.2 0c-0.3-19.5-16.3-35.2-35.8-35m-1.8 37.5v-37.4"/>
		<path id="Path 4" class="s0" d="m239 833.8v30h-6v-30zm96-59.9v29.9h-6v-29.9zm-96 53.9v6h-29.9v-6zm-59.9 0v6h-30v-6zm30 0v6h-30v-6zm-60-53.9v29.9h-6v-29.9z"/>
		<path id="Path 5" class="s1" d="m143.1 741.9h1.8m0-55.9h1.7m-3.5 27.9v28m1.8-55.9v55.9m1.7-55.9v-2.1m-3.5 2.1v-2.1m0 58v2m1.8-2h1.7v2m-1.7-57.9h-1.8m3.5 27.9v-27.9"/>
		<path id="Path 6" class="s2" d="m143.1 713.9v-27.9m3.5 27.9v28"/>
		<path id="Path 7" class="s1" d="m143.1 713.9h3.5"/>
		<path id="Path 8" class="s0" d="m149.1 743.9v30h-6v-30z"/>
		<path id="Path 9" class="s2" d="m149.1 683.9v60"/>
		<path id="Path 10" class="s0" d="m149.1 654v29.9h-6v-29.9zm0-30v30h-6v-30z"/>
		<path id="Path 11" class="s1" d="m143.1 592h1.8m0-55.9h1.7m-3.5 27.9v28m1.8-55.9v55.9m1.7-55.9v-2.1m-3.5 2.1v-2.1m0 58v2m1.8-2h1.7v2m-1.7-57.9h-1.8m3.5 27.9v-27.9"/>
		<path id="Path 12" class="s2" d="m143.1 564v-27.9m3.5 27.9v28"/>
		<path id="Path 13" class="s1" d="m143.1 564h3.5"/>
		<path id="Path 14" class="s0" d="m149.1 594v30h-6v-30z"/>
		<path id="Path 15" class="s2" d="m149.1 534v60"/>
		<path id="Path 16" class="s0" d="m149.1 504.2v29.8h-6v-29.8zm83.9 451v6h-29.9v-6zm-59.9 0v6h-30v-6zm30 0v6h-30v-6zm-54 6v29.9h-6v-29.9zm0 29.9v30h-6v-30zm0 30v30h-6v-30zm0 30v30h-6v-30zm0 30v30h-6v-30zm0 30v29.9h-6v-29.9zm30 89.9v6h-30v-6zm30 0v6h-30v-6zm29.9 0v6h-29.9v-6zm30 0v6h-30v-6zm30 0v6h-30v-6zm30 0v6h-30v-6z"/>
		<path id="Path 17" class="s3" d="m346.8 1021.1h149.9"/>
		<path id="Path 18" class="s0" d="m376.8 1015.1v6h-30v-6zm30 0v6h-30v-6zm29.9 0v6h-29.9v-6zm30 0v6h-30v-6zm30 0v6h-30v-6zm100 0v6h-30v-6zm29.9 0v6h-29.9v-6zm30 0v6h-30v-6zm-507.5 125.9v30h-6v-30zm425.7 60v6h-30v-6zm29.8 0v6h-29.8v-6zm30 0v6h-30v-6zm30 0v6h-30v-6zm30 0v6h-30v-6z"/>
		<path id="Path 19" class="s3" d="m418.8 959.7h149.9"/>
		<path id="Path 20" class="s0" d="m448.8 953.7v6h-30v-6zm29.9 0v6h-29.9v-6zm30 0v6h-30v-6zm60 0v6h-30v-6zm29.9 0v6h-29.9v-6z"/>
		<path id="Path 21" class="s3" d="m598.6 959.7h149.9"/>
		<path id="Path 22" class="s0" d="m628.6 953.7v6h-30v-6zm30 0v6h-30v-6zm30 0v6h-30v-6zm29.9 0v6h-29.9v-6zm30 0v6h-30v-6z"/>
		<path id="Path 23" class="s3" d="m748.5 959.7h149.9"/>
		<path id="Path 24" class="s0" d="m778.5 953.7v6h-30v-6zm30 0v6h-30v-6zm29.9 0v6h-29.9v-6zm30 0v6h-30v-6zm30 0v6h-30v-6zm119.9 6v30h-6v-30zm0 30v30h-6v-30zm0 30v30h-6v-30zm0 30v29.9h-6v-29.9zm0 29.9v30h-6v-30zm0 30v30h-6v-30zm0 30v30h-6v-30zm-293.8 61.4v6h-29.9v-6zm30 0v6h-30v-6zm30 0v6h-30v-6zm30 0v6h-30v-6zm29.9 0v6h-29.9v-6zm30 0v6h-30v-6zm30 0v6h-30v-6zm-569.4-577v30h-6v-30zm0-149.8v30h-6v-30zm0-30v30h-6v-30zm-36 0v6h-30v-6zm-60 0v6h-29.9v-6zm30 0v6h-30v-6zm-59.8 0v6h-30v-6zm-30 0v6h-30v-6zm-30 30v30h-6v-30zm0-30v30h-6v-30zm785.2 756.8v6h-30v-6zm29.9 0v6h-29.9v-6zm30 0v6h-30v-6zm24 0v6h-30v-6z"/>
		<path id="Path 25" class="s4" d="m969.3 1038.4v95h-70.5v-95zm-72.9 85.1c0-2-1.7-3.7-3.8-3.7m-0.1 0h-8.7m0 0c-2 0-3.7 1.7-3.7 3.7m0 0.1v4.9m0 0c0 2 1.7 3.7 3.7 3.7m0 0h8.7m0.1 0c2.1 0 3.8-1.7 3.8-3.7m-0.1 0v-4.9m1.3-0.1c0-2.7-2.2-4.9-5-4.9m-0.1 0h-8.7m0 0c-2.7 0-4.9 2.2-4.9 4.9m0 0.1v4.9m0 0c0 2.7 2.2 4.9 4.9 4.9m0 0.2h8.7m0.1-0.2c2.8 0 5-2.2 5-4.9m0 0v-4.9m78-3.8c-2 0-3.7 1.7-3.7 3.7m3.7-3.7h8.7m3.9 3.7c0-2-1.7-3.7-3.8-3.7m3.8 3.8v4.9m-3.8 3.7c2.1 0 3.8-1.7 3.8-3.7m-3.9 3.7h-8.7m-3.7-3.7c0 2 1.7 3.7 3.7 3.7m-3.7-3.7v-4.9m3.7-5c-2.7 0-4.9 2.2-4.9 4.9m4.9-4.9h8.7m5.1 4.9c0-2.7-2.2-4.9-5-4.9m5 5v4.9m-5 4.9c2.8 0 5-2.2 5-4.9m-5.1 5.1h-8.7m-4.9-5.1c0 2.7 2.2 4.9 4.9 4.9m-4.9-4.9v-4.9m-36.6-9.7v19.7m-1.2-20.7v4m0 13.8v2.7m0-6.9v1.4m0-9.8v1.5m-1.2-7.4v4.1m0 14.9v2.2m-1.4-22v5m0 14.8v2.2m-1.2-22.8v6m0 14.4v2.2m-1.3-23v6.7m0 13.9v1.9m-1.2-22.9v7.1m0 13.9v1.6m-1.2-23.1v7.5m0 13.9v1.8m-1.3-23.8v8.2m0 13.7v2.1m-1.2-24.7v9m0 13.6v2.5m-1.3-25.8v9.9m0 13.2v2.8m-1.2-26.5v10.5m0 13.1v3m-1.3-27.3v11.1m0 13.3v3m-1.2-28v11.8m0 13v3.2m-1.2-28.5v12.3m0 13.1v3.3m-1.4-29.1v12.7m0 13.1v3.3m-1.2-29.4v12.9m0 13.1v3.4m-1.3-29.9v13.5m0 13v3.2m-1.2-30.3v14.1m0 13v3.1m-1.2-30.9v14.8m0 13v2.9m-1.3-31.3v15.4m0 13.2v2.4m-1.2-31.6v15.9m0 13.5v2m-1.3-32v16.5m0 13.6v1.7m-1.2-32.3v17m0 13.7v2.2m-1.2-33.3v17.2m0 13.9v2.5m-1.3-34.2v17.4m0 14.7v2.1m-1.2-35v18.2m0 14.8v1.8m-1.4-37v6.9m0 19.8v10m0-24.8v14.8m-1.2-8v2.4m0 8.6v5.4m36.3-17.1v11.1m0 5.2v3.2m1.2-19.1v2m0 14.7v2.4m1.3-18.9v1.9m0 14.4v2.6m1.2-18.6v1.9m0 13.9v2.6m1.2-18.2v1.9m0 13.7v2.6m1.3-18v1.7m0 13.6v2.7m1.2-17.8v1.5m0 13.5v2.7m1.3-17.6v1.5m0 13.2v2.8m1.2-17.4v1.4m0 13v2.9m1.2-17.3v1.4m0 13v2.9m1.4-17.3v1.4m0 13v2.8m1.2-17.2v1.4m0 13v2.6m1.3-17v1.4m0 13.1v2.5m1.2-17.1v1.5m0 13.1v2.1m1.2-16.7v1.5m0 13.1v2.3m1.3-17v1.5m0 13.3v2.6m1.2-17.4v1.6m0 13.2v2.9m1.3-17.9v1.7m0 13.3v3m1.2-18v1.6m0 13.6v3m1.3-18.3v1.6m0 13.7v3m1.2-18.3v1.6m0 13.8v2.7m1.2-18.1v1.6m0 13.8v2.6m1.4-18v1.6m0 13.7v2.5m1.2-17.8v1.2m0 14.4v1.7m1.3-17.3v1m0 14.9v1.6m1.2-17.4v0.9m0 14.9v2.1m1.2-17.9v5.3m0 9.7v3.2m1.3-17.4v5.8m-45.5-1.3l1-0.2 0.7-0.1 0.7-0.3 0.5-0.2 0.5-0.1 0.5-0.3 0.3-0.2 0.3-0.1 0.3-0.3 0.3-0.1 0.2-0.2 0.2-0.2 0.3-0.1 0.2-0.1 0.1-0.1h0.2v-0.1l0.1 0.1v0.1 0.1 0.1 0.2l-0.1 0.1v0.2 0.3 0.1 0.2 0.3 0.2l0.1 0.4v0.2l0.1 0.4 0.1 0.3 0.1 0.4 0.2 0.3 0.1 0.5v0.5l0.1 0.4m17.2 0.7l0.2 0.2 0.2 0.1 0.2 0.3 0.2 0.1 0.1 0.1 0.1 0.1 0.2 0.2 0.1 0.1 0.1 0.1 0.1 0.1 0.1 0.1 0.2 0.2 0.1 0.1 0.1 0.2 0.1 0.1 0.1 0.2 0.2 0.1v0.1l0.1 0.1 0.1 0.3 0.1 0.1v0.1l0.1 0.1 0.2 0.3 0.1 0.1v0.1l0.1 0.2v0.2l0.1 0.1 0.1 0.1v0.1h0.2 0.1l0.1-0.1v-0.1l0.1-0.1v-0.2l0.1-0.1v-0.1-0.2l0.2-0.2v-0.1l0.1-0.1v-0.1-0.1l0.1-0.2v-0.2l0.1-0.1v-0.1l0.1-0.2v-0.1l0.2-0.1v-0.1l0.1-0.1v-0.2h0.1l0.1-0.1 0.1-0.1 0.2-0.1 0.1-0.1 0.1-0.2 0.1-0.2 0.3-0.2 0.3-0.5 0.4-0.6m-54.4-1.3l-0.5 2.1-0.8 1.9v2.2 2.2l0.6 2 2.8 0.7h2.5l2.1-1.1 1.2-0.9m-1.5 1.1l1.1 0.2 2.4 0.5 1.6 0.2 2.3 0.3h2.3l3.7-0.2 2.9-0.3 2.6-0.6 2.1-0.6m-1.6 0.3l1.9 0.6 1.6 0.6h2.5l2.5 0.2h2.8l4.2-0.2 5.2-0.3 3.8-0.3 2.3-0.9m-52.2-8.5l-0.4-1-0.3-1.1-0.2-0.8-0.3-1-0.3-1.5-0.1-2.2 0.1-1.6v-1.9l0.3-2.1 0.7-1.5 0.6-1.7 0.4-1.3m50.4 26.5l0.9 0.3 1 0.3 0.7 0.2 0.8 0.2 0.6 0.1 0.8 0.1h0.6l0.4 0.2h0.5 0.6 0.5 0.4 0.4 0.5l0.5-0.2h0.4l0.4-0.1h0.5l0.5-0.1 0.5-0.1 0.6-0.3 0.6-0.3 0.7-0.4 0.8-0.5m-1.5 0.9l0.3 0.1 0.5 0.1 0.4 0.1 0.3 0.3 0.4 0.1 0.4 0.1 0.3 0.1h0.3l0.2 0.2h0.4 0.2 0.2l0.2-0.2 0.2-0.1 0.1-0.1 0.1-0.1 0.2-0.3v-0.2-0.4-0.2-0.4-0.2l-0.2-0.4v-0.3l-0.1-0.4v-0.3l-0.1-0.4v-0.4l-0.1-0.3v-0.4l-0.1-0.3-0.2-0.3v-0.3l-0.1-0.4v-0.5l-0.1-0.3-0.1-0.5v-0.5l-0.1-0.6-0.2-0.6m0.6 3l0.4-3.4 0.8-2.7v-2.5l-0.6-4.7-0.6-4.3-0.6-2.4-0.3-2.6-0.3-1.8m1.6 7.5l0.2-3.1v-2l-0.2-3.9 0.2-3.1-0.2-2.6-0.6-2.7 0.2-1.8m-1.5 1.2l1.3-1.2 0.8-1.3-0.2-2.4-0.4-4.1 0.4-2.5-0.4-2.4-0.6-2.6-0.6-2.1m-66.2 33.9v-3.6l-1-3.3v-2.5-2.8l1.2-4.3 0.6-1.9m-1.4 4.6v-1.5l-0.4-2.2-0.6-2.1-0.3-2.2-0.3-3.7 0.6-3.5v-4.6l0.6-3.7 1.2-2.5m33.2 45.8l-1-0.6-0.7-0.4-0.7-0.4-0.6-0.4-0.5-0.3-0.4-0.3-0.5-0.2-0.3-0.2-0.4-0.2-0.3-0.1-0.4-0.1-0.5-0.2-0.3-0.2-0.5-0.1-0.4-0.1-0.5-0.2-0.4-0.2-0.6-0.2-0.5-0.2-0.5-0.4-0.6-0.2-0.5-0.3-0.6-0.3-0.5-0.3-0.4-0.2-0.4-0.3-0.5-0.2-0.5-0.2-0.3-0.3-0.4-0.2-0.5-0.3-0.3-0.1-0.5-0.2-0.5-0.1-0.3-0.3-0.5-0.1-0.4-0.1-0.5-0.3-0.3-0.1-0.4-0.1-0.3-0.1h-0.4l-0.4-0.1-0.3-0.2-0.4-0.1-0.3-0.2-0.4-0.1-0.5-0.3-0.3-0.2-0.6-0.3-0.5-0.2-0.6-0.2-0.5-0.4-0.6-0.2-0.6-0.4-0.5-0.2-0.6-0.3-0.5-0.2-0.4-0.1-0.5-0.3-0.5-0.1-0.4-0.1-0.4-0.3-0.4-0.1-0.4-0.1-0.2-0.1-0.4-0.1-0.2-0.2-0.4-0.1-0.2-0.1-0.2-0.1-0.2-0.1-0.2-0.3-0.1-0.1-0.1-0.1-0.2-0.1-0.1-0.3-0.1-0.1-0.1-0.1v-0.3l-0.1-0.1v-0.2-0.1-0.3-0.1-0.2l0.1-0.3 0.1-0.1 0.1-0.2 0.1-0.2 0.3-0.2 0.1-0.2 0.2-0.2 0.3-0.2 0.2-0.1 0.1-0.3 0.3-0.1 0.2-0.1 0.3-0.2 0.1-0.2 0.2-0.2 0.1-0.1 0.3-0.3 0.2-0.1 0.1-0.2 0.3-0.3 0.2-0.1 0.1-0.2 0.3-0.4 0.1-0.2 0.2-0.3 0.2-0.3 0.2-0.4 0.1-0.3 0.3-0.4 0.1-0.5 0.2-0.6 0.1-0.7 0.2-0.8 0.1-1m0.9 0l-0.3 1.2 0.6 1.3 1.3 1.8 2.2 1.8 2.4 1.3m-1.8-0.6l2.7 3 4.3 3.2 2.6 1.5 3.7 4.3 2.7 3.2 3.2 3.1 2.4 2.4m-0.4-0.1l2.3 0.6 2 0.4 1.8 0.4 1.7 0.2 1.4 0.2 1.4 0.1 1.2 0.1h1 1.2 1.1 1.1 1.1l1.1-0.1h1l1.1-0.1h1.2l1.1-0.2h1.3l1.3-0.1h1.5 1.8 2l2.3 0.1h2.6m-64.9 15l-0.8 0.5-1.2 0.4h-1.3l-0.6-0.9 0.1-1 0.5-1.1 0.3-1m-0.3 1.6l-0.3-1.6-0.1-1.1-0.2-1.5v-1.3-1.5l0.1-1.3 0.3-1.1 0.2-0.9m0.2 1.4l-0.2-0.8-0.3-0.9v-1.3l0.6-0.5 0.9-0.1 1.2 0.2 1.2 0.4 0.9 0.4 0.9 0.3 0.4 0.1m-2.8-0.7l3.6-0.1 1.5 0.2h2.2l2.4-0.1 1.5 0.1h2l1.9-0.1 2 0.1 2.1-0.2 2.4-0.2 2.6 0.2m-2.4 0.7l0.2-0.1 0.4-0.2 0.4-0.2 0.3-0.1 0.3-0.1h0.3l0.3-0.1 0.3-0.1h0.3l0.2-0.2h0.2l0.3-0.1h0.1l0.2-0.1h0.3 0.2l0.1-0.1h0.3 0.2 0.3 0.1 0.2 0.1 0.3 0.1l0.1 0.1h0.1 0.2l0.1 0.1h0.1l0.1 0.1 0.1 0.2 0.2 0.1v0.1 0.1l0.1 0.3v0.1 0.1 0.2l-0.1 0.2v0.2l-0.2 0.1-0.1 0.3-0.1 0.2-0.1 0.2-0.1 0.3-0.2 0.2m0.5-1.1l0.4 1.6 0.1 2.9 0.1 1.7-0.2 1.6-0.4 0.9-0.3 0.8m-28.5 2.9l1.5 0.1 1.6-0.3h1.7l1.8-0.4 1.6-0.5m-1.8 0.5h2.4 1.7l1.6 0.1 2-0.1 1.3 0.2 1.5-0.1 1.8 0.3h1.5l1.4 0.1 1.1 0.1h2.4m-2-0.8l1.2 0.6 1.2 0.4 1.6 0.3 1.4-0.1 0.8-0.6 0.1-1.1-0.1-0.7-0.2-0.9-0.3-1.3m6.7 3.8l-0.3 0.3-0.4 0.1-0.2 0.1-0.3 0.1h-0.2l-0.2 0.2h-0.3-0.1-0.2-0.2-0.2-0.1-0.1-0.2-0.2-0.1l-0.1-0.2-0.2-0.1-0.1-0.1h-0.1v-0.1l-0.1-0.1v-0.2-0.1-0.1-0.1-0.1-0.3-0.1-0.1l0.1-0.3v-0.1l0.1-0.2v-0.1l0.1-0.3 0.2-0.2 0.1-0.4 0.1-0.2 0.1-0.4m-0.2 1.6l-0.4-1.6-0.1-1.1-0.2-1.5v-1.3-1.5l0.1-1.3 0.3-1.1 0.2-0.9m0.2 1.4l-0.2-0.8-0.3-0.9v-1.3l0.7-0.5 0.9-0.1 1.1 0.2 1.2 0.4 1 0.4 0.8 0.3 0.6 0.1m-3-0.7h1.2 0.9 0.9 0.6 0.4 0.5 0.3l0.3 0.1h0.3 0.3 0.3 0.2 0.2 0.4 0.2 0.4 0.2 0.3 0.3 0.3 0.3 0.3 0.2l0.3-0.1 0.2 0.1h0.2 0.3 0.2 0.3 0.1 0.2 0.3 0.2 0.2 0.3 0.1 0.2 0.3 0.2 0.3 0.2 0.2 0.3 0.2 0.3 0.2 0.4l0.2-0.1 0.2 0.1h0.3 0.2 0.3 0.2 0.2 0.3l0.3-0.1h0.3 0.2 0.3 0.2 0.2l0.4-0.1h0.4 0.2l0.4-0.1h0.4 0.5 0.6 0.7 0.8 1 1.2m-3.2 0.8l0.4-0.1 0.3-0.2 0.3-0.2 0.3-0.1 0.4-0.1h0.2l0.4-0.1 0.2-0.1h0.3l0.2-0.2h0.2l0.3-0.1h0.2l0.1-0.1h0.3 0.2l0.3-0.1h0.1 0.2 0.3 0.2 0.1 0.3 0.1 0.1l0.2 0.1h0.2 0.1l0.1 0.1 0.1 0.1 0.1 0.2 0.2 0.1v0.1l0.1 0.1v0.3 0.1 0.1 0.2l-0.1 0.2v0.2l-0.2 0.1v0.3l-0.1 0.2-0.1 0.2-0.2 0.3-0.2 0.2m0.5-0.8l0.4 1.3 0.2 2.9v1.7l-0.2 1.6-0.4 0.9-0.3 0.8m-5.4 2.1l0.4 0.2 0.4 0.1 0.4 0.3 0.2 0.1 0.2 0.1h0.3l0.2 0.1h0.3l0.2 0.1h0.2l0.2 0.2h0.2 0.2 0.3 0.1 0.2 0.3 0.1 0.1 0.3 0.1 0.1 0.2l0.2-0.2h0.1l0.1-0.1h0.1v-0.1h0.1l0.2-0.1v-0.1l0.1-0.2 0.1-0.1v-0.1-0.1l0.1-0.3v-0.1-0.1-0.1-0.1-0.2-0.1-0.1-0.1l-0.1-0.1v-0.2-0.1l-0.1-0.1v-0.2-0.2l-0.1-0.3-0.2-0.4-0.1-0.5-0.1-0.6m-22.9 4h0.9 1 0.7 0.5 0.5 0.3 0.4 0.2 0.3 0.2 0.3 0.2l0.2 0.1h0.3 0.2 0.3 0.1 0.2 0.3 0.2 0.2 0.3 0.1 0.2 0.3 0.1 0.2 0.2 0.2l0.1 0.1h0.3 0.1 0.2 0.1 0.3 0.1 0.2 0.3 0.1 0.2 0.3 0.2 0.3 0.1 0.2 0.3l0.2 0.2h0.1 0.3 0.2 0.1 0.3 0.1 0.2 0.3 0.1 0.2 0.1l0.3 0.1h0.1 0.2 0.2 0.2 0.1 0.3 0.2 0.2 0.4 0.5 0.6l0.7-0.1 0.8-0.2m-25.3 0.4h0.5 0.5 0.5 0.3 0.4l0.2-0.1h0.4 0.2 0.3l0.2-0.1h0.2 0.3 0.2 0.3 0.3l0.3-0.2h0.2 0.4l0.2-0.1h0.5l0.3-0.1 0.5-0.1 0.5-0.1 0.6-0.3m13.9-18.6l-0.5-0.3-0.3-0.3-0.4-0.3-0.3-0.3-0.4-0.3-0.4-0.3-0.2-0.3-0.4-0.3-0.3-0.2-0.3-0.3-0.3-0.2-0.3-0.2-0.3-0.2-0.3-0.2-0.3-0.2-0.4-0.2-0.3-0.2-0.4-0.1-0.4-0.3-0.4-0.1-0.5-0.1-0.5-0.1-0.6-0.1h-0.7m9.2 5.5l-1.5-1.9-0.4-2.2v-2.9l0.4-2.3 1-2.1m-1.4 9.1l-1.4-2.5-0.8-2.5-0.3-1.2m11.1-55.6l1.2-1.6 0.4-1.2v-3.1l-0.4-2.1-1.5-0.6-2.2 0.2-1.5 1-0.6 0.2m-62.6 11.9l-0.6-3.1v-3.2l-0.3-3.3 0.7-2.3 1.8-1.8h2.8l2.1 1 1.6 1.5m-1.2-0.9l2.5-1h3.4l4.3-0.2 3.1 0.6 2.2 0.8m-2.2 1l2.4-1.6 3.7-0.6 3.7-0.6h4.1l3.4 0.4 3.1 0.2 2.8 0.6 2.8 1 2.4 0.9 1.6 1m-4.7-2.3l0.7-0.2 4-0.6 3.1-0.4 4.3-0.2 4.1 0.2 1.8 0.6m-4.2 4.6l-3.6 3.6-4.1 2.5-6.2 3.7-7.7 1.4-4.3 1.8m34.2 19.6l0.2-2.2 0.6-3.4 0.4-3-0.6-5.7v-3.3l0.2-3.5-0.6-3.6-0.2-2.9-0.4-1.8-0.3-1.3m-65.9 23.6l-1.2-2.9-0.4-2.7v-3.1l-0.3-3v-3.8l1.3-2.5 0.8-1.2m58.1-6.3l-1.8 2.8-1.8 5.9-1.4 6.6-0.7 8.8 0.7 4.3"/>
		<path id="Path 26" class="s0" d="m920.8 953.7v6h-22.4v-6zm97.4 0v6h-22.4v-6z"/>
		<path id="Path 27" class="s1" d="m922.8 953.7v1.8m71 0v1.7m-35.6-3.5h-35.4m71 1.8h-71m71 1.7h2m-2-3.5h2m-73 0h-2m2 1.8v1.7h-2m73-1.7v-1.8m-35.6 3.5h35.6"/>
		<path id="Path 28" class="s2" d="m958.2 953.7h35.6m-35.6 3.5h-35.4"/>
		<path id="Path 29" class="s1" d="m958.2 953.7v3.5"/>
		<path id="Path 30" class="s2" d="m995.8 959.7h-75"/>
		<path id="Path 31" class="s4" d="m821.1 1088.6c-0.5 0-1 0.4-1 1m0-14.1c0 0.6 0.5 1.1 1 1.1m-0.7 1.9c0-0.2-0.2-0.4-0.5-0.4-0.2 0-0.4 0.2-0.4 0.4 0 0.3 0.2 0.5 0.4 0.5 0.3 0 0.5-0.2 0.5-0.5zm-3.6 1.5c0-2.2-1.8-4-4.1-4m-7.2 0c-1.9 0-3.5 1.3-3.9 3.2m3.9-5.5c-3 0-5.5 2.1-6.1 5m6.1-4.9h9.5m-9.5 2.3h14.6m0-0.7c0-0.9-0.7-1.6-1.6-1.6m-3.5 0h3.4m1.7 1.7v0.1m-20.7 10.7c0.6 2.9 3.1 5 6.1 5m0 0h9.5m5.1-2.3h-14.6m-3.9-9.8c-0.4 2.2-0.4 4.4 0 6.6m-2.1-7c-0.5 2.4-0.5 5 0 7.4m2.1-0.4c0.4 1.9 2 3.2 3.9 3.2m11.3-9v5.1m-7.5 0.2c1.3-0.3 2.2-1.4 2.3-2.8m0 0c-0.1-1.4-1-2.5-2.3-2.8m0 0.1q0 0 0 0m3.4 9.2c2.3 0 4.1-1.8 4.1-4m-7.5 0.3q0 0 0 0m11.1 1.3c0-0.3-0.2-0.4-0.5-0.4-0.2 0-0.4 0.1-0.4 0.4 0 0.2 0.2 0.4 0.4 0.4 0.3 0 0.5-0.2 0.5-0.4zm-0.3 3.2v-0.2m-1.6 1.7c0.9 0 1.6-0.7 1.6-1.6m-5.1 1.6h3.4m6.9-15.9q-0.3 3.5-0.3 7.1m-1.5-7.3q-0.3 3.7-0.3 7.3m8.7-9.5v19.2m0-17.4h-6m6-1.8h-6m0 0c-1.2 0-2.3 1-2.4 2.2m2.4-0.4c-0.3 0-0.6 0.2-0.6 0.6m-4.2 1.2h2.1m0.3 13.3c0.1 1.3 1.2 2.3 2.4 2.3m-0.9-9.7q0 3.6 0.3 7.1m-2.1-7.1q0 3.6 0.3 7.3m8.4 0.6h-6m-0.6-0.7c0 0.4 0.3 0.7 0.6 0.7m-4.8-1.8h2.1m8.7 3.6h-6m6 15.9c0-1.9-1.5-3.3-3.3-3.3m0 17.5c1.8 0 3.3-1.5 3.3-3.3m-20.3-12h10.2m-10.2-2.1h8.8m-5.7 3.6c-2.3 0-4.2 1.6-4.5 3.9m4.5-3.6c-2.1 0-3.9 1.6-4.1 3.6m11.2 7.7h-10.2m0 2.2h16.9m-18.3-7.6c0.3 2.2 2.2 3.9 4.5 3.9m-4.1-4c0.2 2.1 2 3.6 4.1 3.6m-4.5-4.6q0 0.5 0 1.1m0.3-1.1q0 0.5 0.1 1m-5.1-4.7c-0.5 2.4-0.5 4.9 0 7.4m2.1-7c-0.4 2.2-0.4 4.4 0 6.6m4.1-12.1c-3 0-5.6 2.1-6.2 5m6.2-2.8c-2 0-3.6 1.4-4 3.3m2.5 2.2q0 0.5 0 1.1m0.4-1.1q-0.1 0.6-0.1 1.1m-5 3.6c0.6 3 3.2 5.1 6.2 5.1m-4-5.5c0.4 1.9 2 3.2 4 3.2m16.1-5.3q0.1-0.6 0.1-1.1m-0.4 1q0.1-0.5 0.1-1m-3.2 1.1c-0.7 0-1.2-0.5-1.2-1.1 0-0.7 0.5-1.2 1.2-1.2 0.6 0 1.1 0.5 1.1 1.2 0 0.6-0.5 1.1-1.1 1.1zm1.5-1.7c-0.3-0.8-1.1-1.2-1.8-1-0.8 0.1-1.3 0.8-1.3 1.6 0 0.8 0.5 1.4 1.3 1.6 0.7 0.1 1.5-0.3 1.8-1m4.9-0.6c0-0.5-0.4-0.9-0.9-0.9-0.5 0-0.9 0.4-0.9 0.9 0 0.5 0.4 0.9 0.9 0.9 0.5 0 0.9-0.4 0.9-0.9zm-16.2-5h8.8m-8.8 0.4h8.8m-3-4.1h8.1m-13.4 8.7c0-0.4-0.3-0.7-0.7-0.7-0.3 0-0.6 0.3-0.6 0.7 0 0.3 0.3 0.6 0.6 0.6 0.4 0 0.7-0.3 0.7-0.6zm10.2-4.7c-0.8-1.1-2-1.9-3.4-1.9m6 5.4c-0.3-2.3-2.2-3.9-4.5-3.9m4.1 3.9c-0.3-2-2-3.6-4.1-3.6m2.5 5.4c0.1-0.4 0.1-0.8 0-1.2m3-4.2c0-0.5-0.4-0.9-0.9-0.9-0.5 0-0.9 0.4-0.9 0.9 0 0.5 0.4 0.9 0.9 0.9 0.5 0 0.9-0.4 0.9-0.9zm-1.3 4.8q0-0.5-0.1-1.1m0.4 1.1q0-0.6-0.1-1.1m2.9-2.4c0-0.2-0.2-0.4-0.4-0.4-0.3 0-0.5 0.2-0.5 0.4 0 0.2 0.2 0.4 0.5 0.4 0.2 0 0.4-0.2 0.4-0.4zm-16.1 8.5h8.8m-8.8-0.4h8.8m0 0.4c2.3 0 4.2-1.7 4.5-3.9m-4.5 3.5c2.1 0 3.8-1.5 4.1-3.6m-5.6 5.4c1.4 0 2.6-0.7 3.4-1.9m3.6 0.2c0-0.5-0.4-0.9-0.9-0.9-0.5 0-0.9 0.4-0.9 0.9 0 0.5 0.4 0.9 0.9 0.9 0.5 0 0.9-0.4 0.9-0.9zm2.9-10.2v10.9m-89.3-51.9h89.9m-89.9 1.1h89.9m-7.5-22.1h7.5m-7.5 1.1h7.5m-6-1.3c-0.3-0.6-1-1-1.7-0.9-0.7 0.2-1.2 0.8-1.2 1.5 0 0.8 0.5 1.4 1.2 1.5 0.8 0.1 1.4-0.3 1.7-1m-1.4-1.1q-0.3 0.2-0.3 0.6 0 0.4 0.3 0.6m1.4-1.2c-0.3-1.6-1.8-2.6-3.3-2.4-1.6 0.1-2.8 1.5-2.7 3.1 0 1.6 1.2 2.9 2.8 3 1.6 0.1 3-1.1 3.2-2.6"/>
		<path id="Path 32" class="s0" d="m832.4 1135v6h-30v-6zm-89.9-83.9v119.9h-6v-119.9zm95.9-30v119.9h-6v-119.9zm-95.9 0v30h-6v-30zm89.9 0v6h-30v-6zm-86.4 113.9v6h-3.5v-6zm56.4 0v6h-16.5v-6zm215.9 34.6v29.8h-6v-29.8z"/>
		<path id="Path 33" class="s4" d="m1018.2 1171h-179.8"/>
		<path id="Path 34" class="s0" d="m934.4 1133.4v6h-30v-6zm29.8 0v6h-29.8v-6zm30 0v6h-30v-6zm-89.9 0v6h-30v-6zm-66 37.6v30h-6v-30z"/>
		<path id="Path 35" class="s4" d="m832.4 1171h-89.9m89.9-118v72.6m-1.1 1.1c0.7 0 1.2-0.5 1.2-1.1m0-72.6c0-0.6-0.5-1.2-1.2-1.2"/>
		<path id="Path 36" class="s0" d="m802.4 1021.1v6h-29.9v-6zm-29.9 0v6h-30v-6zm-30 149.9v30h-6v-30z"/>
		<path id="Path 37" class="s1" d="m747.3 1138.6v-3.6m0 1.8h2.4m36.2-1.8v3.6h-1.2v-3.6zm-38.6 3.6h-1.3m1.3-3.6h-1.3m1.3 1.8v-37.4m2.4 37.4v-37.4m-2.4 0h2.4m35 35.6c0.2-19.5-15.5-35.5-35-35.8m-2.4 37.6h37.4"/>
		<path id="Path 38" class="s0" d="m742.5 1017.6v3.5h-6v-3.5zm0-56.4v16.5h-6v-16.5z"/>
		<path id="Path 39" class="s1" d="m739 979h3.5m-1.8 0v2.4m1.8 35v1.2h-3.5v-1.2zm-3.5-37.4v-1.3m3.5 1.3v-1.3m-1.8 1.3h37.6m-37.6 2.4h37.6m0-2.4v2.4m-35.8 34.9c19.5 0.2 35.5-15.5 35.8-35m-37.6-2.3v37.4"/>
		<path id="Path 40" class="s0" d="m514.7 1201v6h-30v-6z"/>
		<path id="Path 41" class="s4" d="m657.9 1133.6c0.6 0 1.1-0.5 1.1-1.1m0 14c0-0.6-0.5-1.1-1.1-1.1m0.8-1.9c0 0.2 0.2 0.4 0.4 0.4 0.3 0 0.5-0.2 0.5-0.4 0-0.3-0.2-0.5-0.5-0.5-0.2 0-0.4 0.2-0.4 0.5zm3.6-1.5c0 2.2 1.8 4 4 4m7.2 0c2 0 3.6-1.3 4-3.2m-4 5.5c3 0 5.6-2.1 6.2-5m-6.2 5h-9.5m9.5-2.3h-14.7m0.2 0.6c0 0.9 0.7 1.6 1.6 1.6m3.4 0.1h-3.5m-1.7-1.7v-0.1m20.9-10.8c-0.6-2.9-3.2-5-6.2-5m0 0.1h-9.5m-5.2 2.3h14.7m4 9.7c0.4-2.2 0.4-4.4 0-6.6m2.1 7c0.5-2.4 0.5-5 0-7.4m-2.1 0.4c-0.4-1.9-2-3.2-4-3.2m-11.3 9.1v-5.1m7.6-0.3c-1.3 0.3-2.3 1.4-2.3 2.8m0 0c0 1.4 1 2.5 2.3 2.8m0-0.1q0 0 0 0m-3.5-9.2c-2.2 0-4 1.8-4 4m7.5-0.3q0 0 0 0m-11.1-1.2c0 0.3 0.2 0.5 0.4 0.5 0.3 0 0.5-0.2 0.5-0.5 0-0.2-0.2-0.4-0.5-0.4-0.2 0-0.4 0.2-0.4 0.4zm0.1-3.1v0.2m1.8-1.9c-0.9 0-1.6 0.7-1.6 1.6m5-1.5h-3.5m-6.7 15.8q0.3-3.5 0.2-7.1m1.6 7.3q0.3-3.7 0.2-7.3m-8.7 9.7v-19.2m0 17.4h6m-6 1.8h6m0-0.2c1.3 0 2.4-1 2.5-2.2m-2.5 0.4c0.4 0 0.7-0.2 0.7-0.6m4.1-1h-2.2m-0.1-13.4c-0.1-1.2-1.2-2.2-2.5-2.2m0.9 9.5q0.1-3.6-0.2-7.1m2 7.1q0.1-3.6-0.2-7.3m-8.5-0.4h6m0.7 0.6c0-0.4-0.3-0.6-0.7-0.6m4.8 1.8h-2.2m-8.6-3.6h6m-5.9-16.1c0 1.9 1.5 3.3 3.3 3.3m0-17.5c-1.8 0-3.3 1.5-3.3 3.3m20.2 12.1h-10.2m10.2 2.1h-8.8m5.8-3.7c2.3 0 4.2-1.6 4.5-3.9m-4.5 3.6c2.1 0 3.8-1.6 4.1-3.6m-11.3-7.6h10.2m0-2.2h-17m18.5 7.5c-0.3-2.2-2.2-3.9-4.5-3.9m4.1 4c-0.3-2.1-2-3.6-4.1-3.6m4.5 4.7q0-0.5-0.1-1.1m-0.2 1.1q0-0.5-0.1-1m5.1 4.8c0.5-2.5 0.5-5 0-7.5m-2.1 7c0.4-2.1 0.4-4.4 0-6.6m-4.1 12c3 0 5.6-2.1 6.2-5m-6.2 2.8c1.9 0 3.6-1.4 4-3.3m-2.6-2.1q0.1-0.5 0.1-1.1m-0.4 1.1q0.1-0.5 0.1-1.1m5-3.7c-0.6-3-3.2-5.1-6.2-5.1m4 5.5c-0.4-1.9-2.1-3.2-4-3.2m-16.2 5.4q0 0.6 0 1.1m0.4-1q-0.1 0.5-0.1 1m3.2 1.2c-0.6 0-1.1-0.5-1.1-1.2 0-0.6 0.5-1.1 1.1-1.1 0.6 0 1.1 0.5 1.1 1.1 0 0.7-0.5 1.2-1.1 1.2zm-1.5-0.5c0.3 0.7 1.1 1.1 1.8 0.9 0.8-0.1 1.3-0.8 1.3-1.6 0-0.7-0.5-1.4-1.3-1.5-0.7-0.2-1.5 0.2-1.8 0.9m-4.9 0.6c0 0.5 0.4 0.9 0.9 0.9 0.5 0 0.9-0.4 0.9-0.9 0-0.5-0.4-0.9-0.9-0.9-0.5 0-0.9 0.4-0.9 0.9zm16.1 5h-8.8m8.8-0.3h-8.8m3 4h-8.2m13.6-8.7c0 0.4 0.3 0.7 0.7 0.7 0.3 0 0.6-0.3 0.6-0.7 0-0.3-0.3-0.6-0.6-0.6-0.4 0-0.7 0.3-0.7 0.6zm-10.2 4.6c0.7 1.1 2 1.9 3.4 1.9m-6-5.4c0.3 2.3 2.2 3.9 4.5 3.9m-4.1-3.9c0.2 2 2 3.6 4.1 3.6m-2.5-5.3c-0.2 0.4-0.2 0.9 0 1.3m-3 4c0 0.5 0.4 0.9 0.9 0.9 0.5 0 0.9-0.4 0.9-0.9 0-0.5-0.4-0.9-0.9-0.9-0.5 0-0.9 0.4-0.9 0.9zm1.3-4.7q0 0.6 0.1 1.1m-0.4-1.1q0 0.6 0 1.1m-2.8 2.3c0 0.2 0.2 0.4 0.4 0.4 0.3 0 0.4-0.2 0.4-0.4 0-0.2-0.1-0.4-0.4-0.4-0.2 0-0.4 0.2-0.4 0.4zm16-8.3h-8.8m8.8 0.3h-8.8m0.1-0.5c-2.3 0-4.2 1.7-4.5 3.9m4.5-3.5c-2.1 0-3.9 1.5-4.1 3.6m5.6-5.4c-1.4 0-2.7 0.7-3.4 1.9m-3.6-0.2c0 0.5 0.4 0.9 0.9 0.9 0.5 0 0.9-0.4 0.9-0.9 0-0.5-0.4-0.9-0.9-0.9-0.5 0-0.9 0.4-0.9 0.9zm-3 10.3v-10.9m0.4-13h12.8m-12.1-2.3h12.5m-12.5-25.9h12.5m-13.2-2.3h12.8m9.7 15.2q0.1-3.3-0.2-6.7m-2.2 6.7q0.1-3.2-0.2-6.4m-14.1 6.5v-10.3m16.4 3.5c-0.4-4.8-4.5-8.5-9.3-8.5m7.1 8.8c-0.4-3.7-3.5-6.5-7.1-6.5m-4.5 0c-1.4 0-2.6 1.2-2.6 2.6m16.5 17q0.3-3.3 0.2-6.7m-16.7 0.1v10.3m7.1 2.5c3.6 0 6.7-2.8 7.1-6.4m-0.1 0q0.3-3.2 0.2-6.5m-0.1-0.3q0-0.1-0.1-0.1m0.1 0.2q0 0 0-0.1m0 0.3q0-0.1 0-0.1m0 0.3q0-0.1 0-0.2m0 0.3q0 0 0-0.1m-0.1 0.3q0.1-0.1 0.1-0.1m-0.2 0q0 0 0 0.1m0-0.3q0 0.1 0 0.1m0.1-0.3q0 0.1 0 0.2m0-0.3q0 0 0 0.1m-0.1-0.3q0 0.1 0 0.1m0-0.2q0 0 0 0.1m0.1-2.5q0.1 0 0.1-0.1m0 0q0-0.1 0-0.1m0-0.1q0 0 0-0.1m0 0q0-0.1 0-0.2m0 0.1q0-0.1 0-0.1m0 0q0-0.1-0.1-0.1m-0.1 0q0 0 0 0.1m0 0q0 0 0 0.1m0.1-0.1q0 0.1 0 0.2m0 0q0 0.1 0 0.1m-0.1 0.1q0 0 0 0.1m0 0q0 0.1 0 0.1m0.2 5.7q0 0-0.1-0.1m0.1 0.3q0-0.1 0-0.2m0 0.4q0-0.1 0-0.2m0 0.3q0-0.1 0-0.1m0 0.2q0-0.1 0-0.2m-0.1 0.3q0.1-0.1 0.1-0.1m-0.2 0q0 0 0 0.1m0-0.3q0 0.1 0 0.2m0.1-0.2q0 0 0 0.1m0-0.3q0 0.1 0 0.2m-0.1-0.4q0 0.1 0 0.2m0-0.3q0 0.1 0 0.1m-11.1-1.7c-0.7 0-1.2-0.5-1.2-1.2 0-0.6 0.5-1.1 1.2-1.1 0.6 0 1.1 0.5 1.1 1.1 0 0.7-0.5 1.2-1.1 1.2zm4.2 14c4.8 0 8.9-3.7 9.3-8.5m-16.4 3.6c0 1.5 1.2 2.6 2.6 2.6m-8.7-12.8v-15m0.7 15v-8.4m0 6.7v-11m-0.4-2.7c-0.1 0-0.3 0.2-0.3 0.3m1 2.1c-0.1 0-0.1 0.1-0.1 0.2m2.8 6.8c0.5 0 0.9-0.4 0.9-0.9 0-0.5-0.4-0.9-0.9-0.9-0.5 0-0.9 0.4-0.9 0.9 0 0.5 0.4 0.9 0.9 0.9zm-3 6v12.7m-0.7-12.7v15m3.7-7.3c0.5 0 0.9-0.4 0.9-0.9 0-0.5-0.4-0.9-0.9-0.9-0.5 0-0.9 0.4-0.9 0.9 0 0.5 0.4 0.9 0.9 0.9zm-3-6v6.7m2.4-7.6c0.5 0 0.9-0.4 0.9-0.9 0-0.5-0.4-0.9-0.9-0.9-0.5 0-0.9 0.4-0.9 0.9 0 0.5 0.4 0.9 0.9 0.9zm-2.2 11.8c0 0.1 0 0.2 0.1 0.2m-1 2.1c0 0.2 0.2 0.3 0.3 0.3m88.9 64.9h-89.9m89.9-0.9h-89.9m7.4 22.1h-7.4m7.4-1.2h-7.4m6.1 1.1c0.3 0.6 1 1 1.7 0.9 0.7-0.2 1.2-0.8 1.2-1.5 0-0.8-0.5-1.4-1.3-1.5-0.7-0.1-1.4 0.3-1.6 1m1.4 1.1q0.3-0.2 0.3-0.6 0-0.4-0.3-0.6m-1.4 1.2c0.3 1.6 1.7 2.6 3.3 2.4 1.6-0.1 2.8-1.5 2.7-3.1 0-1.6-1.3-2.9-2.8-3-1.6-0.1-3 1.1-3.3 2.6"/>
		<path id="Path 42" class="s0" d="m676.6 1051.1v6h-30v-6zm-30 0v119.9h-6v-119.9zm0 119.9v30h-6v-30z"/>
		<path id="Path 43" class="s1" d="m694.2 1053.6v3.5m0-1.8h2.6m36.2-1.7v3.5h-1.3v-3.5zm-38.8 0h-1.2m1.2 3.5h-1.2m1.2-1.8v37.6m2.5-37.6v37.6m-2.5 0h2.5m0.1-0.1c19.5-0.3 35.1-16.3 35-35.8m-37.6-1.7h37.5"/>
		<path id="Path 44" class="s0" d="m736.5 1051.1v6h-3.5v-6zm-43.4 0v6h-16.5v-6zm-154.3-97.4v6h-30v-6zm6 247.3v6h-30v-6zm101.9-179.9v30h-6v-30zm-257.8-67.4v6h-30v-6zm30 0v6h-30v-6zm-269.7 193.3v30h-6v-30zm0 30v30h-6v-30zm197.7-161.9v6h-30v-6z"/>
		<path id="Path 45" class="s4" d="m394.8 444.2v353.6h-59.8v-353.6z"/>
		<path id="Path 46" class="s0" d="m239 961.2v29.9h-6v-29.9zm0 29.9v30h-6v-30zm77.8 24v6h-29.8v-6z"/>
		<path id="Path 47" class="s4" d="m233 1015.1h-83.9m467.5 6v179.9m-401.6-94.1v92.4h-40v-92.4zm-4.9 69.6v-69.6m-5.1 66.1v-66.1m-4.9 62.8v-62.8m-5 59.3v-59.3m-5.1 55.9v-55.9m-4.9 52.6v-52.6m-5 50.5v-50.5m-5.1 91h-1.4v3h43v-3h-1.6m-36.3-17.1c-1.4 0-2.5 1.1-2.5 2.5m2.4-2.5h32.4m2.6 2.5c0-1.4-1.1-2.5-2.5-2.5m2.5 2.6v12m-2.5 2.4c1.4 0 2.5-1.1 2.5-2.5m-2.6 2.6h-32.4m-2.4-2.6c0 1.4 1.1 2.5 2.5 2.5m-2.6-2.4v-12m38.9-3.5l-40-11.5m5.6-12l34.4 23.5m-40-11.5l5.6-12m-11.4 24.6v20h-20.1v-20zm138.4-718.1c-2.1 0-3.7-1.7-3.7-3.8 0-2.1 1.6-3.8 3.7-3.8 2.1 0 3.8 1.7 3.8 3.8 0 2.1-1.7 3.8-3.8 3.8z"/>
		<path id="Path 48" fill-rule="evenodd" class="s5" d="m307.6 453.9v3.3l-0.4-3.3zm-0.3 3.3h0.3l-0.3-3.3z"/>
		<path id="Path 49" fill-rule="evenodd" class="s5" d="m302.2 458.9h3.4l-3.4 0.4zm3.4 0.3v-0.3l-3.4 0.3z"/>
		<path id="Path 50" fill-rule="evenodd" class="s5" d="m307.2 464.3v-3.3l0.4 3.3zm0.4-3.3h-0.4l0.4 3.3z"/>
		<path id="Path 51" fill-rule="evenodd" class="s5" d="m312.8 459.3h-3.4l3.4-0.4zm-3.4-0.3v0.3l3.4-0.3z"/>
		<path id="Path 52" class="s4" d="m321.8 462.9c-2.1 0-3.8-1.7-3.8-3.8 0-2.1 1.7-3.8 3.8-3.8 2.1 0 3.8 1.7 3.8 3.8 0 2.1-1.7 3.8-3.8 3.8z"/>
		<path id="Path 53" fill-rule="evenodd" class="s5" d="m322 453.9v3.3l-0.5-3.3zm-0.5 3.3h0.5l-0.5-3.3z"/>
		<path id="Path 54" fill-rule="evenodd" class="s5" d="m316.5 458.9h3.3l-3.3 0.4zm3.3 0.3v-0.3l-3.3 0.3z"/>
		<path id="Path 55" fill-rule="evenodd" class="s5" d="m321.5 464.3v-3.3l0.5 3.3zm0.5-3.3h-0.5l0.5 3.3z"/>
		<path id="Path 56" fill-rule="evenodd" class="s5" d="m327 459.3h-3.3l3.3-0.4zm-3.3-0.3v0.3l3.3-0.3z"/>
		<path id="Path 57" class="s4" d="m321.8 477.8c-2.1 0-3.8-1.7-3.8-3.8 0-2.1 1.7-3.8 3.8-3.8 2.1 0 3.8 1.7 3.8 3.8 0 2.1-1.7 3.8-3.8 3.8z"/>
		<path id="Path 58" fill-rule="evenodd" class="s5" d="m322 468.8v3.3l-0.5-3.3zm-0.5 3.3h0.5l-0.5-3.3z"/>
		<path id="Path 59" fill-rule="evenodd" class="s5" d="m316.5 473.8h3.3l-3.3 0.4zm3.3 0.3v-0.3l-3.3 0.3z"/>
		<path id="Path 60" fill-rule="evenodd" class="s5" d="m321.5 479.2v-3.2l0.5 3.2zm0.5-3.2h-0.5l0.5 3.2z"/>
		<path id="Path 61" fill-rule="evenodd" class="s5" d="m327 474.2h-3.3l3.3-0.4zm-3.3-0.4v0.4l3.3-0.4z"/>
		<path id="Path 62" fill-rule="evenodd" class="s5" d="m312.8 474.2h-3.4l3.4-0.4zm-3.4-0.4v0.4l3.4-0.4z"/>
		<path id="Path 63" fill-rule="evenodd" class="s5" d="m307.2 479.2v-3.2l0.4 3.2zm0.4-3.2h-0.4l0.4 3.2z"/>
		<path id="Path 64" fill-rule="evenodd" class="s5" d="m302.2 473.8h3.4l-3.4 0.4zm3.4 0.3v-0.3l-3.4 0.3z"/>
		<path id="Path 65" fill-rule="evenodd" class="s5" d="m307.6 468.8v3.3l-0.4-3.3zm-0.3 3.3h0.3l-0.3-3.3z"/>
		<path id="Path 66" class="s4" d="m307.5 477.8c-2.1 0-3.7-1.7-3.7-3.8 0-2.1 1.6-3.8 3.7-3.8 2.1 0 3.8 1.7 3.8 3.8 0 2.1-1.7 3.8-3.8 3.8zm21.5-26.4h-28.7m0-1.2v28.5m0.1 0c0 1.3 1 2.3 2.3 2.3m0 0.1h23.9m0-0.1c1.3 0 2.4-1 2.4-2.3m0 0v-28.5h-28.7m-81.4 2l-0.3-0.4m0.9 0l-0.2-0.4m0.8 0.4l0.1-0.6m0.4 0.9l0.5-0.4m-0.9 2.5l0.3 0.5m-0.9-0.5l-0.1 0.6m-0.8-1.4l-0.5 0.2m0.5-0.8l-0.6-0.1m1.8 1.5c-0.7 0-1.2-0.5-1.2-1.2 0-0.7 0.5-1.3 1.2-1.3 0.7 0 1.3 0.6 1.3 1.3 0 0.7-0.6 1.2-1.3 1.2zm1.1-1.5l0.6-0.3m-0.5 0.9l0.6 0.1m-1 0.5l0.5 0.3m-2.2-0.2l-0.3 0.4m-7.9-0.4l-0.4 0.4m1-0.2l-0.2 0.6m0.8-0.6l0.1 0.5m0.3-0.8l0.5 0.3m-0.2-0.9l0.6 0.1m-0.6-0.7l0.6-0.3m-1.5-0.6v-0.6m0.5 0.9l0.4-0.4m-1 2.5c-0.7 0-1.3-0.5-1.3-1.2 0-0.7 0.6-1.3 1.3-1.3 0.7 0 1.2 0.6 1.2 1.3 0 0.7-0.5 1.2-1.2 1.2zm-0.6-2.4l-0.1-0.4m-0.4 0.8l-0.4-0.4m0.2 1l-0.6-0.1m0.6 0.7l-0.6 0.2m-8 3.6h12.1m1.4 1.1q0-0.1 0-0.2m-2.5 2.6c-0.4-0.5-1.1-0.6-1.6-0.3-0.6 0.3-0.8 1-0.6 1.6 0.3 0.6 0.9 0.9 1.5 0.7m1.1 1.4l-1.5-0.5m0.1-0.1c-0.2 0.4 0 0.9 0.5 1 0.4 0.2 0.8-0.1 0.9-0.5m3-8.8l-3 8.9m1.5-9.4l-3 8.9m4.1-7.2l1.2-1.6m-0.8 0.4l-1.5-0.5m-0.3 1.2v-1.9m0.3-1.3l-0.3 1.3m3-0.4c-0.7-0.7-1.7-1.1-2.6-0.9m2.6 0.9l-0.4 1.2m2.7 8c-0.7 0-1.3-0.6-1.3-1.3 0-0.7 0.6-1.3 1.3-1.3 0.7 0 1.3 0.6 1.3 1.3 0 0.7-0.6 1.3-1.3 1.3zm-4.5 11.7v-16.2m2-1.1h12.5m-13.5 17.3v-16.2m1.1-1.1c-0.6 0-1 0.5-1 1.1m-2 17.2c0.6 0 1-0.5 1-1m1 0c0 0.5 0.4 1 1 1m-0.1 0.1h12.5m-18-20.8c-1.1 0-1.9-0.8-1.9-1.8 0-1 0.8-1.9 1.9-1.9 1 0 1.8 0.9 1.8 1.9 0 1-0.8 1.8-1.8 1.8zm8.2 0c-1 0-1.8-0.8-1.8-1.8 0-1 0.8-1.9 1.8-1.9 1.1 0 1.9 0.9 1.9 1.9 0 1-0.8 1.8-1.9 1.8zm-18.1 2.4c-0.5 0-1 0.5-1 1.1m0 16.2c0 0.5 0.5 1 1 1m28 0c0.5 0 1-0.5 1-1m0-16.2c0-0.6-0.5-1.1-1-1.1m-28 18.4h12.4m16.5-17.3v16.2m-30-16.2v16.2m-56.7 4.3l156.3-0.1"/>
		<path id="Path 67" class="s3" d="m144 478.8h-0.9v45"/>
		<path id="Path 68" class="s4" d="m149.1 523.8h138.3m0 0v29.9m0 0h-138.3m40.1 73.8v-18.7m67.8 18.7v-18.7m-78.3 6.4l0.4-7.7m0-0.5l-0.4-7.7m-1.3 3.9h1.6m-1.6 0.4l1.6 0.2m-1.6 7h1.6m15.2 6.8l-15.5-2.4m-1.3-3.9h1.6m15.2-14.4l-15.5 2.4m13 8.2h62.7m-65.2-1.2h67.8m-67.8 2.5h67.8m0-21.2l-9.6-1.4-9.8-0.8-9.7-0.5h-9.7l-9.7 0.5-9.7 0.8-9.6 1.4m67.8 0v18.7m-2.6 0v1.2m0 1.3v-1.3m-58-0.6c-0.1-3.4-0.8-6.8-2.1-10m-5.1-9.3v18.7m5.1 11.2c1.3-3.2 2-6.6 2.1-10.1m-4.7-1.1v1.2m0 1.3v-1.3m4.5-0.5v0.5m-17.1-0.5v0.5m-2.3-9.4c-1.3 6-1.3 12.2 0 18.2m-1.8-19.1c-1.6 6.6-1.6 13.4 0 20m0-19.9l1.8 0.8m0.6 12.7h-1.4m1.4-7.2h-1.4m1.4-0.4h-1.3m-1.1 14.1l1.8-0.9m0.6-5.1h-1.3m-0.9 5.8v0.1m-0.2 0h0.2m14 10.3l9.6 1.3 9.7 0.9 9.7 0.3h9.7l9.7-0.3 9.8-0.9 9.6-1.3m-20.2-6.1c-3.4 0-6.8 0.7-10 2.1m10.1 15.1q-3.9 0-7.7 0.4m-1.2 1.9c6 1.4 12.2 1.4 18.2 0m-19.1 1.9c6.6 1.5 13.4 1.5 20 0m-13.5-2.4v-1.6m-0.6 1.6v-1.6m8.1 1.6v-1.6m-0.5 1.6v-1.6m6.8-15.3c-3.2-1.4-6.6-2.1-10.1-2.1m10.1 2.3l-2.4 15.5m-7.6-17.7h-0.6m8.2 17.5q-3.8-0.4-7.7-0.4m0.1 0.1h-0.6m10.3 4.1l-0.9-1.8m-5.6-0.6v1.4m0.5-1.4v1.4m-7.5-1.4v1.4m-0.6-1.4v1.4m-33.1-0.9c6 1.4 12.2 1.4 18.2 0m-19.1 1.9c6.6 1.5 13.4 1.5 20 0m-10.2-21.4c-3.5 0-6.9 0.7-10.1 2.1m0.1 0.2l2.4 15.5m3.7 1.2v-1.6m0.6 1.6v-1.6m7.1 1.6v-1.6m0.6 1.6v-1.6m3.7 0.4l-7.6-0.5m10-15.2c-3.2-1.4-6.6-2.1-10-2.1m17.5 2.3l2.4 15.5m-9.9-15.5l-2.4 15.5m-8.2-17.7h0.6m-0.6 17.2l-7.5 0.5m7.5-0.5h0.6m17.8 4.1l0.9-1.8m-0.8 1.5v0.1m0 0.2v-0.2m-8.2 0.2l-0.9-1.8m0.8 1.5v0.1m0 0.2v-0.2m-6.3-2.2v1.4m0.6-1.4v1.4m-7.7-1.4v1.4m-0.6-1.4v1.4m-5.9 1l1-1.8m-1.2-49.6l2.4-15.5m18.1 15.5l-2.4-15.5m9.9 15.5l2.4-15.5m18.2 15.5l-2.4-15.5m-35.7 17.5c3.4 0 6.8-0.7 10-2.1m18 2.1c3.5 0 6.9-0.7 10.1-2.1m-20.6 0c3.2 1.4 6.6 2.1 10 2.1m0.6 0h-0.6m-38.1-2.1c3.2 1.4 6.6 2.1 10.1 2.1m-0.1 0h0.6m8.8-19.3c-6-1.4-12.2-1.4-18.2 0m19.1-1.9c-6.6-1.6-13.4-1.6-20 0m10.3 4.1l7.6-0.4m29.3-1.8c-6-1.4-12.2-1.4-18.2 0m19.1-1.9c-6.6-1.6-13.4-1.6-20 0m10.2 4.1q3.9 0 7.7-0.5m2.1-3.6l-0.9 1.8m-5.1 0.7v1.5m-0.5-1.5v1.6m0-1.6v-1.5m0.5 1.5v-1.4m-11.9 2.5q3.8 0.5 7.7 0.5m-3.3-1.6v1.6m-0.6-1.6v1.5m4.4 0.1h-0.6m-3.2-1.6v-1.5m-0.6 1.5v-1.4m-5.9-1.1l0.9 1.8m-0.8-1.8v0.2m-8.2-0.2l-0.9 1.8m0.8-1.8v0.2m-17.7 3.5l7.5 0.4m3.9-1.6v1.6m0.6-1.6v1.5m-4.5 0.1h0.6m3.3-1.6v-1.5m0.6 1.5v-1.4m-8.3 1.4v1.5m0.6-1.5v1.6m0-1.6v-1.5m-0.6 1.5v-1.4m-5.9-1.1l1 1.8m51.9 43.6l15.5-2.4m-17.5-7.8c0 3.5 0.7 6.9 2.1 10.1m0-20.6c-1.4 3.2-2.1 6.6-2.1 10m0 0.1v0.5m2-10.6l15.5 2.4m0.1 0q-0.4 3.8-0.5 7.6m2.4 9.4c1.3-6 1.3-12.2 0-18.2m1.9 19.1c1.5-6.6 1.5-13.4 0-20m-0.2 0.1l-1.8 0.8m-0.6 5.1h-1.5m1.5 0.4l-1.5 0.2m1.5 7h-1.5m1.5 0.5h-1.5m-0.2-3.9q0.1 3.9 0.5 7.7m-0.5-8.1v0.5m1.7 3.3h1.5m-1.5-7.2h1.5m-1.5-0.4h1.3m-1.3 8.1h1.3m1.1 6l-1.8-0.9m1.6 0.7v0.1m0.2 0h-0.2m156.8 545.5c-17.4 0-31.4-14-31.4-31.4 0-17.3 14-31.3 31.4-31.3 17.3 0 31.3 14 31.3 31.3 0 17.4-14 31.4-31.3 31.4zm-28.5-69.8c-10 0-18.2-8.1-18.2-18.2 0-10.1 8.2-18.2 18.2-18.2 10.1 0 18.2 8.1 18.2 18.2 0 10.1-8.1 18.2-18.2 18.2zm-26.1 23.3c-6.9 0-12.5-5.6-12.5-12.5 0-6.8 5.6-12.4 12.5-12.4 6.8 0 12.4 5.6 12.4 12.4 0 6.9-5.6 12.5-12.4 12.5zm-103.9-373.1v-20.7m0 0h-116.2m0 0v72.9m0 12v2.4m0 0h13.1m-11.3-7.2c-0.7 0-1.3-0.6-1.3-1.3 0-0.7 0.6-1.2 1.3-1.2 0.7 0 1.2 0.5 1.2 1.2 0 0.7-0.5 1.3-1.2 1.3zm55.9-33c-14.1 0-25.5-6.9-25.5-15.4 0-8.6 11.4-15.5 25.5-15.5 14.1 0 25.5 6.9 25.5 15.5 0 8.5-11.4 15.4-25.5 15.4zm0-6.4c-5 0-9.1-4-9.1-9 0-5.1 4.1-9.1 9.1-9.1 5 0 9.1 4 9.1 9.1 0 5-4.1 9-9.1 9zm0-8c-0.6 0-1-0.5-1-1 0-0.6 0.4-1.1 1-1.1 0.6 0 1 0.5 1 1.1 0 0.5-0.4 1-1 1zm-49.5 40.2h-12m0 0v12m0 0h12m0 0v-12m89-3.9h-79.3m80.2 0.8c0-0.4-0.4-0.8-0.8-0.8m-84.2 0.9v34.8m0.1-0.1c0 0.5 0.4 0.8 0.8 0.8m0-36.4c-0.4 0-0.8 0.4-0.8 0.8m0.8 35.7h83.2m0.1-0.1c0.4 0 0.8-0.3 0.8-0.8m-0.1-3.9v-30.8m-80.8 0v30.8m0 0c0 0.4 0.3 0.7 0.8 0.7m0-32.4c-0.5 0-0.8 0.4-0.8 0.8m0 0c0-0.4-0.3-0.8-0.8-0.8m1.5 32.4h79.3m0.1 0c0.4 0 0.8-0.3 0.8-0.7m-0.1 1.6v2.4m0.1-2.5c0-0.4-0.4-0.8-0.8-0.8m-80.9-32.4h-2.4m84-47.6v79.3m0.9-80.1c-0.5 0-0.8 0.3-0.8 0.7m0.7 84.2h34.8m-35.5-0.9c0 0.5 0.3 0.8 0.8 0.8m34.7-84.7h-34.8m0 80.7h30.8m0.1 0c0.4 0 0.8-0.3 0.8-0.7m-32.4 0c0 0.4 0.3 0.7 0.8 0.7m0 0c-0.5 0-0.8 0.4-0.8 0.8m-0.1 0.1v2.4m36.4 0v-83.3m0-0.1c0-0.4-0.3-0.7-0.7-0.7m0 84.8c0.4 0 0.7-0.3 0.7-0.8m-4-3.9v-80"/>
		<path id="Path 69" class="s0" d="m242.4 1015.1v6h-3.4v-6zm56.5 0v6h-16.6v-6z"/>
		<path id="Path 70" class="s1" d="m281.2 1017.6v3.5m0-1.7h-2.5m-34.9-1.8v3.5h-1.4v-3.5zm37.5 0h1.2m-1.2 3.5h1.2m-1.2-1.7v37.5m-2.5-37.5v37.5m2.5 0h-2.5m-35-35.8c-0.1 19.5 15.5 35.5 35 35.8m2.5-37.5h-37.5"/>
		<path id="Path 71" class="s0" d="m496.7 1015.1v6h-3.5v-6z"/>
		<path id="Path 72" class="s1" d="m497.9 1017.6v3.5m0-1.7h2.5m36.3-1.8v3.5h-1.2v-3.5zm-38.8 0h-1.2m1.2 3.5h-1.2m1.2-1.7v37.5m2.5-37.5v37.5m-2.5 0h2.5m0.1 0c19.5-0.3 35.1-16.3 35-35.8m-37.6-1.7h37.6"/>
		<path id="Path 73" class="s0" d="m553.1 1015.1v6h-16.4v-6zm13.5 0v6h-30v-6z"/>
		<path id="Path 74" class="s4" d="m740.6 796.6l-0.8 156.5 275.4 1.2 3-156.5zm-161.8 310.3v92.4h-40v-92.4zm-34.9 69.6v-69.6m4.9 66.1v-66.1m5 62.8v-62.8m5 59.3v-59.3m5 55.9v-55.9m5 52.6v-52.6m5 50.5v-50.5m5 91h1.4v3h-42.9v-3h1.5m39-14.6c0-1.4-1.1-2.5-2.4-2.5m-0.1 0h-32.5m0.1 0c-1.4 0-2.5 1.1-2.5 2.5m-0.1 0.1v12m0.1-0.1c0 1.4 1.1 2.5 2.5 2.5m-0.1 0.1h32.5m0.1-0.1c1.3 0 2.4-1.1 2.4-2.5m0 0.1v-12m-39-3.5l40-11.5m-5.5-12l-34.5 23.5m40-11.5l-5.5-12m31.4 24.6v20h-19.9v-20zm-165.4-245.3c-17.4 0-31.4-14-31.4-31.4 0-17.4 14-31.4 31.4-31.4 17.3 0 31.4 14 31.4 31.4 0 17.4-14.1 31.4-31.4 31.4zm-28.5-69.9c-10 0-18.1-8.1-18.1-18.1 0-10.1 8.1-18.2 18.1-18.2 10.1 0 18.2 8.1 18.2 18.2 0 10-8.1 18.1-18.2 18.1zm-26.1 23.3c-6.9 0-12.4-5.5-12.4-12.4 0-6.9 5.5-12.4 12.4-12.4 6.8 0 12.4 5.5 12.4 12.4 0 6.9-5.6 12.4-12.4 12.4zm165.6-439.8v348.5h-155.4v-348.5z"/>
		<path id="Path 75" class="s0" d="m329 959.7v-6h29.8v6h-29.8 29.8v-6h-29.8zm-179.8-155.9v30h-6v-30zm179.8-359.6v6h-30v-6zm6 157.3v22.5h-6v-22.5zm0-97.3v22.4h-6v-22.4z"/>
		<path id="Path 76" class="s1" d="m329 599.6h1.6m0-71h1.8m-3.4 35.4v35.6m1.6-71v71m1.8-71v-2m-3.4 2v-2m0 73v1.9m1.6-1.9h1.8v1.9m-1.8-72.9h-1.6m3.4 35.4v-35.4"/>
		<path id="Path 77" class="s2" d="m329 564v-35.4m3.4 35.4v35.6"/>
		<path id="Path 78" class="s1" d="m329 564h3.4"/>
		<path id="Path 79" class="s2" d="m335 526.6v74.9"/>
		<path id="Path 80" class="s0" d="m335 751.4v22.5h-6v-22.5zm0-97.4v22.5h-6v-22.5z"/>
		<path id="Path 81" class="s1" d="m329 749.4h1.6m0-70.9h1.8m-3.4 35.4v35.5m1.6-70.9v70.9m1.8-70.9v-2m-3.4 2v-2m0 72.9v2m1.6-2h1.8v2m-1.8-72.9h-1.6m3.4 35.4v-35.4"/>
		<path id="Path 82" class="s2" d="m329 713.9v-35.4m3.4 35.4v35.5"/>
		<path id="Path 83" class="s1" d="m329 713.9h3.4"/>
		<path id="Path 84" class="s2" d="m335 676.5v74.9m0 77.5v24.9"/>
		<path id="Path 85" class="s1" d="m332.4 853.8v-24.9m-3.4 24.9v-24.9m1.6 23.4v-22m-1.6 22h3.4m0-22h-3.4"/>
		<path id="Path 86" class="s2" d="m335 853.8v25"/>
		<path id="Path 87" class="s1" d="m332.4 878.8v-25m-3.4 25v-25m1.6 23.4v-21.9m-1.6 21.9h3.4m0-21.9h-3.4"/>
		<path id="Path 88" class="s2" d="m335 878.8v25"/>
		<path id="Path 89" class="s1" d="m332.4 903.8v-25m-3.4 25v-25m1.6 23.5v-22.1m-1.6 22.1h3.4m0-22.1h-3.4"/>
		<path id="Path 90" class="s2" d="m335 903.8v24.9"/>
		<path id="Path 91" class="s1" d="m332.4 928.7v-24.9m-3.4 24.9v-24.9m1.6 23.5v-22.1m-1.6 22.1h3.4m0-22.1h-3.4"/>
		<path id="Path 92" class="s2" d="m335 928.7v25"/>
		<path id="Path 93" class="s1" d="m332.4 953.7v-25m-3.4 25v-25m1.6 23.5v-21.9m-1.6 21.9h3.4m0-21.9h-3.4"/>
		<path id="Path 94" class="s0" d="m335 798.9v30h-6v-30zm-72 156.3v6h-30v-6zm-24-91.4v30h-6v-30zm0 18v30h-6v-30zm35.5 73.4v6h-29.9v-6z"/>
		<path id="Path 95" class="s2" d="m329 1076.1v24.9"/>
		<path id="Path 96" class="s1" d="m326.4 1101v-24.9m-3.4 24.9v-24.9m1.6 23.5v-22m-1.6 22h3.4m0-22h-3.4"/>
		<path id="Path 97" class="s2" d="m329 1101v25"/>
		<path id="Path 98" class="s1" d="m326.4 1126v-25m-3.4 25v-25m1.6 23.6v-22m-1.6 22h3.4m0-22h-3.4"/>
		<path id="Path 99" class="s2" d="m329 1126v25.1"/>
		<path id="Path 100" class="s1" d="m326.4 1151.1v-25.1m-3.4 25.1v-25.1m1.6 23.5v-21.9m-1.6 21.9h3.4m0-21.9h-3.4"/>
		<path id="Path 101" class="s2" d="m329 1151.1v24.9"/>
		<path id="Path 102" class="s1" d="m326.4 1176v-24.9m-3.4 24.9v-24.9m1.6 23.4v-22m-1.6 22h3.4m0-22h-3.4"/>
		<path id="Path 103" class="s2" d="m329 1176v25"/>
		<path id="Path 104" class="s1" d="m326.4 1201v-25m-3.4 25v-25m1.6 23.4v-21.9m-1.6 21.9h3.4m0-21.9h-3.4"/>
		<path id="Path 105" class="s2" d="m329 1026.2v24.9"/>
		<path id="Path 106" class="s1" d="m326.4 1051.1v-30m-3.4 30v-30m1.6 28.6v-27m-1.6 27h3.4m0-27h-3.4"/>
		<path id="Path 107" class="s2" d="m329 1051.1v25"/>
		<path id="Path 108" class="s1" d="m326.4 1076.1v-25m-3.4 25v-25m1.6 23.5v-21.9m-1.6 21.9h3.4m0-21.9h-3.4"/>
		<path id="Path 109" class="s2" d="m484.7 1026.2v24.9m0 25v24.9"/>
		<path id="Path 110" class="s1" d="m487.2 1101v-24.9m3.5 24.9v-24.9m-1.7 23.5v-22m1.7 22h-3.5m0-22h3.5"/>
		<path id="Path 111" class="s2" d="m484.7 1101v25"/>
		<path id="Path 112" class="s1" d="m487.2 1126v-25m3.5 25v-25m-1.7 23.6v-22m1.7 22h-3.5m0-22h3.5"/>
		<path id="Path 113" class="s2" d="m484.7 1126v25.1"/>
		<path id="Path 114" class="s1" d="m487.2 1151.1v-25.1m3.5 25.1v-25.1m-1.7 23.5v-21.9m1.7 21.9h-3.5m0-21.9h3.5"/>
		<path id="Path 115" class="s2" d="m484.7 1151.1v24.9"/>
		<path id="Path 116" class="s1" d="m487.2 1176v-24.9m3.5 24.9v-24.9m-1.7 23.4v-22m1.7 22h-3.5m0-22h3.5"/>
		<path id="Path 117" class="s2" d="m484.7 1176v25"/>
		<path id="Path 118" class="s1" d="m487.2 1201v-25m3.5 25v-25m-1.7 23.4v-21.9m1.7 21.9h-3.5m0-21.9h3.5m-3.5-126.4v-30m3.5 30v-30m-1.7 28.6v-27m1.7 27h-3.5m0-27h3.5"/>
		<path id="Path 119" class="s2" d="m484.7 1051.1v25"/>
		<path id="Path 120" class="s1" d="m487.2 1076.1v-25m3.5 25v-25m-1.7 23.5v-21.9m1.7 21.9h-3.5m0-21.9h3.5"/>
		<path id="Path 121" class="s0" d="m269 827.9v6h-30v-6zm14.4 0v6h-30v-6z"/>
		<path id="Path 122" class="s4" d="m266.9 664.4v5.1h-93.9v-5.1z"/>
		<path id="Path 123" class="s6" d="m149.1 450.2v377.6h179.9v-376.4h-179.9"/>
		<path id="Path 124" class="s6" d="m233 961.2h-83.9v239.8h173.9v-179.9h-40.6-49.4z"/>
		<path id="Path 125" class="s6" d="m640.6 1021.1v179.9h-149.9v-179.9z"/>
		<path id="Path 126" class="s6" d="m736.5 1057.1v143.9h-89.9v-143.9z"/>
		<path id="Path 127" class="s6" d="m832.4 1027.1v107.9h-89.9v-107.9z"/>
		<path id="Path 128" class="s6" d="m742.5 977.7v-18h269.7v241.3h-173.8v-30h-6v30h-89.9v-60h95.9v-119.9h-95.9z"/>
		<path id="Path 129" class="s12" d="m1022.8 242.8v1165.6h-884.3v-1165.6z"/>
	</g>
</svg>