<svg version="1.2" xmlns="http://www.w3.org/2000/svg" viewBox="0 0 1417 2007" width="1417" height="2007">
	<title>probar-pdf</title>
	<defs>
		<clipPath clipPathUnits="userSpaceOnUse" id="cp1">
			<path d="m0 0h1417v2007h-1417z"/>
		</clipPath>
	</defs>
	<style>
		.s0 { fill: none;stroke: #ff0000;stroke-linecap: round;stroke-linejoin: round;stroke-width: 2 } 
		.s1 { fill: none;stroke: #ffff00;stroke-linecap: round;stroke-linejoin: round;stroke-width: 1 } 
		.s2 { fill: none;stroke: #5e5e5e;stroke-linecap: round;stroke-linejoin: round;stroke-width: .9 } 
		.s3 { fill: none;stroke: #000000;stroke-linecap: round;stroke-linejoin: round;stroke-width: 1.7 } 
		.s4 { fill: none;stroke: #989898;stroke-linecap: round;stroke-linejoin: round;stroke-width: .5 } 
		.s5 { fill: #989898;stroke: #989898;stroke-linecap: round;stroke-miterlimit:10;stroke-width: .5 } 
		.s6 { fill: none;stroke: #000000;stroke-linecap: round;stroke-linejoin: round;stroke-width: .5 } 
	</style>
	<g id="Page 1" clip-path="url(#cp1)">
		<path id="Path 2" class="s0" d="m278.4 1133.5h7v4.1h-7z"/>
		<path id="Path 3" class="s1" d="m281.3 1132h4.1m-2 0v-3m-2.1-43h4.1v1.4h-4.1zm0 46.1v1.4m4.1-1.4v1.4m-2-1.4h44.4m-44.4-3h44.4m0 3v-3m0.2-0.1c-0.3-23.2-19.3-41.7-42.4-41.5m-2.2 44.6v-44.6"/>
		<path id="Path 4" class="s0" d="m278.4 993.4h7v35.6h-7zm113.9-71.2h7.1v35.6h-7.1zm-142.5 64h35.6v7.2h-35.6zm-71.1 0h35.5v7.1h-35.5zm35.5 0h35.6v7.2h-35.6zm-42.7-64.1h7.2v35.6h-7.2z"/>
		<path id="Path 5" class="s1" d="m171.5 884.2h2.2m0-66.5h2m-4.2 33.2v33.3m2.2-66.5v66.5m2-66.5v-2.4m-4.2 2.4v-2.4m0 68.9v2.3m2.2-2.3h2v2.3m-2-68.8h-2.2m4.2 33.2v-33.2"/>
		<path id="Path 6" class="s2" d="m171.5 850.9v-33.2m4.2 33.2v33.3"/>
		<path id="Path 7" class="s1" d="m171.5 850.9h4.2"/>
		<path id="Path 8" class="s0" d="m171.5 886.5h7.2v35.7h-7.2z"/>
		<path id="Path 9" class="s2" d="m178.7 815.3v71.2"/>
		<path id="Path 10" class="s0" d="m171.5 779.7h7.2v35.6h-7.2zm0-35.6h7.2v35.6h-7.2z"/>
		<path id="Path 11" class="s1" d="m171.5 706.1h2.2m0-66.5h2m-4.2 33.1v33.4m2.2-66.5v66.5m2-66.5v-2.4m-4.2 2.4v-2.4m0 68.9v2.4m2.2-2.4h2v2.4m-2-68.9h-2.2m4.2 33.1v-33.1"/>
		<path id="Path 12" class="s2" d="m171.5 672.7v-33.1m4.2 33.1v33.4"/>
		<path id="Path 13" class="s1" d="m171.5 672.7h4.2"/>
		<path id="Path 14" class="s0" d="m171.5 708.5h7.2v35.6h-7.2z"/>
		<path id="Path 15" class="s2" d="m178.7 637.2v71.3"/>
		<path id="Path 16" class="s0" d="m171.5 601.6h7.2v35.6h-7.2zm71.2 536h35.7v7.1h-35.7zm-71.2 0h35.6v7.2h-35.6zm35.6 0h35.6v7.1h-35.6zm-35.6 7.2h7.2v35.6h-7.2zm0 35.6h7.2v35.7h-7.2zm0 35.7h7.2v35.6h-7.2zm0 35.6h7.2v35.6h-7.2zm0 35.6h7.2v35.6h-7.2zm0 35.6h7.2v35.6h-7.2zm7.2 106.9h35.5v7h-35.5zm35.5 0h35.6v7h-35.6zm35.6 0h35.6v7h-35.6zm35.6 0h35.7v7h-35.7zm35.7 0h35.6v7h-35.6zm35.6 0h35.6v7.1h-35.6z"/>
		<path id="Path 17" class="s3" d="m413.6 1216.1h178"/>
		<path id="Path 18" class="s0" d="m413.6 1208.9h35.6v7.2h-35.6zm35.6 0h35.7v7.1h-35.7zm35.7 0h35.6v7.2h-35.6zm35.6 0h35.5v7.1h-35.5zm35.5 0h35.6v7.2h-35.6zm118.8 0h35.6v7.1h-35.6zm35.6 0h35.5v7.2h-35.5zm35.5 0h35.6v7.1h-35.6zm-574.4 149.5h7.2v35.6h-7.2zm477.1 71.4h35.6v7h-35.6zm35.6 0h35.6v7h-35.6zm35.6 0h35.6v7h-35.6zm35.6 0h35.7v7h-35.7zm35.7 0h35.6v7h-35.6z"/>
		<path id="Path 19" class="s3" d="m499 1143h178.1"/>
		<path id="Path 20" class="s0" d="m499 1135.9h35.7v7.1h-35.7zm35.7 0h35.6v7.2h-35.6zm35.6 0h35.6v7.1h-35.6zm71.2 0h35.6v7.2h-35.6zm35.6 0h35.5v7.1h-35.5z"/>
		<path id="Path 21" class="s3" d="m712.6 1143h178.1"/>
		<path id="Path 22" class="s0" d="m712.6 1135.9h35.8v7.1h-35.8zm35.8 0h35.5v7.2h-35.5zm35.5 0h35.6v7.1h-35.6zm35.6 0h35.6v7.2h-35.6zm35.6 0h35.6v7.1h-35.6z"/>
		<path id="Path 23" class="s3" d="m890.7 1143h178"/>
		<path id="Path 24" class="s0" d="m890.7 1135.9h35.7v7.1h-35.7zm35.7 0h35.6v7.2h-35.6zm35.6 0h35.6v7.1h-35.6zm35.6 0h35.5v7.2h-35.5zm35.5 0h35.6v7.1h-35.6zm170.9 7.2h7.2v35.6h-7.2zm0 35.6h7.2v35.6h-7.2zm0 35.5h7.2v35.6h-7.2zm0 35.6h7.2v35.6h-7.2zm0 35.6h7.2v35.8h-7.2zm0 35.7h7.2v35.6h-7.2zm0 35.6h7.2v35.6h-7.2zm-377.3 73h35.6v7h-35.6zm35.6 0h35.5v7h-35.5zm35.5 0h35.6v7h-35.6zm35.6 0h35.7v7h-35.7zm35.7 0h35.6v7h-35.6zm35.6 0h35.6v7h-35.6zm35.6 0h35.6v7.1h-35.6zm-648-685.8h7.1v35.6h-7.1zm0-178.1h7.1v35.6h-7.1zm0-35.6h7.1v35.6h-7.1zm-71.2 0h35.6v7h-35.6zm-71.3 0h35.6v7h-35.6zm35.6 0h35.7v7h-35.7zm-71.2 0h35.6v7h-35.6zm-35.5 0h35.5v7h-35.5zm-7.2 35.6h7.2v35.6h-7.2zm0-35.6h7.2v35.6h-7.2zm904.4 899.4h35.6v7h-35.6zm35.6 0h35.5v7h-35.5zm35.5 0h35.8v7.1h-35.8zm28.6 0h35.6v7h-35.6z"/>
		<path id="Path 25" class="s4" d="m1069.4 1236.5h83.6v113.1h-83.6zm-3 101.1c0-2.5-2-4.5-4.5-4.5m0 0.2h-10.5m0.1-0.2c-2.5 0-4.5 2-4.5 4.5m0 0.1v5.9m0-0.1c0 2.5 2 4.5 4.5 4.5m-0.1 0.1h10.5m0-0.1c2.5 0 4.5-2 4.5-4.5m-0.1 0.1v-5.9m1.6-0.1c0-3.2-2.7-5.9-6-5.9m0 0h-10.5m0.1 0c-3.3 0-5.9 2.7-5.9 5.9m-0.2 0.1v5.9m0.2-0.1c0 3.3 2.6 5.9 5.9 5.9m-0.1 0.2h10.5m0-0.2c3.3 0 6-2.6 6-5.9m-0.2 0.1v-5.9m92.8-4.6c-2.5 0-4.5 2-4.5 4.5m4.5-4.3h10.4m4.6 4.3c0-2.5-2-4.5-4.5-4.5m4.3 4.6v5.9m-4.3 4.4c2.5 0 4.5-2 4.5-4.5m-4.6 4.6h-10.4m-4.5-4.6c0 2.5 2 4.5 4.5 4.5m-4.5-4.4v-5.9m4.5-6c-3.2 0-5.9 2.7-5.9 5.9m5.9-5.9h10.4m6 5.9c0-3.2-2.7-5.9-5.9-5.9m5.9 6v5.9m-5.9 5.8c3.2 0 5.9-2.6 5.9-5.9m-6 6.1h-10.4m-5.9-6.1c0 3.3 2.7 5.9 5.9 5.9m-5.9-5.8v-5.9m-43.4-11.6v23.5m-1.5-24.6l-0.1 4.8m0.1 16.5v3.1m0-8.3v1.9m0-11.7v1.7m-1.5-8.9v4.9m0 17.7v2.7m-1.5-26.1v5.8m0 17.6v2.7m-1.5-27v7m0 17.2v2.5m-1.5-27.3v8m0 16.5v2.3m-1.4-27.3v8.4m0 16.6v1.8m-1.6-27.4v9m0 16.4v2.2m-1.4-28.3v9.7m0 16.3v2.7m-1.4-29.4v10.5m0 16.2v3m-1.6-30.6v11.7m0 15.7v3.3m-1.4-31.6v12.6m0 15.6v3.6m-1.6-32.5v13.3m0 15.9v3.4m-1.4-33.3v14m0 15.5v3.8m-1.5-33.9v14.6m0 15.6v3.9m-1.5-34.5v15m0 15.6v3.9m-1.5-35.1v15.6m0 15.5v4m-1.5-35.6v16.1m0 15.5v3.8m-1.5-36.1v16.8m0 15.5v3.7m-1.4-36.8v17.6m0 15.5v3.4m-1.6-37.2v18.3m0 15.9v2.7m-1.4-37.6v18.9m0 16v2.4m-1.4-38v19.6m0 16.1v2m-1.6-38.3v20.2m0 16.4v2.4m-1.4-39.5v20.4m0 16.6v3m-1.6-40.6v20.7m0 17.3v2.6m-1.4-41.6v21.6m0 17.5v2.2m-1.4-44v8.3m0 23.4v12m0-29.6v17.6m-1.6-9.4v3m0 10v6.5m43-20.2v13.1m0.1 6.1l-0.1 3.8m1.6-22.8v2.5m0 17.5v2.8m1.4-22.3v2.1m0 17.2v3m1.6-22v2.1m0 16.6v3.1m1.4-21.6v2.2m0 16.3v3.1m1.4-21.4v2m0 16.1v3.3m1.6-21.1v1.7m0 16v3.3m1.4-20.9v1.7m0 15.7v3.3m1.5-20.7v1.7m0 15.5v3.5m1.5-20.5v1.5m0 15.5v3.4m1.5-20.4v1.5m0 15.5v3.2m1.5-20.2v1.5m0 15.5v3.2m1.5-20.4v1.7m0 15.6v3m1.4-20.3v1.7m0 15.6v2.4m1.6-19.8v1.8m0 15.6v2.7m1.4-20.1v1.8m0 15.7v3m1.4-20.7v2m0 15.7v3.5m1.6-21.3v2.1m0 15.7v3.6m1.4-21.4v1.8m0 16.2v3.6m1.6-21.6v1.8m0 16.3v3.5m1.4-21.8v1.9m0 16.4v3.3m1.4-21.6v1.9m0 16.4v3.2m1.6-21.5v1.9m0 16.3v3m1.4-21.2v1.6m0 17.2v1.8m1.6-20.4v1.1m0 17.6v2m1.4-20.7v1m0 17.7v2.6m1.5-21.3v6.4m0 11.4v3.8m1.5-20.8v7m-54-1.5l1-0.2 1-0.3 0.7-0.2 0.8-0.2 0.5-0.3 0.5-0.3 0.4-0.1 0.4-0.3 0.5-0.3 0.2-0.1 0.3-0.2 0.3-0.2 0.3-0.2 0.1-0.1h0.3v-0.2h0.2 0.1v0.2 0.1l-0.1 0.2v0.2 0.2 0.1 0.3 0.3 0.1 0.3 0.5 0.2l0.1 0.5 0.2 0.3v0.4l0.1 0.4 0.1 0.6 0.2 0.4 0.1 0.6 0.2 0.6m20.3 0.8l0.2 0.2 0.3 0.2 0.3 0.2 0.2 0.1 0.1 0.2 0.3 0.1 0.1 0.2 0.2 0.1 0.1 0.1 0.2 0.2 0.1 0.1 0.1 0.2v0.3l0.2 0.1 0.1 0.1 0.2 0.2 0.1 0.1 0.2 0.2v0.3l0.1 0.1 0.1 0.1 0.2 0.2v0.3l0.1 0.1 0.2 0.2v0.2l0.1 0.2 0.2 0.1v0.2l0.1 0.1v0.2h0.1 0.2 0.1v-0.2-0.1h0.2v-0.2l0.1-0.1v-0.2-0.1l0.2-0.1v-0.2-0.3l0.1-0.1v-0.2l0.1-0.1v-0.1-0.2l0.2-0.3v-0.1l0.1-0.2v-0.1l0.2-0.1v-0.2l0.1-0.1h0.2v-0.2l0.1-0.1 0.1-0.2h0.2v-0.1l0.1-0.1 0.2-0.2 0.1-0.3 0.3-0.3 0.4-0.5 0.5-0.7m-64.5-1.6l-0.6 2.6-1 2.2v2.6 2.6l0.8 2.4 3.1 0.9h3l2.6-1.3 1.4-1.2m-1.9 1.3l1.3 0.3 2.9 0.6 2 0.3 2.7 0.3h2.7l4.3-0.2 3.6-0.4 3.1-0.7 2.5-0.7m-1.9 0.4l2.3 0.7 1.8 0.7h3l3 0.2h3.2l5-0.2 6.3-0.4 4.5-0.3 2.6-1.1m-61.9-10.2l-0.4-1.1-0.4-1.3-0.2-1-0.4-1-0.3-1.9-0.1-2.5 0.1-1.9v-2.3l0.3-2.7 0.9-1.7 0.7-2 0.3-1.6m59.8 31.6l1.2 0.3 1.1 0.4 1 0.1 0.9 0.3 0.8 0.2 0.8 0.1h0.7l0.5 0.2h0.8 0.5 0.6 0.6 0.4 0.6l0.5-0.2h0.5l0.5-0.1h0.6l0.6-0.2 0.6-0.1 0.7-0.3 0.7-0.4 0.8-0.5 1-0.5m-1.8 1l0.4 0.1 0.6 0.2 0.4 0.2 0.4 0.2 0.5 0.1 0.4 0.2 0.4 0.1h0.3l0.3 0.2h0.4 0.3 0.3l0.1-0.2 0.3-0.1 0.2-0.2 0.1-0.1v-0.3l0.2-0.3v-0.3-0.4-0.4-0.3l-0.2-0.4v-0.5l-0.1-0.4v-0.4l-0.2-0.5v-0.4l-0.1-0.4-0.2-0.3v-0.4l-0.1-0.5v-0.4l-0.1-0.4v-0.4l-0.2-0.6-0.1-0.6v-0.6l-0.2-0.7-0.1-0.7m0.7 3.7l0.4-4.1 1-3.3v-2.9l-0.7-5.5-0.7-5.2-0.7-3-0.4-2.8-0.3-2.3m1.8 8.8l0.3-3.7v-2.1l-0.3-4.9 0.3-3.6-0.3-3-0.7-3.3 0.3-2.2m-1.9 1.5l1.6-1.5 1-1.5-0.3-2.8-0.4-4.9 0.4-2.8-0.4-3-0.7-3-0.7-2.6m-78.8 40.4v-4.3l-1.1-4.1v-2.9-3.4l1.6-5.1 0.7-2.2m-1.9 5.6v-1.9l-0.4-2.5-0.7-2.6-0.3-2.6-0.4-4.4 0.7-4.2v-5.4l0.7-4.4 1.6-3m39.3 54.4l-1.2-0.5-1-0.6-0.7-0.6-0.7-0.4-0.6-0.3-0.5-0.3-0.5-0.3-0.4-0.3-0.4-0.1-0.5-0.3-0.4-0.1-0.6-0.2-0.4-0.1-0.6-0.2-0.5-0.2-0.6-0.2-0.6-0.3-0.6-0.3-0.5-0.2-0.7-0.3-0.6-0.3-0.6-0.4-0.7-0.3-0.6-0.3-0.5-0.4-0.6-0.3-0.4-0.3-0.6-0.3-0.4-0.3-0.6-0.1-0.4-0.3-0.6-0.3-0.4-0.1-0.6-0.3-0.4-0.2-0.6-0.3-0.6-0.1-0.4-0.1-0.4-0.2-0.5-0.1-0.4-0.2-0.4-0.1-0.5-0.2-0.4-0.1-0.4-0.1-0.4-0.2-0.5-0.1-0.4-0.3-0.6-0.3-0.7-0.3-0.6-0.3-0.5-0.4-0.7-0.3-0.8-0.4-0.5-0.3-0.7-0.3-0.6-0.3-0.7-0.3-0.6-0.2-0.6-0.2-0.4-0.1-0.6-0.3-0.4-0.2-0.6-0.1-0.3-0.1-0.4-0.2-0.4-0.1-0.3-0.2-0.3-0.1-0.3-0.2-0.3-0.2-0.2-0.2-0.2-0.1-0.3-0.2-0.1-0.1-0.2-0.2-0.1-0.2-0.1-0.2-0.2-0.3v-0.1l-0.1-0.2v-0.2-0.2-0.3-0.3l0.1-0.1v-0.3l0.2-0.1 0.1-0.3 0.3-0.3 0.1-0.1 0.3-0.3 0.2-0.2 0.2-0.3 0.3-0.1 0.3-0.3 0.2-0.1 0.2-0.3 0.3-0.2 0.2-0.1 0.3-0.3 0.2-0.1 0.2-0.3 0.3-0.2 0.3-0.3 0.1-0.2 0.3-0.3 0.1-0.3 0.3-0.3 0.2-0.3 0.2-0.3 0.3-0.4 0.2-0.4 0.3-0.5 0.1-0.4 0.1-0.7 0.3-0.6 0.2-0.8 0.1-1 0.2-1.2m1.1 0l-0.4 1.5 0.7 1.4 1.6 2.3 2.5 2.1 2.9 1.6m-2.2-0.9l3.3 3.8 5.2 3.7 3 1.8 4.3 5.2 3.4 3.7 3.6 3.6 3 3m-0.5-0.3l2.8 0.7 2.4 0.6 2.1 0.4 1.9 0.3 1.7 0.3 1.6 0.1h1.4l1.4 0.2h1.3 1.3l1.3-0.2h1.3 1.3l1.2-0.1h1.5l1.3-0.2 1.2-0.1h1.6 1.6l1.7-0.2h2.1 2.5l2.7 0.2 3.1 0.1m-77 17.9l-1.1 0.4-1.5 0.4h-1.4l-0.8-0.8 0.1-1.4 0.6-1.3 0.4-1.2m-0.4 1.9l-0.3-1.9-0.2-1.1-0.2-2v-1.4-1.9l0.1-1.6 0.4-1.3 0.3-1.1m0.2 1.9l-0.2-1-0.4-1.2v-1.4l0.8-0.7 1-0.2 1.3 0.5 1.5 0.2 1.2 0.5 0.9 0.4 0.6 0.3m-3.5-1h4.3l1.9 0.1h2.6 2.8 1.9 2.3 2.2 2.5l2.4-0.3 2.9-0.1 3.1 0.1m-3 0.9l0.4-0.1 0.5-0.2 0.4-0.1 0.4-0.2 0.3-0.1 0.4-0.2 0.3-0.1h0.3l0.4-0.1h0.3l0.2-0.2h0.3l0.2-0.1h0.3l0.3-0.2h0.2 0.2 0.3l0.3-0.1h0.2 0.2 0.3 0.2 0.3l0.1 0.1h0.1 0.2l0.1 0.2h0.2l0.1 0.1h0.2v0.2l0.1 0.1v0.1l0.1 0.2v0.1 0.2 0.1 0.3 0.1 0.3l-0.1 0.2v0.3l-0.1 0.1-0.2 0.3-0.1 0.3-0.2 0.3-0.3 0.2m0.6-1.2l0.4 2 0.3 3.2 0.2 2-0.5 2-0.4 1.2-0.4 0.8m-33.7 3.5l1.8 0.1 1.9-0.4h2l2.1-0.4 1.9-0.6m-2 0.6h2.7 2l2 0.1 2.3-0.1 1.4 0.4 2-0.3 2 0.3h1.9l1.5 0.1 1.5 0.2h2.8m-2.4-1l1.4 0.7 1.3 0.6 2.2 0.2 1.5-0.1 0.9-0.7 0.3-1.3-0.2-0.9-0.3-0.8-0.2-1.7m7.8 4.7l-0.4 0.1-0.3 0.2-0.4 0.1-0.3 0.2h-0.3l-0.1 0.1h-0.3-0.3-0.2l-0.2 0.1h-0.2-0.1l-0.3-0.1h-0.2-0.1-0.1l-0.2-0.1h-0.1l-0.2-0.2v-0.1h-0.1l-0.2-0.2v-0.1-0.2l-0.1-0.1v-0.1-0.2-0.1-0.2l0.1-0.3v-0.1-0.3l0.2-0.1v-0.3l0.1-0.2 0.2-0.2v-0.3l0.1-0.5 0.2-0.2 0.1-0.5m-0.1 1.9l-0.5-1.9-0.1-1.1-0.3-2v-1.4-1.9-1.6l0.6-1.3 0.1-1.1m0.3 1.9l-0.3-1-0.3-1.2v-1.4l0.7-0.7 1-0.2 1.3 0.5 1.6 0.2 1.1 0.5 0.9 0.4 0.7 0.3m-3.6-1h1.6 1.2 0.8 0.9 0.5l0.5 0.1h0.4 0.3 0.4 0.3 0.3 0.4 0.3 0.3 0.4 0.3 0.3 0.4 0.3 0.3 0.4 0.3 0.3 0.4 0.3 0.3 0.1 0.3 0.3 0.3 0.1 0.3 0.3 0.3 0.3 0.3 0.2 0.3 0.3 0.3 0.3 0.3 0.3 0.2 0.3 0.3 0.3 0.3 0.3 0.3 0.2 0.3 0.3 0.3 0.4 0.3 0.3 0.3l0.3-0.1h0.3 0.4 0.3l0.4-0.2h0.3 0.6 0.4l0.6-0.1h0.7 0.8 1 1.2l1.4 0.1m-3.9 0.9l0.5-0.1 0.4-0.2 0.3-0.1 0.4-0.2 0.4-0.1 0.3-0.2 0.5-0.1h0.2l0.3-0.1h0.3l0.3-0.2h0.3l0.3-0.1h0.1l0.3-0.2h0.3 0.3 0.1l0.3-0.1h0.3 0.3 0.1 0.3 0.1l0.2 0.1h0.3 0.1l0.2 0.2h0.1v0.1h0.1l0.2 0.2v0.1l0.1 0.1v0.2l0.2 0.1v0.2 0.1 0.3 0.1l-0.2 0.3v0.2l-0.1 0.3v0.1l-0.2 0.3-0.1 0.3-0.3 0.3-0.1 0.2m0.5-0.8l0.5 1.6 0.1 3.2 0.2 2-0.3 2-0.5 1.2-0.4 0.8m-6.4 2.5l0.6 0.3 0.4 0.1 0.4 0.3 0.3 0.1 0.3 0.2h0.3l0.3 0.1 0.2 0.2h0.3 0.3l0.2 0.1h0.2 0.3 0.3 0.2 0.2 0.3 0.2 0.1 0.3 0.1 0.2 0.3l0.1-0.1h0.2 0.1l0.1-0.2v-0.1h0.2l0.1-0.2v-0.1h0.2v-0.2l0.1-0.1v-0.1-0.2l0.2-0.1v-0.2-0.1-0.2-0.1-0.1-0.2-0.1-0.2l-0.2-0.1v-0.2-0.1-0.1l-0.1-0.2v-0.1l-0.2-0.3v-0.4l-0.1-0.5-0.2-0.5-0.1-0.6m-27.3 4.6h1.3 1 0.9 0.7 0.4 0.6 0.3 0.2 0.5 0.3l0.2 0.1h0.2 0.3 0.3 0.2 0.3 0.3 0.3 0.1 0.3 0.3 0.3 0.3 0.1 0.3 0.2 0.2 0.2l0.3 0.1h0.1 0.3 0.1 0.3 0.2 0.3 0.2 0.2 0.3 0.3 0.1 0.3 0.3 0.3 0.2 0.2l0.3 0.2h0.3 0.2 0.2 0.3 0.1 0.3 0.3 0.1 0.3 0.2l0.2 0.1h0.2 0.3 0.1 0.3 0.1 0.3 0.2 0.3 0.2 0.3 0.5 0.5 0.7l0.9-0.1 1-0.2m-30 0.5h0.6 0.5 0.5 0.4 0.4l0.5-0.2h0.2 0.3 0.3 0.4l0.3-0.1h0.3 0.3 0.3 0.3 0.3l0.4-0.2h0.3l0.4-0.1h0.4l0.5-0.1 0.5-0.2 0.6-0.1 0.7-0.3m16.6-22.2l-0.6-0.3-0.4-0.4-0.4-0.3-0.5-0.4-0.4-0.3-0.4-0.4-0.3-0.3-0.4-0.3-0.3-0.4-0.5-0.3-0.2-0.1-0.5-0.3-0.3-0.3-0.4-0.2-0.4-0.2-0.3-0.3-0.4-0.2-0.6-0.3-0.4-0.1-0.6-0.3-0.6-0.1-0.5-0.2h-0.8l-0.7-0.1m10.9 6.6l-1.9-2.2-0.4-2.6v-3.5l0.4-2.6 1.5-2.6m-1.9 10.9l-1.7-3-0.9-3.2-0.4-1.2m13.3-66.1l1.4-1.8 0.4-1.6v-3.6l-0.4-2.6-1.8-0.8-2.6 0.4-1.9 1.2-0.7 0.2m-74.3 14l-0.7-3.7v-3.5l-0.3-4.2 0.7-2.6 2.2-2.1h3.3l2.5 1.1 1.9 1.8m-1.4-1l3-1.2h4l5.1-0.4 3.7 0.8 2.6 1m-2.6 1.2l2.9-1.9 4.4-0.7 4.4-0.7h4.9l4 0.3 3.7 0.4 3.3 0.7 3.3 1.2 3 1.1 1.7 1m-5.4-2.6l0.7-0.2 4.7-0.8 3.7-0.4 5.2-0.4 4.8 0.4 2.2 0.7m-5 5.3l-4.3 4.4-4.7 3-7.5 4.5-9.1 1.7-5.3 2.1m40.7 23.2l0.3-2.6 0.7-4 0.4-3.7-0.7-6.6v-4.1l0.3-4-0.7-4.5-0.3-3.2-0.4-2.2-0.4-1.6m-78.3 28.1l-1.5-3.3-0.4-3.3v-3.7l-0.3-3.7v-4.5l1.4-2.8 1.2-1.6m68.9-7.6l-2.2 3.6-2.1 6.8-1.7 7.9-0.9 10.4 0.9 5.3"/>
		<path id="Path 26" class="s0" d="m1068.7 1135.9h26.7v7.1h-26.7zm115.8 0h26.7v7.2h-26.7z"/>
		<path id="Path 27" class="s1" d="m1097.9 1135.9v2m84.1 0v2.1m-42-4.1h-42.1m84.1 2h-84.1m84.1 2.1h2.5m-2.5-4.1h2.5m-86.6 0h-2.5m2.5 2v2.1h-2.5m86.6-2.1v-2m-42 4.1h42"/>
		<path id="Path 28" class="s2" d="m1140 1135.9h42m-42 4.1h-42.1"/>
		<path id="Path 29" class="s1" d="m1140 1135.9v4.1"/>
		<path id="Path 30" class="s2" d="m1184.5 1143h-89.1"/>
		<path id="Path 31" class="s4" d="m977.1 1296c-0.7 0-1.3 0.5-1.3 1.2m0-16.6c0 0.7 0.6 1.2 1.3 1.2m-1 2.4c0-0.3-0.2-0.5-0.5-0.5-0.2 0-0.5 0.2-0.5 0.5 0 0.3 0.3 0.5 0.5 0.5 0.3 0 0.5-0.2 0.5-0.5zm-4.3 1.9c0-2.7-2.1-4.8-4.7-4.8m-8.6 0c-2.3 0-4.3 1.6-4.7 3.8m4.7-6.4c-3.5 0-6.5 2.5-7.2 5.9m7.1-5.9h11.3m-11.3 2.6h17.3m0.1-0.8c0-1.1-0.8-1.9-1.9-1.9m-4.2 0.1h4.1m1.9 1.9v0.1m-24.4 12.7c0.7 3.4 3.7 5.9 7.2 5.9m-0.1 0.1h11.3m6-2.7h-17.3m-4.5-11.7c-0.5 2.6-0.5 5.2 0 7.8m-2.6-8.3c-0.6 2.9-0.6 5.9 0 8.9m2.5-0.5c0.4 2.2 2.4 3.8 4.7 3.8m13.3-10.6v5.9m-8.9 0.1c1.5-0.3 2.6-1.6 2.7-3.2m0 0c-0.1-1.5-1.2-2.8-2.7-3.1m0-0.1q0 0 0 0m4.2 11c2.6 0 4.7-2.1 4.7-4.8m-8.9 0.3q0 0 0 0m13.2 1.6c0-0.3-0.2-0.5-0.5-0.5-0.2 0-0.5 0.2-0.5 0.5 0 0.3 0.3 0.5 0.5 0.5 0.3 0 0.5-0.2 0.5-0.5zm-0.4 3.8v-0.3m-1.8 2.1c1.1 0 1.9-0.8 1.9-1.9m-6.1 1.9h4.1m8.2-19q-0.3 4.3-0.3 8.5m-1.8-8.6q-0.4 4.3-0.3 8.6m10.1-11.3v22.8m0-20.7h-7m7-2.1h-7m0.1 0c-1.6 0-2.8 1.1-2.9 2.7m2.9-0.6c-0.4 0-0.8 0.3-0.8 0.7m-5 1.4h2.6m0.3 15.8c0.1 1.5 1.3 2.7 2.9 2.7m-1.1-11.4q0 4.3 0.3 8.5m-2.4-8.5q-0.1 4.3 0.3 8.7m9.8 0.7h-7m-0.7-0.9c0 0.4 0.4 0.7 0.8 0.7m-5.8-2h2.6m10.1 4.3h-7m7 18.8c0-2.1-1.7-3.8-3.8-3.8m0 20.8c2.1 0 3.8-1.7 3.8-3.8m-24-14.3h12.1m-12.1-2.7h10.4m-6.8 4.5c-2.6 0-4.9 1.9-5.3 4.6m5.3-4.2c-2.4 0-4.5 1.8-4.8 4.3m13.3 9h-12.1m0 2.7h20.2m-21.9-9.2c0.4 2.6 2.7 4.6 5.3 4.6m-4.8-4.7c0.3 2.5 2.4 4.3 4.8 4.3m-5.3-5.5q0 0.7 0.1 1.3m0.3-1.3q0 0.6 0.1 1.2m-6.1-5.6c-0.6 2.9-0.6 5.9 0 8.8m2.7-8.3c-0.5 2.6-0.5 5.2 0 7.8m4.7-14.3c-3.5 0-6.5 2.5-7.2 5.9m7.2-3.3c-2.3 0-4.3 1.6-4.7 3.8m3 2.7q-0.1 0.6-0.1 1.3m0.5-1.3q-0.1 0.7-0.1 1.3m-5.8 4.5c0.7 3.4 3.7 5.9 7.2 5.9m-4.7-6.5c0.4 2.3 2.4 3.9 4.7 3.9m19.2-6.5q0.1-0.6 0.1-1.3m-0.5 1.2q0.1-0.6 0.1-1.2m-3.8 1.4c-0.7 0-1.3-0.7-1.3-1.4 0-0.8 0.6-1.4 1.3-1.4 0.8 0 1.4 0.6 1.4 1.4 0 0.7-0.6 1.4-1.4 1.4zm1.8-2.1c-0.4-0.9-1.3-1.4-2.2-1.2-0.9 0.2-1.5 1-1.5 1.9 0 0.9 0.6 1.7 1.5 1.9 0.9 0.2 1.8-0.3 2.2-1.2m5.9-0.7c0-0.6-0.5-1.1-1.1-1.1-0.6 0-1.1 0.5-1.1 1.1 0 0.6 0.5 1.1 1.1 1.1 0.6 0 1.1-0.5 1.1-1.1zm-19.3-5.8h10.4m-10.4 0.4h10.4m-3.6-5h9.8m-16.2 10.4c0-0.4-0.3-0.8-0.8-0.8-0.4 0-0.8 0.4-0.8 0.8 0 0.4 0.4 0.8 0.8 0.8 0.5 0 0.8-0.4 0.8-0.8zm12.3-5.5c-0.9-1.4-2.4-2.3-4.1-2.3m7.2 6.5c-0.4-2.7-2.6-4.6-5.3-4.6m4.9 4.7c-0.4-2.5-2.5-4.3-4.9-4.3m2.9 6.2c0.2-0.4 0.2-1 0-1.4m3.6-4.9c0-0.6-0.5-1.1-1.1-1.1-0.6 0-1.1 0.5-1.1 1.1 0 0.6 0.5 1.1 1.1 1.1 0.6 0 1.1-0.5 1.1-1.1zm-1.6 5.6q0-0.6-0.1-1.3m0.5 1.3q0-0.7-0.1-1.3m3.4-2.7c0-0.3-0.2-0.5-0.5-0.5-0.3 0-0.5 0.2-0.5 0.5 0 0.3 0.2 0.5 0.5 0.5 0.3 0 0.5-0.2 0.5-0.5zm-19.1 10.1h10.4m-10.4-0.6h10.4m0.1 0.4c2.7 0 4.9-2 5.3-4.6m-5.3 4.2c2.4 0 4.5-1.8 4.9-4.3m-6.8 6.6c1.7 0 3.2-0.9 4.1-2.3m4.3 0.1c0-0.6-0.5-1.1-1.1-1.1-0.6 0-1.1 0.5-1.1 1.1 0 0.6 0.5 1 1.1 1 0.6 0 1.1-0.4 1.1-1zm3.4-12.1v13.1m-106.2-61.7h106.9m-106.9 1.1h106.9m-8.8-26.3h8.8m-8.8 1.3h8.8m-7.1-1.3c-0.3-0.8-1.2-1.3-2-1.1-0.9 0.2-1.5 1-1.4 1.8 0 0.9 0.6 1.6 1.4 1.7 0.9 0.2 1.7-0.3 2-1.1m-1.7-1.3c-0.2 0.1-0.3 0.4-0.3 0.7 0 0.2 0.1 0.5 0.3 0.7m1.6-1.5c-0.4-1.8-2.1-3.1-4-2.8-1.9 0.2-3.3 1.8-3.2 3.7 0 1.9 1.5 3.4 3.4 3.5 1.9 0.1 3.5-1.2 3.8-3.1"/>
		<path id="Path 32" class="s0" d="m954.8 1351.3h35.6v7.2h-35.6zm-78.4-99.7h7.1v142.4h-7.1zm114-35.6h7.2v142.4h-7.2zm-114 0h7.1v35.6h-7.1zm78.4 0h35.6v7h-35.6zm-71.3 135.2h4.2v7.1h-4.2zm51.8 0h19.5v7.2h-19.5zm268.7 41h7.2v35.6h-7.2z"/>
		<path id="Path 33" class="s4" d="m1211.2 1394.1h-213.6"/>
		<path id="Path 34" class="s0" d="m1075.9 1349.5h35.6v7.1h-35.6zm35.6 0h35.5v7.1h-35.5zm35.5 0h35.8v7.2h-35.8zm-106.7 0h35.6v7.1h-35.6zm-49.9 44.6h7.2v35.8h-7.2z"/>
		<path id="Path 35" class="s4" d="m990.4 1394.1h-106.9m106.9-140.1v86.2m-1.3 1.2c0.7 0 1.3-0.6 1.3-1.3m0-86.2c0-0.8-0.6-1.4-1.3-1.4"/>
		<path id="Path 36" class="s0" d="m919.1 1216.1h35.7v7h-35.7zm-35.6 0h35.6v7h-35.6zm-7.1 178h7.1v35.7h-7.1z"/>
		<path id="Path 37" class="s1" d="m889.3 1355.6v-4.3m0 2.2h3m41.4-2.2h1.6v4.3h-1.6zm-44.4 4.3h-1.6m1.6-4.3h-1.6m1.6 2.1v-44.6m3 44.6v-44.6m-3 0h3m41.5 42.5c0.2-23.2-18.3-42.1-41.5-42.5m-3 44.6h44.4"/>
		<path id="Path 38" class="s0" d="m876.4 1211.8h7.1v4.3h-7.1zm0-67.1h7.1v19.6h-7.1z"/>
		<path id="Path 39" class="s1" d="m879.4 1165.9h4.1m-2 0v2.9m-2.1 41.6h4.1v1.4h-4.1zm0-44.5v-1.5m4.1 1.5v-1.5m-2 1.5h44.5m-44.5 2.9h44.5m0-2.9v2.9m-42.3 41.5c23.2 0.1 42.1-18.4 42.4-41.6m-44.6-2.8v44.5"/>
		<path id="Path 40" class="s0" d="m577.5 1429.8h35.5v7h-35.5z"/>
		<path id="Path 41" class="s4" d="m783.2 1349.6c0.6 0 1.2-0.5 1.2-1.2m0 16.6c0-0.7-0.6-1.3-1.2-1.3m0.9-2.3c0 0.3 0.2 0.5 0.5 0.5 0.3 0 0.5-0.2 0.5-0.5 0-0.3-0.2-0.5-0.5-0.5-0.3 0-0.5 0.2-0.5 0.5zm4.1-1.7c0 2.6 2.2 4.8 4.8 4.8m8.7 0c2.3 0 4.3-1.6 4.7-3.9m-4.7 6.4c3.5 0 6.6-2.4 7.2-5.9m-7.2 6.1h-11.3m11.3-2.7h-17.5m0.2 0.6c0 1.1 0.8 1.9 1.9 1.9m4.1 0.2h-4.2m-2-2v-0.2m24.7-12.8c-0.6-3.4-3.7-5.9-7.2-5.9m0 0h-11.3m-6.2 2.7h17.5m4.6 11.6c0.5-2.6 0.5-5.3 0-7.8m2.6 8.3c0.6-2.9 0.6-5.9 0-8.9m-2.5 0.5c-0.4-2.2-2.4-3.8-4.7-3.8m-13.5 10.8v-6m9-0.2c-1.5 0.3-2.6 1.6-2.7 3.2m0 0c0.1 1.5 1.2 2.8 2.7 3.1m0.1 0q0 0 0 0.1m-4.3-11c-2.6 0-4.8 2.1-4.8 4.8m9.1-0.4q0 0 0 0.1m-13.2-1.4c0 0.2 0.2 0.5 0.5 0.5 0.3 0 0.5-0.3 0.5-0.5 0-0.3-0.2-0.5-0.5-0.5-0.3 0-0.5 0.2-0.5 0.5zm0.1-3.8v0.3m2.1-2.3c-1.1 0-1.9 0.8-1.9 1.9m6-1.8h-4.2m-8 18.9q0.3-4.3 0.3-8.5m1.9 8.6q0.3-4.3 0.3-8.6m-10.5 11.5v-22.9m0 20.7h7.2m-7.2 2.2h7.2m0-0.2c1.6 0 2.9-1.2 3-2.7m-3 0.6c0.5 0 0.8-0.3 0.8-0.7m4.9-1.3h-2.6m-0.1-15.9c-0.1-1.5-1.4-2.7-3-2.7m1.1 11.4q0-4.3-0.3-8.5m2.5 8.5q0-4.4-0.3-8.7m-10.2-0.5h7.2m0.8 0.7c0-0.4-0.3-0.7-0.8-0.7m5.7 2.1h-2.6m-10.3-4.3h7.2m-6.9-18.9c0 2.1 1.7 3.8 3.8 3.8m0-20.8c-2.1 0-3.8 1.7-3.8 3.8m23.9 14.4h-12.2m12.2 2.7h-10.5m7-4.6c2.7 0 4.9-2 5.3-4.6m-5.3 4.2c2.4 0 4.5-1.8 4.9-4.3m-13.6-8.9h12.2m0-2.7h-20.2m22 9.1c-0.4-2.7-2.6-4.6-5.3-4.6m4.9 4.7c-0.4-2.5-2.5-4.3-4.9-4.3m5.3 5.5q0-0.7-0.1-1.3m-0.3 1.3q0-0.6-0.1-1.3m6.1 5.7c0.6-2.9 0.6-5.9 0-8.8m-2.7 8.3c0.6-2.6 0.6-5.2 0-7.8m-4.7 14.3c3.6 0 6.6-2.5 7.3-5.9m-7.3 3.3c2.3 0 4.3-1.6 4.7-3.9m-3-2.6q0.1-0.7 0.1-1.3m-0.5 1.2q0.1-0.6 0.1-1.2m5.9-4.5c-0.7-3.4-3.7-5.9-7.3-5.9m4.7 6.4c-0.4-2.2-2.4-3.8-4.7-3.8m-19.2 6.5q-0.1 0.6-0.1 1.3m0.5-1.3q-0.1 0.7-0.1 1.3m3.8 1.3c-0.7 0-1.4-0.6-1.4-1.3 0-0.8 0.7-1.4 1.4-1.4 0.8 0 1.4 0.6 1.4 1.4 0 0.7-0.6 1.3-1.4 1.3zm-1.8-0.6c0.4 0.9 1.3 1.4 2.2 1.2 0.9-0.2 1.5-1 1.5-1.9 0-0.9-0.6-1.7-1.5-1.9-0.9-0.2-1.8 0.3-2.2 1.1m-5.8 0.8c0 0.6 0.4 1.1 1 1.1 0.6 0 1.1-0.5 1.1-1.1 0-0.6-0.5-1.1-1.1-1.1-0.6 0-1 0.5-1 1.1zm19.1 6.1h-10.4m10.4-0.6h-10.4m3.5 5h-9.7m16.2-10.5c0 0.4 0.3 0.8 0.8 0.8 0.4 0 0.7-0.4 0.7-0.8 0-0.4-0.3-0.8-0.7-0.8-0.5 0-0.8 0.4-0.8 0.8zm-12.2 5.5c0.9 1.4 2.4 2.3 4.1 2.3m-7.2-6.5c0.4 2.6 2.7 4.6 5.3 4.6m-4.8-4.7c0.3 2.5 2.4 4.3 4.8 4.3m-2.9-6.3c-0.2 0.5-0.2 1.1 0 1.5m-3.6 5c0 0.6 0.5 1.1 1.1 1.1 0.6 0 1.1-0.5 1.1-1.1 0-0.6-0.5-1.1-1.1-1.1-0.6 0-1.1 0.5-1.1 1.1zm1.6-5.7q0 0.6 0.1 1.2m-0.5-1.2q0 0.6 0.1 1.3m-3.4 2.7c0 0.3 0.2 0.5 0.5 0.5 0.3 0 0.5-0.2 0.5-0.5 0-0.3-0.2-0.5-0.5-0.5-0.3 0-0.5 0.2-0.5 0.5zm19-9.8h-10.4m10.4 0.4h-10.4m0-0.5c-2.6 0-4.9 1.9-5.3 4.6m5.3-4.2c-2.4 0-4.5 1.8-4.8 4.3m6.7-6.6c-1.7 0-3.2 0.9-4.1 2.3m-4.3-0.1c0 0.6 0.5 1.1 1.1 1.1 0.6 0 1.1-0.5 1.1-1.1 0-0.6-0.5-1.1-1.1-1.1-0.6 0-1.1 0.5-1.1 1.1zm-3.5 12.2v-13.1m0.4-15.3h15.3m-14.4-2.7h14.8m-14.8-30.8h14.8m-15.7-2.7h15.3m11.5 17.9q0.2-3.9-0.2-7.9m-2.6 7.9q0.1-3.8-0.3-7.6m-16.7 7.7v-12.3m19.5 4.3c-0.5-5.7-5.4-10.1-11.1-10.1m8.4 10.4c-0.4-4.4-4.1-7.7-8.4-7.7m-5.3 0c-1.7 0-3.1 1.4-3.1 3.1m19.6 20.2q0.4-3.9 0.2-7.9m-19.8 0v12.3m8.4 3c4.3 0 8-3.3 8.4-7.6m-0.1 0q0.4-3.9 0.3-7.7m-0.2-0.3q0-0.1 0-0.1m0.1 0.3q0-0.1-0.1-0.2m0.1 0.3q0-0.1 0-0.2m0 0.4q0-0.1 0-0.2m-0.1 0.4q0.1-0.1 0.1-0.2m-0.1 0.3q0-0.1 0-0.1m-0.2 0q0 0 0 0.1m0-0.3q0 0.1 0 0.2m0-0.4q0 0.1 0 0.2m0-0.4q0 0.1 0 0.2m0-0.3q0 0.1 0 0.2m0-0.3q0 0 0 0.1m0.2-3.1q0 0 0-0.1m0 0q0.1-0.1 0.1-0.1m0 0q0-0.1 0-0.2m0 0q0 0 0-0.1m0-0.1q0-0.1-0.1-0.1m0-0.1q0 0 0-0.1m-0.2 0q0 0.1 0 0.1m0 0.1q0 0 0 0.1m0 0.1q0 0.1 0 0.1m0 0q0 0.1 0 0.2m0 0q0 0 0 0.1m0 0q0 0.1 0 0.1m0.2 6.8q0 0 0-0.1m0.1 0.3q0-0.1-0.1-0.2m0.1 0.4q0-0.1 0-0.2m0 0.4q0-0.1 0-0.2m-0.1 0.3q0.1-0.1 0.1-0.2m-0.1 0.3q0 0 0-0.1m-0.2 0q0 0.1 0 0.1m0-0.3q0 0.1 0 0.2m0-0.3q0 0.1 0 0.2m0-0.4q0 0.1 0 0.2m0-0.4q0 0.1 0 0.2m0-0.3q0 0.1 0 0.1m-13.2-2.1c-0.8 0-1.4-0.6-1.4-1.3 0-0.8 0.6-1.4 1.4-1.4 0.7 0 1.3 0.6 1.3 1.4 0 0.7-0.6 1.3-1.3 1.3zm5 16.7c5.7 0 10.6-4.3 11.1-10.1m-19.5 4.4c0 1.7 1.4 3 3.1 3m-10.4-15.3v-17.7m0.9 17.7v-10m0 8v-13.1m-0.5-3c-0.2 0-0.4 0.1-0.4 0.3m1.2 2.4c-0.1 0-0.2 0.1-0.2 0.2m3.4 8.1c0.6 0 1-0.5 1-1.1 0-0.6-0.4-1.1-1-1.1-0.6 0-1.1 0.5-1.1 1.1 0 0.6 0.5 1.1 1.1 1.1zm-3.5 7.1v15.2m-0.9-15.2v17.9m4.4-8.7c0.6 0 1-0.5 1-1.1 0-0.6-0.4-1.1-1-1.1-0.6 0-1.1 0.5-1.1 1.1 0 0.6 0.5 1.1 1.1 1.1zm-3.5-7.2v8m2.8-9c0.6 0 1-0.4 1-1 0-0.6-0.4-1.1-1-1.1-0.6 0-1.1 0.5-1.1 1.1 0 0.6 0.5 1 1.1 1zm-2.7 14.1c0 0.1 0.1 0.2 0.2 0.2m-1.2 2.5c0 0.2 0.2 0.4 0.4 0.4m105.5 77.2h-106.7m106.7-1.3h-106.7m8.8 26.3h-8.8m8.8-1.3h-8.8m7.2 1.2c0.4 0.8 1.2 1.2 2.1 1.1 0.8-0.2 1.4-1 1.4-1.8 0-0.9-0.7-1.6-1.5-1.8-0.9-0.1-1.7 0.4-2 1.2m1.7 1.3c0.2-0.2 0.3-0.4 0.3-0.7 0-0.3-0.1-0.5-0.3-0.7m-1.7 1.5c0.4 1.8 2.1 3 4 2.8 1.8-0.2 3.2-1.8 3.2-3.7-0.1-1.9-1.5-3.4-3.4-3.5-1.9-0.1-3.6 1.2-3.9 3"/>
		<path id="Path 42" class="s0" d="m769.7 1251.7h35.5v7.1h-35.5zm-7.2 0h7.2v142.4h-7.2zm0 142.4h7.2v35.7h-7.2z"/>
		<path id="Path 43" class="s1" d="m826.4 1254.5v4.3m0-2.1h2.8m41.6-2.2h1.5v4.3h-1.5zm-44.4 0h-1.6m1.6 4.3h-1.6m1.6-2.1v44.4m2.8-44.4v44.4m-2.8 0h2.8m0.1 0c23.2-0.3 41.7-19.2 41.5-42.4m-44.4-2h44.4"/>
		<path id="Path 44" class="s0" d="m872.3 1251.7h4.1v7.1h-4.1zm-67.1 0h19.6v7.2h-19.6zm-199.3-115.8h35.6v7.1h-35.6zm7.1 293.9h35.6v7h-35.6zm149.5-213.7h7.2v35.6h-7.2zm-334.6-80.3h35.5v7.1h-35.5zm35.5 0h35.6v7.2h-35.6zm-291.9 229.8h7.2v35.6h-7.2zm0 35.6h7.2v35.6h-7.2zm206.5-192.2h35.6v7.1h-35.6z"/>
		<path id="Path 45" class="s4" d="m399.4 530.4h71.2v420.2h-71.2z"/>
		<path id="Path 46" class="s0" d="m278.4 1144.8h7v35.5h-7zm0 35.6h7v35.8h-7zm64 28.6h35.6v7.1h-35.6z"/>
		<path id="Path 47" class="s4" d="m278.4 1208.9h-99.7m555.4 7.2v213.7m-524.6-111.8h47.5v109.8h-47.5zm41.5 82.6v-82.6m-5.9 78.5v-78.5m-6 74.5v-74.5m-5.9 70.5v-70.5m-6 66.5v-66.5m-5.8 62.3v-62.3m-6 60v-60m-5.9 108.1h-1.8v3.5h51v-3.5h-1.7m-43.3-20.3c-1.6 0-2.9 1.3-2.9 2.9m2.9-2.9h38.5m3.1 2.9c0-1.6-1.4-2.9-3-2.9m3 3v14.3m-3 2.8c1.6 0 3-1.3 3-2.9m-3.1 3.1h-38.5m-2.9-3.1c0 1.6 1.3 2.9 2.9 2.9m-3-2.8v-14.3m46.3-4.2l-47.5-13.6m6.5-14.3l41 27.9m-47.5-13.6l6.5-14.3m-37.3 29.3h23.7v23.8h-23.7zm188.2-853.6c-2.5 0-4.5-2-4.5-4.5 0-2.5 2-4.5 4.5-4.5 2.5 0 4.5 2 4.5 4.5 0 2.5-2 4.5-4.5 4.5z"/>
		<path id="Path 48" fill-rule="evenodd" class="s5" d="m367 541.8v4l-0.4-4zm-0.5 4h0.5l-0.5-4z"/>
		<path id="Path 49" fill-rule="evenodd" class="s5" d="m360.6 547.8h4l-4 0.4zm4 0.5v-0.5l-4 0.5z"/>
		<path id="Path 50" fill-rule="evenodd" class="s5" d="m366.6 554.2v-3.8l0.4 3.8zm0.4-3.8h-0.4l0.4 3.8z"/>
		<path id="Path 51" fill-rule="evenodd" class="s5" d="m373 548.2h-3.9l3.9-0.4zm-3.9-0.4v0.4l3.9-0.4z"/>
		<path id="Path 52" class="s4" d="m383.9 552.5c-2.5 0-4.5-2-4.5-4.5 0-2.5 2-4.5 4.5-4.5 2.5 0 4.5 2 4.5 4.5 0 2.5-2 4.5-4.5 4.5z"/>
		<path id="Path 53" fill-rule="evenodd" class="s5" d="m384 541.8v4l-0.4-4zm-0.5 4h0.5l-0.5-4z"/>
		<path id="Path 54" fill-rule="evenodd" class="s5" d="m377.6 547.8h4l-4 0.4zm4 0.5v-0.5l-4 0.5z"/>
		<path id="Path 55" fill-rule="evenodd" class="s5" d="m383.6 554.2v-3.8l0.4 3.8zm0.4-3.8h-0.4l0.4 3.8z"/>
		<path id="Path 56" fill-rule="evenodd" class="s5" d="m390 548.2h-4l4-0.4zm-4-0.4v0.4l4-0.4z"/>
		<path id="Path 57" class="s4" d="m383.9 570.1c-2.5 0-4.5-2-4.5-4.5 0-2.5 2-4.5 4.5-4.5 2.5 0 4.5 2 4.5 4.5 0 2.5-2 4.5-4.5 4.5z"/>
		<path id="Path 58" fill-rule="evenodd" class="s5" d="m384 559.5v4l-0.4-4zm-0.5 4h0.5l-0.5-4z"/>
		<path id="Path 59" fill-rule="evenodd" class="s5" d="m377.6 565.5h4l-4 0.5zm4 0.4v-0.4l-4 0.4z"/>
		<path id="Path 60" fill-rule="evenodd" class="s5" d="m383.6 572v-4l0.4 4zm0.4-4h-0.4l0.4 4z"/>
		<path id="Path 61" fill-rule="evenodd" class="s5" d="m390 566h-4l4-0.5zm-4-0.4v0.4l4-0.4z"/>
		<path id="Path 62" fill-rule="evenodd" class="s5" d="m373 566h-3.9l3.9-0.5zm-3.9-0.4v0.4l3.9-0.4z"/>
		<path id="Path 63" fill-rule="evenodd" class="s5" d="m366.6 572v-4l0.4 4zm0.4-4h-0.4l0.4 4z"/>
		<path id="Path 64" fill-rule="evenodd" class="s5" d="m360.6 565.5h4l-4 0.5zm4 0.4v-0.4l-4 0.4z"/>
		<path id="Path 65" fill-rule="evenodd" class="s5" d="m367 559.5v4l-0.4-4zm-0.5 4h0.5l-0.5-4z"/>
		<path id="Path 66" class="s4" d="m366.9 570.1c-2.5 0-4.5-2-4.5-4.5 0-2.5 2-4.5 4.5-4.5 2.5 0 4.5 2 4.5 4.5 0 2.5-2 4.5-4.5 4.5zm25.4-31.3h-34m0-1.4v34m0.1-0.1c0 1.6 1.3 2.8 2.8 2.8m-0.1 0.2h28.3m0.1-0.2c1.5 0 2.8-1.2 2.8-2.8m0 0.1v-34h-34m-96.6 2.6l-0.6-0.6m1.2 0.1l-0.2-0.7m0.9 0.6l0.1-0.6m0.6 1l0.4-0.6m-0.8 3l0.1 0.6m-1-0.6l-0.1 0.8m-0.9-1.8l-0.7 0.3m0.6-1l-0.6-0.1m2.1 1.8c-0.9 0-1.5-0.6-1.5-1.5 0-0.8 0.6-1.5 1.5-1.5 0.8 0 1.5 0.7 1.5 1.5 0 0.9-0.7 1.5-1.5 1.5zm1.3-1.8l0.7-0.3m-0.7 1l0.7 0.1m-1 0.6l0.6 0.4m-2.6-0.2l-0.5 0.5m-9.3-0.5l-0.6 0.5m1.1-0.3l-0.1 0.8m0.9-0.8l0.2 0.6m0.5-1l0.4 0.4m-0.1-1.1l0.7 0.1m-0.7-0.8l0.5-0.3m-1.7-0.7l0.2-0.6m0.5 1l0.5-0.6m-1.4 3c-0.8 0-1.5-0.6-1.5-1.5 0-0.8 0.7-1.5 1.5-1.5 0.8 0 1.5 0.7 1.5 1.5 0 0.9-0.7 1.5-1.5 1.5zm-0.5-2.7l-0.3-0.7m-0.3 1.2l-0.6-0.6m0.2 1.1l-0.7-0.1m0.8 0.8l-0.7 0.3m-9.7 4.3h14.6m1.6 1.2q0 0-0.1-0.1m-2.8 3.1c-0.5-0.6-1.3-0.8-2-0.4-0.6 0.4-0.9 1.2-0.6 1.9 0.3 0.7 1.1 1 1.8 0.8m1.2 1.7l-1.7-0.6m0.1-0.1c-0.2 0.5 0.1 1 0.5 1.2 0.5 0.1 1.1-0.1 1.2-0.6m3.5-10.5l-3.6 10.6m1.9-11.2l-3.6 10.6m4.7-8.6l1.5-1.8m-0.9 0.4l-1.7-0.6m-0.4 1.4v-2.2m0.4-1.5l-0.4 1.5m3.5-0.5c-0.7-0.9-1.9-1.3-3-1m3 1l-0.5 1.5m3.3 9.4c-0.8 0-1.5-0.7-1.5-1.5 0-0.8 0.7-1.5 1.5-1.5 0.8 0 1.5 0.7 1.5 1.5 0 0.8-0.7 1.5-1.5 1.5zm-5.3 14v-19.3m2.2-1.3h14.9m-16 20.6v-19.3m1.2-1.3c-0.7 0-1.2 0.6-1.2 1.2m-2.4 20.5c0.7 0 1.3-0.5 1.3-1.2m1.1 0c0 0.7 0.5 1.2 1.2 1.2m-0.1 0h14.9m-21.5-24.5c-1.2 0-2.2-1-2.2-2.3 0-1.2 1-2.2 2.2-2.2 1.2 0 2.2 1 2.2 2.2 0 1.3-1 2.3-2.2 2.3zm9.9 0c-1.3 0-2.3-1-2.3-2.3 0-1.2 1-2.2 2.3-2.2 1.2 0 2.2 1 2.2 2.2 0 1.3-1 2.3-2.2 2.3zm-21.6 2.8c-0.7 0-1.2 0.6-1.2 1.2m0 19.3c0 0.7 0.5 1.2 1.2 1.2m33.3 0c0.6 0 1.2-0.5 1.2-1.2m0-19.3c0-0.6-0.6-1.2-1.2-1.2m-33.4 21.7h14.9m19.5-20.4v19.3m-35.5-19.3v19.3m-67.3 5.1l185.6-0.1"/>
		<path id="Path 67" class="s3" d="m172.7 571.5h-1.2v53.5"/>
		<path id="Path 68" class="s4" d="m178.7 625h164.3m0 0v35.6m0 0h-164.3m47.5 87.6v-22.3m80.6 22.3v-22.3m-93 7.6l0.4-9m0-0.7l-0.4-9m-1.4 4.5h1.7m-1.7 0.6h1.8m-1.8 8.5h1.8m18 8l-18.4-2.9m-1.4-4.6l1.7 0.2m18.1-17.2l-18.4 2.9m15.4 9.6h74.6m-77.6-1.5h80.6m-80.6 3h80.6m0-25.3l-11.4-1.4-11.6-1.2-11.5-0.4h-11.6l-11.5 0.4-11.5 1.2-11.5 1.4m80.6 0v22.3m-3 0v1.5m0 1.5v-1.5m-69.1-0.6c-0.1-4.1-0.9-8.1-2.5-11.9m-6-11.3v22.3m6 13.5c1.6-3.8 2.4-7.9 2.5-12m-5.5-1.5v1.5m0 1.5v-1.5m5.5-0.6v0.7m-20.5-0.7v0.7m-2.5-11.2c-1.6 7.1-1.6 14.5 0 21.6m-2.2-22.6c-1.9 7.8-1.9 15.9 0 23.7m-0.1-23.8l2.3 1.1m0.7 15.1h-1.7m1.7-8.5h-1.7m1.7-0.6h-1.7m-1.3 16.8l2.3-1.2m0.7-6h-1.7m-0.9 7h-0.1m-0.3 0h0.3m16.5 12.3l11.5 1.5 11.5 1.1 11.5 0.4h11.6l11.5-0.4 11.6-1.1 11.4-1.5m-23.8-7.1c-4.1 0-8.1 0.9-11.9 2.5m11.9 17.9q-4.5 0-9.1 0.5m-1.4 2c7.1 1.6 14.5 1.6 21.6 0m-22.6 2.3c7.8 1.8 15.9 1.8 23.7 0m-16.2-2.9v-1.9m-0.6 1.9v-1.7m9.7 1.7v-1.7m-0.7 1.7v-1.9m8.1-17.9c-3.7-1.6-7.8-2.5-11.9-2.5m11.8 2.5l-2.9 18.3m-9-20.8h-0.5m9.7 20.9q-4.5-0.5-9.1-0.5m-0.1 0h-0.5m12.1 4.9l-1.1-2.2m-6.6-0.8v1.8m0.7-1.8v1.7m-9.1-1.7v1.8m-0.6-1.8v1.7m-39.3-1.1c7.1 1.6 14.5 1.6 21.6 0m-22.7 2.3c7.8 1.8 16 1.8 23.8 0m-12.2-25.2c-4.1 0-8.2 0.9-11.9 2.5m0 0l2.8 18.3m4.5 1.5v-1.7m0.5 1.7l0.2-1.9m8.4 1.9v-1.9m0.6 1.9v-1.7m4.6 0.2l-9.2-0.4m12-17.9c-3.8-1.6-7.8-2.5-11.9-2.5m20.8 2.5l2.8 18.3m-11.7-18.3l-2.8 18.3m-9.8-20.8h0.6m-0.6 20.4l-9 0.4m9-0.4h0.6m21.3 4.9l1-2.2m-0.9 1.9h-0.1m0 0.3v-0.3m-9.7 0.3l-1-2.2m1 2.2l-0.2-0.3m-7.4-2.7v1.8m0.6-1.8v1.7m-9.2-1.7v1.8m-0.5-1.8v1.7m-7 1.3l1.1-2.2m-1.4-59l2.8-18.3m21.6 18.3l-2.8-18.3m11.7 18.3l2.8-18.3m21.6 18.3l-2.9-18.3m-42.3 20.7c4.1 0 8.1-0.9 11.9-2.5m21.5 2.5c4.1 0 8.2-0.9 11.9-2.5m-24.4 0c3.8 1.6 7.8 2.5 11.9 2.5m0.5 0.2h-0.5m-45.3-2.7c3.7 1.6 7.8 2.5 11.9 2.5m-0.1 0.2h0.6m10.6-23.1c-7.1-1.6-14.5-1.6-21.6 0m22.7-2.3c-7.8-1.8-16-1.8-23.8 0m12.1 4.9l9.2-0.4m34.8-2.2c-7.1-1.6-14.5-1.6-21.6 0m22.7-2.3c-7.8-1.8-15.9-1.8-23.7 0m12.1 4.8q4.6 0 9.1-0.5m2.4-4.2l-1.1 2.1m-5.9 0.9v1.7m-0.7-1.7v1.7m0-1.7v-1.9m0.7 1.9v-1.7m-14.2 2.9q4.6 0.5 9.1 0.5m-4-1.7v1.7m-0.6-1.7v1.7m5.1 0.1h-0.5m-4-1.8v-1.9m-0.6 1.9v-1.7m-7-1.3l1 2.1m-0.9-1.8h-0.1m0-0.3v0.3m-9.7-0.3l-1 2.1m1-2.1l-0.2 0.3m-21 4.1l9 0.4m4.6-1.8v1.7m0.6-1.7v1.7m-5.2 0.1h0.6m4-1.8v-1.9m0.6 1.9v-1.7m-9.7 1.7v1.7m0.5-1.7l0.2 1.7m-0.2-1.7v-1.9m-0.5 1.9v-1.7m-7-1.3l1.1 2.1m61.7 51.8l18.5-2.9m-20.8-9.1c0.1 4.1 0.9 8.2 2.5 12m0-24.5c-1.6 3.8-2.4 7.8-2.5 11.9m-0.1 0v0.7m2.4-12.6l18.5 2.9m0.1-0.1q-0.5 4.6-0.6 9.1m2.7 11.1c1.6-7.1 1.6-14.5 0-21.6m2.2 22.7c1.9-7.8 1.9-15.9 0-23.7m0-0.1l-2.3 1.1m-0.7 6h-1.7m1.7 0.6h-1.9m1.9 8.5h-1.9m1.9 0.5l-1.9 0.2m0-4.7q0.1 4.6 0.6 9.1m-0.7-9.7v0.7m2 3.9h1.7m-1.7-8.5h1.7m-1.7-0.6h1.7m-1.7 9.6h1.7m1.3 7.2l-2.3-1.2m1.9 1h0.1m0.3 0h-0.3m186.1 648.6c-20.6 0-37.3-16.7-37.3-37.4 0-20.7 16.7-37.4 37.3-37.4 20.7 0 37.4 16.7 37.4 37.4 0 20.7-16.7 37.4-37.4 37.4zm-33.7-83.2c-12 0-21.6-9.7-21.6-21.7 0-12 9.6-21.6 21.6-21.6 12 0 21.7 9.6 21.7 21.6 0 12-9.7 21.7-21.7 21.7zm-31 27.7c-8.2 0-14.8-6.6-14.8-14.8 0-8.2 6.6-14.8 14.8-14.8 8.2 0 14.8 6.6 14.8 14.8 0 8.2-6.6 14.8-14.8 14.8zm-123.4-443.5v-24.5m0 0h-138m0 0v86.6m0 14.3v2.7m0 0h15.6m-13.7-8.5c-0.7 0-1.4-0.6-1.4-1.4 0-0.7 0.7-1.3 1.4-1.3 0.8 0 1.4 0.6 1.4 1.3 0 0.8-0.6 1.4-1.4 1.4zm66.6-39.3c-16.8 0-30.4-8.2-30.4-18.3 0-10 13.6-18.2 30.4-18.2 16.8 0 30.4 8.2 30.4 18.2 0 10.1-13.6 18.3-30.4 18.3zm0-7.6c-5.9 0-10.7-4.8-10.7-10.7 0-5.9 4.8-10.6 10.7-10.6 5.9 0 10.6 4.7 10.6 10.6 0 5.9-4.7 10.7-10.6 10.7zm0-9.5c-0.7 0-1.2-0.5-1.2-1.2 0-0.6 0.5-1.2 1.2-1.2 0.7 0 1.2 0.6 1.2 1.2 0 0.7-0.5 1.2-1.2 1.2zm-58.8 47.9h-14.3m0 0v14.3m0 0h14.3m0 0v-14.3m105.7-4.5h-94.1m95.1 0.9c0-0.5-0.4-0.9-0.9-0.9m-99.9 1v41.3m0.1-0.1c0 0.5 0.4 0.9 0.9 0.9m0-43.1c-0.5 0-0.9 0.4-0.9 0.9m0.9 42.4h98.8m0.1-0.2c0.5 0 0.9-0.4 0.9-0.9m-0.1-4.6v-36.6m-96 0v36.6m0.1-0.1c0 0.5 0.4 0.9 0.9 0.9m0-38.4c-0.5 0-0.9 0.4-0.9 0.9m0 0c0-0.5-0.4-0.9-0.9-0.9m1.8 38.4h94.1m0.1 0c0.5 0 0.9-0.4 0.9-0.9m-0.1 1.9v2.9m0.1-3c0-0.5-0.4-0.9-0.9-0.9m-96.1-38.4h-2.8m99.7-56.6v94.2m1.1-95.2c-0.6 0-1 0.4-1 0.9m0.9 100h41.3m-42.2-1.1c0 0.5 0.4 0.9 1 0.9m41.2-100.7h-41.3m0 96h36.6m0 0c0.6 0 1-0.4 1-0.9m-38.5 0c0 0.5 0.4 0.9 1 0.9m0 0c-0.6 0-1 0.4-1 0.9m-0.1 0.1v2.9m43.3 0v-98.9m0-0.1c0-0.5-0.4-0.9-0.9-0.9m0 100.7c0.5 0 0.9-0.4 0.9-0.9m-4.7-4.6v-95.2"/>
		<path id="Path 69" class="s0" d="m285.4 1208.9h4.1v7.2h-4.1zm51.7 0h19.6v7.1h-19.6z"/>
		<path id="Path 70" class="s1" d="m335.6 1211.8v4.3m0-2.2h-2.9m-43.2-2.1h1.6v4.3h-1.6zm46.1 0h1.5m-1.5 4.3h1.5m-1.5-2.2v44.5m-2.9-44.5v44.5m2.9 0h-2.9m-41.4-42.4c-0.2 23.1 18.3 42.1 41.5 42.4m2.8-44.5h-44.5"/>
		<path id="Path 71" class="s0" d="m587.5 1208.9h4.1v7.2h-4.1z"/>
		<path id="Path 72" class="s1" d="m593 1211.8v4.3m0-2.2h3m41.6-2.1h1.5v4.3h-1.5zm-44.6 0h-1.4m1.4 4.3h-1.4m1.4-2.2v44.5m3-44.5v44.5m-3 0h3m0.1 0c23.2-0.3 41.7-19.3 41.5-42.4m-44.6-2.1h44.6"/>
		<path id="Path 73" class="s0" d="m639.1 1208.9h19.5v7.2h-19.5zm0 0h35.7v7.1h-35.7z"/>
		<path id="Path 74" class="s4" d="m881.3 949.2l-0.8 186 327.1 1.4 3.6-186zm-239.8 368.8h47.5v109.8h-47.5zm6 82.6v-82.6m5.9 78.5v-78.5m6 74.5v-74.5m5.8 70.5v-70.5m6 66.5v-66.5m5.9 62.3v-62.3m6 60.1v-60.1m5.9 108.1h1.8v3.6h-51v-3.6h1.7m46.3-17.4c0-1.6-1.3-2.9-2.9-2.9m-0.1 0h-38.6m0.1 0c-1.6 0-2.9 1.3-2.9 2.9m0 0.1v14.3m0-0.1c0 1.6 1.3 2.9 2.9 2.9m-0.1 0.2h38.6m0.1-0.2c1.6 0 2.9-1.3 2.9-2.9m0 0.1v-14.3m-46.3-4.2l47.5-13.5m-6.5-14.3l-41 27.8m47.5-13.5l-6.5-14.3m13.6 29.3h23.7v23.7h-23.7zm-172.8-291.5c-20.7 0-37.4-16.7-37.4-37.3 0-20.7 16.7-37.4 37.4-37.4 20.6 0 37.3 16.7 37.3 37.4 0 20.6-16.7 37.3-37.3 37.3zm-33.7-83.2c-12 0-21.7-9.6-21.7-21.6 0-12 9.7-21.7 21.7-21.7 11.9 0 21.6 9.7 21.6 21.7 0 12-9.7 21.6-21.6 21.6zm-31.1 27.8c-8.1 0-14.7-6.6-14.7-14.8 0-8.2 6.6-14.8 14.7-14.8 8.2 0 14.8 6.6 14.8 14.8 0 8.2-6.6 14.8-14.8 14.8zm12.1-522.6h184.6v414.1h-184.6z"/>
		<path id="Path 75" class="s0" d="m392.3 1143v-7.1h35.6v7.1h-35.6 35.6v-7.1h-35.6zm-220.6-185.3h7.1v35.6h-7.1zm185-427.4h35.6v7h-35.6zm35.6 187h7.1v26.7h-7.1zm0-115.8h7.1v26.8h-7.1z"/>
		<path id="Path 76" class="s1" d="m392.3 714.9h2m0-84.3h2.1m-4.1 42.1v42.2m2-84.3v84.3m2.1-84.3v-2.3m-4.1 2.3v-2.3m0 86.6v2.4m2-2.4h2.1v2.4m-2.1-86.7h-2m4.1 42.1v-42.1"/>
		<path id="Path 77" class="s2" d="m392.3 672.7v-42.1m4.1 42.1v42.2"/>
		<path id="Path 78" class="s1" d="m392.3 672.7h4.1"/>
		<path id="Path 79" class="s2" d="m399.4 628.3v89"/>
		<path id="Path 80" class="s0" d="m392.3 895.5h7.1v26.7h-7.1zm0-115.8h7.1v26.7h-7.1z"/>
		<path id="Path 81" class="s1" d="m392.3 893h2m0-84.3h2.1m-4.1 42.2v42.1m2-84.3v84.3m2.1-84.3v-2.3m-4.1 2.3v-2.3m0 86.6v2.5m2-2.5h2.1v2.5m-2.1-86.8h-2m4.1 42.2v-42.2"/>
		<path id="Path 82" class="s2" d="m392.3 850.9v-42.2m4.1 42.2v42.1"/>
		<path id="Path 83" class="s1" d="m392.3 850.9h4.1"/>
		<path id="Path 84" class="s2" d="m399.4 806.4v89.1m0 92v29.6"/>
		<path id="Path 85" class="s1" d="m396.4 1017.1v-29.6m-4.1 29.6v-29.6m2 27.9v-26.2m-2 26.2h4.1m0-26.2h-4.1"/>
		<path id="Path 86" class="s2" d="m399.4 1017.1v29.7"/>
		<path id="Path 87" class="s1" d="m396.4 1046.8v-29.7m-4.1 29.7v-29.7m2 27.9v-26m-2 26h4.1m0-26h-4.1"/>
		<path id="Path 88" class="s2" d="m399.4 1046.8v29.8"/>
		<path id="Path 89" class="s1" d="m396.4 1076.6v-29.8m-4.1 29.8v-29.8m2 27.9v-26.1m-2 26.1h4.1m0-26.1h-4.1"/>
		<path id="Path 90" class="s2" d="m399.4 1076.6v29.6"/>
		<path id="Path 91" class="s1" d="m396.4 1106.2v-29.6m-4.1 29.6v-29.6m2 27.8v-26.1m-2 26.1h4.1m0-26.1h-4.1"/>
		<path id="Path 92" class="s2" d="m399.4 1106.2v29.7"/>
		<path id="Path 93" class="s1" d="m396.4 1135.9v-29.7m-4.1 29.7v-29.7m2 27.8v-26m-2 26h4.1m0-26h-4.1"/>
		<path id="Path 94" class="s0" d="m392.3 951.8h7.1v35.7h-7.1zm-113.9 185.8h35.6v7.2h-35.6zm0-108.6h7v35.5h-7zm0 21.5h7v35.6h-7zm13.7 87.2h35.6v7.1h-35.6z"/>
		<path id="Path 95" class="s2" d="m392.3 1281.3v29.7"/>
		<path id="Path 96" class="s1" d="m389.3 1311v-29.7m-4.2 29.7v-29.7m2.2 28v-26.2m-2.2 26.2h4.2m0-26.2h-4.2"/>
		<path id="Path 97" class="s2" d="m392.3 1311v29.7"/>
		<path id="Path 98" class="s1" d="m389.3 1340.7v-29.7m-4.2 29.7v-29.7m2.2 27.9v-26.2m-2.2 26.2h4.2m0-26.2h-4.2"/>
		<path id="Path 99" class="s2" d="m392.3 1340.7v29.6"/>
		<path id="Path 100" class="s1" d="m389.3 1370.3v-29.6m-4.2 29.6v-29.6m2.2 27.9v-26.2m-2.2 26.2h4.2m0-26.2h-4.2"/>
		<path id="Path 101" class="s2" d="m392.3 1370.3v29.8"/>
		<path id="Path 102" class="s1" d="m389.3 1400.1v-29.8m-4.2 29.8v-29.8m2.2 28v-26.1m-2.2 26.1h4.2m0-26.1h-4.2"/>
		<path id="Path 103" class="s2" d="m392.3 1400.1v29.7"/>
		<path id="Path 104" class="s1" d="m389.3 1429.8v-29.7m-4.2 29.7v-29.7m2.2 27.8v-26.1m-2.2 26.1h4.2m0-26.1h-4.2"/>
		<path id="Path 105" class="s2" d="m392.3 1221.9v29.8"/>
		<path id="Path 106" class="s1" d="m389.3 1251.7v-35.6m-4.2 35.6v-35.6m2.2 33.7v-32m-2.2 32h4.2m0-32h-4.2"/>
		<path id="Path 107" class="s2" d="m392.3 1251.7v29.6"/>
		<path id="Path 108" class="s1" d="m389.3 1281.3v-29.6m-4.2 29.6v-29.6m2.2 27.9v-26.2m-2.2 26.2h4.2m0-26.2h-4.2"/>
		<path id="Path 109" class="s2" d="m577.5 1221.9v29.8m0 29.6v29.7"/>
		<path id="Path 110" class="s1" d="m580.3 1311v-29.7m4.2 29.7v-29.7m-2 28v-26.2m2 26.2h-4.2m0-26.2h4.2"/>
		<path id="Path 111" class="s2" d="m577.5 1311v29.7"/>
		<path id="Path 112" class="s1" d="m580.3 1340.7v-29.7m4.2 29.7v-29.7m-2 27.9v-26.2m2 26.2h-4.2m0-26.2h4.2"/>
		<path id="Path 113" class="s2" d="m577.5 1340.7v29.6"/>
		<path id="Path 114" class="s1" d="m580.3 1370.3v-29.6m4.2 29.6v-29.6m-2 27.9v-26.2m2 26.2h-4.2m0-26.2h4.2"/>
		<path id="Path 115" class="s2" d="m577.5 1370.3v29.8"/>
		<path id="Path 116" class="s1" d="m580.3 1400.1v-29.8m4.2 29.8v-29.8m-2 28v-26.1m2 26.1h-4.2m0-26.1h4.2"/>
		<path id="Path 117" class="s2" d="m577.5 1400.1v29.7"/>
		<path id="Path 118" class="s1" d="m580.3 1429.8v-29.7m4.2 29.7v-29.7m-2 27.8v-26.1m2 26.1h-4.2m0-26.1h4.2m-4.2-150.1v-35.6m4.2 35.6v-35.6m-2 33.7v-32m2 32h-4.2m0-32h4.2"/>
		<path id="Path 119" class="s2" d="m577.5 1251.7v29.6"/>
		<path id="Path 120" class="s1" d="m580.3 1281.3v-29.6m4.2 29.6v-29.6m-2 27.9v-26.2m2 26.2h-4.2m0-26.2h4.2"/>
		<path id="Path 121" class="s0" d="m285.4 986.4h35.7v7.1h-35.7zm17.1 0h35.6v7.2h-35.6z"/>
		<path id="Path 122" class="s4" d="m207 792h111.7v6.1h-111.7z"/>
		<path id="Path 123" class="s6" d="m164.9 289.2h1053v1388.5h-1053z"/>
	</g>
</svg>