<svg version="1.2" xmlns="http://www.w3.org/2000/svg" viewBox="0 0 1361 1928" width="1361" height="1928">
	<title>probarcomedor-pdf</title>
	<defs>
		<clipPath clipPathUnits="userSpaceOnUse" id="cp1">
			<path d="m0 0h1361v1928h-1361z"/>
		</clipPath>
	</defs>
	<style>
		.s0 { fill: none;stroke: #ff0000;stroke-linecap: round;stroke-linejoin: round;stroke-width: 1.9 } 
		.s1 { fill: none;stroke: #ffff00;stroke-linecap: round;stroke-linejoin: round;stroke-width: 1 } 
		.s2 { fill: none;stroke: #5e5e5e;stroke-linecap: round;stroke-linejoin: round;stroke-width: .8 } 
		.s3 { fill: none;stroke: #000000;stroke-linecap: round;stroke-linejoin: round;stroke-width: 1.6 } 
		.s4 { fill: none;stroke: #989898;stroke-linecap: round;stroke-linejoin: round;stroke-width: .5 } 
		.s5 { fill: #989898;stroke: #989898;stroke-linecap: round;stroke-miterlimit:10;stroke-width: .5 } 
		.s6 { fill: none;stroke: #808080;stroke-linecap: round;stroke-linejoin: round;stroke-width: 1.6 } 
		.s7 { fill: none;stroke: #000000;stroke-linecap: round;stroke-linejoin: round;stroke-width: .5 } 
	</style>
	<g id="Page 1" clip-path="url(#cp1)">
		<path id="Path 2" class="s0" d="m273.9 1087.4v4h-6.7v-4z"/>
		<path id="Path 3" class="s1" d="m270 1086h3.9m-1.9 0v-2.9m1.9-41.2v1.3h-3.9v-1.3zm-4 44.1v1.4m4-1.4v1.4m-2-1.4h42.7m-42.7-2.9h42.7m0 2.9v-2.9m0.1 0c-0.3-22.2-18.5-40-40.7-39.9m-2.1 42.8v-42.8"/>
		<path id="Path 4" class="s0" d="m273.9 953v34.1h-6.7v-34.1zm109.5-68.3v34.1h-6.9v-34.1zm-109.4 61.4v6.9h-34.2v-6.9zm-68.3 0v6.9h-34.1v-6.9zm34.1 0v6.9h-34.1v-6.9zm-68.3-61.4v34.1h-6.9v-34.1z"/>
		<path id="Path 5" class="s1" d="m164.6 848.2h2.1m0-63.7h1.9m-4 31.8v31.9m2.1-63.7v63.7m1.9-63.7v-2.4m-4 2.4v-2.4m0 66.1v2.2m2.1-2.2h1.9v2.2m-1.9-65.9h-2.1m4 31.8v-31.8"/>
		<path id="Path 6" class="s2" d="m164.6 816.3v-31.8m4 31.8v31.9"/>
		<path id="Path 7" class="s1" d="m164.6 816.3h4"/>
		<path id="Path 8" class="s0" d="m171.5 850.4v34.3h-6.9v-34.3z"/>
		<path id="Path 9" class="s2" d="m171.5 782.1v68.3"/>
		<path id="Path 10" class="s0" d="m171.5 748v34.1h-6.9v-34.1zm0-34.2v34.2h-6.8v-34.2z"/>
		<path id="Path 11" class="s1" d="m164.6 677.4h2.1m0-63.8h1.9m-4 31.8v32m2.1-63.8v63.8m1.9-63.8v-2.3m-4 2.3v-2.3m0 66.1v2.3m2.1-2.3h1.9v2.3m-1.9-66.1h-2.1m4 31.8v-31.8"/>
		<path id="Path 12" class="s2" d="m164.6 645.4v-31.8m4 31.8v32"/>
		<path id="Path 13" class="s1" d="m164.6 645.4h4"/>
		<path id="Path 14" class="s0" d="m171.5 679.7v34.1h-6.9v-34.1z"/>
		<path id="Path 15" class="s2" d="m171.5 611.3v68.4"/>
		<path id="Path 16" class="s0" d="m171.5 577.1v34.2h-6.9v-34.2zm95.8 514.3v6.8h-34.3v-6.8zm-68.5 0v6.8h-34.1v-6.8zm34.1 0v6.8h-34.1v-6.8zm-61.5 6.8v34.2h-6.8v-34.2zm0 34.2v34.2h-6.9v-34.2zm0 34.2v34.2h-6.8v-34.2zm0 34.2v34.1h-6.9v-34.1zm0 34.1v34.2h-6.8v-34.2zm0 34.2v34.1h-6.9v-34.1zm34.1 102.6v6.7h-34.1v-6.7zm34.1 0v6.7h-34.1v-6.7zm34.1 0v6.7h-34.1v-6.7zm34.3 0v6.7h-34.3v-6.7zm34.1 0v6.7h-34.1v-6.7zm34.1 0v6.7h-34.1v-6.7z"/>
		<path id="Path 17" class="s3" d="m397 1166.6h170.9"/>
		<path id="Path 18" class="s0" d="m431.1 1159.8v6.8h-34.1v-6.8zm34.3 0v6.8h-34.3v-6.8zm34.1 0v6.8h-34.1v-6.8zm34.1 0v6.8h-34.1v-6.8zm34.1 0v6.8h-34.1v-6.8zm113.9 0v6.8h-34.1v-6.8zm34.1 0v6.8h-34.1v-6.8zm34.1 0v6.8h-34.1v-6.8zm-578.7 143.4v34.2h-6.8v-34.2zm485.2 68.5v6.7h-34.1v-6.7zm34.1 0v6.7h-34.1v-6.7zm34.1 0v6.7h-34.1v-6.7zm34.3 0v6.7h-34.3v-6.7zm34.1 0v6.7h-34.1v-6.7z"/>
		<path id="Path 19" class="s3" d="m479 1096.6h170.9"/>
		<path id="Path 20" class="s0" d="m513.3 1089.7v6.9h-34.3v-6.9zm34.1 0v6.9h-34.1v-6.9zm34.1 0v6.9h-34.1v-6.9zm68.3 0v6.9h-34.2v-6.9zm34.2 0v6.9h-34.2v-6.9z"/>
		<path id="Path 21" class="s3" d="m684 1096.6h170.9"/>
		<path id="Path 22" class="s0" d="m718.3 1089.7v6.9h-34.3v-6.9zm34.2 0v6.9h-34.2v-6.9zm34.2 0v6.9h-34.2v-6.9zm34.2 0v6.9h-34.2v-6.9zm34.2 0v6.9h-34.2v-6.9z"/>
		<path id="Path 23" class="s3" d="m854.9 1096.6h170.9"/>
		<path id="Path 24" class="s0" d="m889.2 1089.7v6.9h-34.3v-6.9zm34.2 0v6.9h-34.2v-6.9zm34.2 0v6.9h-34.2v-6.9zm34.2 0v6.9h-34.2v-6.9zm34.2 0v6.9h-34.2v-6.9zm136.8 6.9v34.1h-6.9v-34.1zm0 34.1v34.2h-6.8v-34.2zm0 34.2v34.1h-6.9v-34.1zm0 34.1v34.2h-6.9v-34.2zm0 34.2v34.2h-6.8v-34.2zm0 34.2v34.2h-6.9v-34.2zm0 34.2v34.1h-6.8v-34.1zm-335 70.1v6.7h-34.1v-6.7zm34.1 0v6.7h-34.1v-6.7zm34.1 0v6.7h-34.1v-6.7zm34.3 0v6.7h-34.3v-6.7zm34.1 0v6.7h-34.1v-6.7zm34.1 0v6.7h-34.1v-6.7zm34.1 0v6.7h-34.1v-6.7zm-649.3-657.9v34.2h-6.9v-34.2zm0-170.8v34.1h-6.8v-34.1zm0-34.2v34.2h-6.9v-34.2zm-41 0v6.7h-34.1v-6.7zm-68.5 0v6.7h-34.1v-6.7zm34.3 0v6.7h-34.3v-6.7zm-68.5 0v6.7h-34.1v-6.7zm-34.2 0v6.7h-34.1v-6.7zm-34.2 34.2v34.1h-6.8v-34.1zm0-34.2v34.2h-6.9v-34.2zm895.4 862.9v6.7h-34.2v-6.7zm34.2 0v6.7h-34.2v-6.7zm34.3 0v6.7h-34.3v-6.7zm27.3 0v6.7h-34.2v-6.7z"/>
		<path id="Path 25" class="s4" d="m1106.7 1186.3v108.4h-80.2v-108.4zm-83.1 97c0-2.4-1.9-4.3-4.3-4.3m-0.1 0.1h-10m0.1-0.1c-2.4 0-4.4 1.9-4.4 4.3m0 0v5.7m0-0.1c0 2.4 2 4.3 4.4 4.3m-0.1 0.2h10m0.1-0.2c2.4 0 4.3-1.9 4.3-4.3m-0.1 0.1v-5.7m1.5 0c0-3.2-2.6-5.7-5.7-5.7m-0.1 0h-10m0.1 0c-3.2 0-5.7 2.5-5.7 5.7m-0.2 0v5.7m0.2-0.1c0 3.1 2.5 5.7 5.7 5.7m-0.1 0.1h10m0.1-0.1c3.1 0 5.7-2.6 5.7-5.7m-0.2 0.1v-5.7m89.1-4.3c-2.4 0-4.3 1.9-4.3 4.3m4.2-4.2h10.1m4.3 4.2c0-2.4-1.9-4.3-4.3-4.3m4.2 4.3v5.7m-4.2 4.2c2.4 0 4.3-1.9 4.3-4.3m-4.3 4.5h-10.1m-4.2-4.5c0 2.4 1.9 4.3 4.3 4.3m-4.3-4.2v-5.7m4.3-5.7c-3.1 0-5.7 2.5-5.7 5.7m5.6-5.7h10.1m5.7 5.7c0-3.2-2.5-5.7-5.7-5.7m5.7 5.7v5.7m-5.7 5.6c3.2 0 5.7-2.6 5.7-5.7m-5.7 5.8h-10.1m-5.6-5.8c0 3.1 2.6 5.7 5.7 5.7m-5.7-5.6v-5.7m-41.7-11.1v22.5m-1.4-23.6l-0.1 4.7m0.1 15.8v3m0-8v1.8m0-11.2v1.6m-1.5-8.5v4.7m0 17v2.6m-1.3-25.1v5.6m0 16.9v2.6m-1.5-25.9v6.7m0 16.4v2.5m-1.4-26.2v7.7m0 15.8v2.2m-1.4-26.2v8.1m0 15.9v1.8m-1.5-26.4v8.7m0 15.7v2.1m-1.4-27.2v9.4m0 15.6v2.6m-1.3-28.2v10.1m0 15.5v2.9m-1.5-29.4v11.3m0 15.1v3.1m-1.4-30.3v12.1m0 14.9v3.5m-1.5-31.2v12.8m0 15.2v3.3m-1.4-32v13.5m0 14.8v3.7m-1.4-32.5v14m0 14.9v3.7m-1.5-33v14.4m0 14.9v3.7m-1.3-33.6v15m0 14.8v3.8m-1.6-34.1v15.5m0 14.8v3.7m-1.3-34.7v16.2m0 14.8v3.6m-1.4-35.3v16.9m0 14.8v3.3m-1.5-35.7v17.6m0 15.2v2.6m-1.4-36.1v18.1m0 15.4v2.3m-1.4-36.4v18.7m0 15.5v2m-1.5-36.8v19.3m0 15.8v2.3m-1.3-37.9v19.6m0 15.9v2.9m-1.5-39v19.9m0 16.6v2.5m-1.4-40v20.8m0 16.8v2.1m-1.4-42.3v8m0 22.5v11.5m0-28.4v16.9m-1.5-9.1v2.9m0 9.6v6.3m41.3-19.5v12.7m0.1 5.9l-0.1 3.5m1.5-21.8v2.4m0 16.8v2.6m1.4-21.4v2.1m0 16.4v2.9m1.5-21.1v2.1m0 15.9v3m1.4-20.7v2m0 15.7v3m1.3-20.6v1.9m0 15.5v3.2m1.5-20.3v1.6m0 15.4v3.2m1.4-20.1v1.7m0 15.1v3.1m1.4-19.9v1.7m0 14.8v3.4m1.5-19.7v1.5m0 14.8v3.3m1.4-19.6v1.5m0 14.8v3.1m1.5-19.4v1.5m0 14.8v3.1m1.3-19.6v1.7m0 14.9v2.9m1.4-19.5v1.7m0 14.9v2.4m1.5-19.1v1.8m0 14.9v2.6m1.4-19.3v1.8m0 15.1v2.8m1.4-19.8v1.9m0 15.1v3.3m1.5-20.5v2.1m0 15.1v3.4m1.3-20.6v1.8m0 15.5v3.4m1.5-20.7v1.8m0 15.6v3.3m1.4-20.8v1.8m0 15.7v3.2m1.4-20.7v1.8m0 15.7v3.1m1.5-20.6v1.8m0 15.6v2.9m1.4-20.3v1.5m0 16.4v1.8m1.5-19.6v1.1m0 16.9v1.9m1.4-19.9v1m0 17v2.5m1.3-20.5v6.2m0 11v3.5m1.5-19.9v6.8m-51.8-1.5l0.9-0.2 1-0.3 0.7-0.2 0.7-0.2 0.5-0.2 0.4-0.3 0.5-0.2 0.4-0.2 0.4-0.3 0.2-0.1 0.3-0.2 0.3-0.3 0.3-0.1 0.1-0.1h0.3v-0.2h0.1 0.2v0.2 0.1l-0.2 0.1v0.3 0.2 0.1 0.3 0.2 0.2 0.3 0.4 0.2l0.2 0.5 0.1 0.2v0.4l0.1 0.5 0.2 0.5 0.1 0.4 0.1 0.6 0.2 0.5m19.5 0.8l0.2 0.2 0.3 0.2 0.3 0.2 0.1 0.1 0.2 0.2 0.2 0.1 0.2 0.1 0.1 0.2 0.1 0.1 0.2 0.1 0.1 0.2 0.2 0.1v0.3l0.1 0.1 0.1 0.2 0.2 0.1 0.1 0.1 0.1 0.2v0.2l0.2 0.2 0.1 0.1 0.1 0.2v0.2l0.2 0.2 0.1 0.1v0.3l0.2 0.1 0.1 0.2v0.1l0.1 0.1v0.2h0.2 0.1 0.1v-0.2-0.1h0.2v-0.1l0.1-0.2v-0.1-0.2l0.2-0.1v-0.1-0.3l0.1-0.1v-0.2l0.1-0.1v-0.2-0.1l0.2-0.3v-0.1l0.1-0.1v-0.2l0.1-0.1v-0.1l0.2-0.2h0.1v-0.1l0.2-0.2 0.1-0.1h0.1v-0.1l0.2-0.2 0.1-0.1 0.1-0.3 0.3-0.3 0.4-0.5 0.4-0.7m-61.8-1.5l-0.6 2.5-0.9 2.2v2.4 2.5l0.7 2.3 3 0.9h2.9l2.4-1.3 1.4-1.1m-1.8 1.3l1.2 0.2 2.8 0.6 1.9 0.3 2.6 0.2h2.6l4.1-0.1 3.5-0.4 3-0.7 2.3-0.7m-1.8 0.4l2.2 0.7 1.8 0.7h2.9l2.9 0.1h3l4.8-0.1 6-0.4 4.4-0.3 2.5-1.1m-59.4-9.7l-0.4-1.1-0.4-1.3-0.2-0.9-0.4-1-0.3-1.8-0.1-2.4 0.1-1.8v-2.2l0.3-2.6 0.8-1.7 0.7-1.9 0.3-1.5m57.5 30.3l1.1 0.3 1.1 0.4 0.9 0.1 0.8 0.3 0.9 0.2 0.7 0.1h0.6l0.6 0.1h0.7 0.5 0.6 0.5 0.4 0.6l0.5-0.1h0.4l0.6-0.1h0.5l0.6-0.2 0.5-0.1 0.7-0.3 0.7-0.4 0.8-0.4 1-0.6m-1.8 1l0.4 0.1 0.6 0.2 0.4 0.2 0.4 0.2 0.4 0.1 0.4 0.2 0.4 0.1h0.3l0.3 0.1h0.4 0.3 0.2l0.2-0.1 0.2-0.1 0.2-0.2 0.1-0.1v-0.3l0.2-0.3v-0.2-0.5-0.4-0.2l-0.2-0.5v-0.4l-0.1-0.4v-0.4l-0.2-0.4v-0.4l-0.1-0.4-0.1-0.3v-0.4l-0.2-0.4v-0.4l-0.1-0.4v-0.5l-0.1-0.5-0.2-0.5v-0.6l-0.1-0.7-0.2-0.7m0.7 3.6l0.4-4 1-3.1v-2.8l-0.7-5.3-0.7-5-0.7-2.8-0.4-2.8-0.2-2.2m1.7 8.5l0.3-3.5v-2.1l-0.3-4.7 0.3-3.4-0.3-2.9-0.6-3.1 0.2-2.2m-1.7 1.5l1.5-1.5 0.9-1.4-0.3-2.7-0.4-4.7 0.4-2.7-0.4-2.9-0.7-2.9-0.6-2.5m-75.6 38.8v-4.1l-1.1-3.9v-2.8-3.3l1.5-4.9 0.7-2.1m-1.8 5.4v-1.8l-0.4-2.5-0.7-2.4-0.3-2.5-0.4-4.3 0.7-3.9v-5.3l0.7-4.2 1.5-2.9m37.7 52.3l-1.1-0.6-0.9-0.5-0.7-0.6-0.7-0.4-0.6-0.3-0.5-0.2-0.4-0.3-0.4-0.3-0.4-0.1-0.5-0.3-0.4-0.1-0.5-0.2-0.4-0.1-0.6-0.2-0.5-0.2-0.6-0.2-0.5-0.2-0.6-0.3-0.5-0.3-0.7-0.3-0.5-0.2-0.6-0.4-0.7-0.3-0.5-0.3-0.6-0.4-0.5-0.3-0.4-0.3-0.6-0.2-0.4-0.3-0.5-0.1-0.5-0.3-0.5-0.3-0.4-0.1-0.6-0.3-0.4-0.1-0.5-0.3-0.6-0.1-0.4-0.2-0.4-0.1-0.4-0.2-0.4-0.1-0.4-0.1-0.4-0.2-0.5-0.1-0.4-0.1-0.4-0.2-0.4-0.1-0.4-0.3-0.6-0.3-0.6-0.2-0.6-0.3-0.5-0.4-0.7-0.3-0.7-0.4-0.6-0.3-0.6-0.3-0.6-0.2-0.7-0.3-0.5-0.3-0.6-0.1-0.4-0.2-0.5-0.2-0.4-0.2-0.6-0.1-0.3-0.1-0.4-0.2-0.4-0.1-0.3-0.2-0.2-0.1-0.3-0.1-0.3-0.3-0.3-0.1-0.1-0.2-0.3-0.1-0.1-0.2-0.1-0.1-0.2-0.3-0.1-0.1-0.2-0.3v-0.1l-0.1-0.2v-0.2-0.2-0.2-0.3l0.1-0.1v-0.3l0.2-0.2 0.1-0.2 0.3-0.3 0.1-0.1 0.3-0.3 0.1-0.2 0.3-0.2 0.3-0.2 0.3-0.2 0.1-0.2 0.3-0.3 0.2-0.1 0.2-0.1 0.3-0.3 0.2-0.1 0.2-0.3 0.2-0.1 0.3-0.3 0.2-0.3 0.2-0.3 0.2-0.2 0.2-0.3 0.2-0.3 0.3-0.3 0.2-0.4 0.2-0.4 0.2-0.4 0.2-0.4 0.1-0.7 0.3-0.5 0.1-0.9 0.2-0.9 0.1-1.1m1.1 0l-0.4 1.3 0.7 1.4 1.5 2.2 2.4 2.1 2.8 1.5m-2.1-0.8l3.2 3.5 4.9 3.6 2.9 1.8 4.1 4.9 3.3 3.6 3.4 3.4 2.9 2.9m-0.4-0.3l2.6 0.7 2.3 0.5 2.1 0.4 1.8 0.3 1.6 0.3 1.5 0.1h1.4l1.4 0.2h1.2 1.3l1.2-0.2h1.2 1.3l1.2-0.1h1.4l1.2-0.1 1.2-0.2h1.5 1.5l1.7-0.1h2.1 2.3l2.6 0.1 3 0.2m-73.9 17.1l-1.1 0.4-1.4 0.4h-1.4l-0.8-0.8 0.2-1.4 0.5-1.2 0.4-1.1m-0.4 1.8l-0.3-1.8-0.1-1.1-0.3-1.9v-1.4-1.8l0.2-1.5 0.4-1.2 0.2-1.1m0.2 1.8l-0.2-1-0.4-1.1v-1.4l0.9-0.6 0.9-0.2 1.2 0.4 1.4 0.3 1.3 0.4 0.8 0.4 0.5 0.3m-3.3-1h4.1l1.8 0.2h2.5 2.7 1.8 2.2 2.2 2.3l2.4-0.3 2.7-0.1 3 0.1m-2.8 0.8l0.4-0.1 0.4-0.1 0.4-0.2 0.4-0.1 0.3-0.2 0.4-0.1 0.3-0.1h0.2l0.4-0.2h0.3l0.2-0.1h0.2l0.3-0.1h0.3l0.3-0.2h0.1 0.3 0.2l0.3-0.1h0.2 0.2 0.3 0.1 0.3l0.2 0.1h0.1 0.1l0.2 0.2h0.1l0.1 0.1h0.2v0.1l0.1 0.2v0.1l0.1 0.1v0.2 0.1 0.2 0.2 0.2 0.2l-0.1 0.2v0.2l-0.1 0.2-0.2 0.3-0.1 0.2-0.1 0.3-0.3 0.3m0.5-1.3l0.4 2 0.3 3.1 0.2 1.9-0.5 2-0.4 1.1-0.4 0.8m-32.3 3.3l1.7 0.1 1.8-0.4h1.9l2.1-0.4 1.8-0.6m-1.9 0.6h2.6 1.9l1.9 0.1 2.2-0.1 1.4 0.4 1.9-0.3 1.9 0.3h1.8l1.5 0.1 1.4 0.2h2.7m-2.3-1l1.4 0.7 1.2 0.5 2.1 0.3 1.5-0.1 0.8-0.7 0.3-1.2-0.2-0.9-0.3-0.8-0.2-1.6m7.5 4.5l-0.4 0.1-0.3 0.2-0.4 0.1-0.3 0.1h-0.2l-0.2 0.2h-0.2-0.3-0.2l-0.2 0.1h-0.2-0.1l-0.3-0.1h-0.1-0.1-0.2l-0.1-0.2h-0.2l-0.1-0.1v-0.1h-0.1l-0.2-0.2v-0.1-0.1l-0.1-0.2v-0.1-0.1-0.2-0.1l0.1-0.3v-0.1-0.3l0.2-0.1v-0.3l0.1-0.2 0.1-0.2v-0.3l0.2-0.4 0.1-0.3 0.2-0.4m-0.2 1.8l-0.4-1.8-0.1-1.1-0.3-1.9v-1.4-1.8-1.5l0.5-1.2 0.2-1.1m0.3 1.8l-0.3-1-0.3-1.1v-1.4l0.7-0.6 0.9-0.2 1.3 0.4 1.5 0.3 1.1 0.4 0.8 0.4 0.7 0.3m-3.4-1h1.5 1.1 0.8 0.8 0.6l0.4 0.2h0.4 0.3 0.4 0.3 0.2 0.4 0.3 0.3 0.4 0.3 0.2 0.5 0.2 0.3 0.4 0.3 0.3 0.4 0.3 0.2 0.2 0.2 0.3 0.3 0.1 0.3 0.3 0.2 0.3 0.3 0.3 0.2 0.3 0.3 0.3 0.2 0.3 0.3 0.3 0.2 0.3 0.3 0.3 0.2 0.3 0.3 0.3 0.2 0.4 0.3 0.3 0.3l0.2-0.2h0.3 0.4 0.3l0.4-0.1h0.3 0.5 0.4l0.6-0.1h0.7 0.8 1 1.1l1.3 0.1m-3.7 0.8l0.4-0.1 0.5-0.1 0.2-0.2 0.4-0.1 0.5-0.2 0.2-0.1 0.4-0.1h0.3l0.3-0.2h0.3l0.2-0.1h0.3l0.3-0.1h0.1l0.3-0.2h0.3 0.2 0.2l0.3-0.1h0.2 0.3 0.1 0.3 0.2l0.1 0.1h0.3 0.1l0.1 0.2h0.2v0.1h0.1l0.1 0.1v0.2l0.2 0.1v0.1l0.1 0.2v0.1 0.2 0.2 0.2l-0.1 0.2v0.2l-0.2 0.2v0.2l-0.1 0.3-0.1 0.2-0.3 0.3-0.1 0.3m0.5-0.8l0.4 1.5 0.2 3.1 0.1 1.9-0.3 2-0.4 1.1-0.4 0.8m-6.2 2.3l0.6 0.3 0.4 0.1 0.4 0.3 0.3 0.1 0.2 0.2h0.3l0.3 0.1 0.3 0.1h0.2 0.3l0.2 0.2h0.2 0.3 0.3 0.1 0.3 0.3 0.1 0.1 0.3 0.2 0.1 0.3l0.1-0.2h0.1 0.2l0.1-0.1v-0.1h0.1l0.2-0.2v-0.1h0.1v-0.1l0.2-0.2v-0.1-0.1l0.1-0.2v-0.1-0.2-0.1-0.1-0.2-0.1-0.1-0.2l-0.1-0.1v-0.2-0.1-0.1l-0.2-0.2v-0.1l-0.1-0.3v-0.4l-0.2-0.4-0.1-0.6-0.1-0.5m-26.2 4.4h1.2 1 0.8 0.7 0.4 0.5 0.3 0.3 0.4 0.3l0.3 0.1h0.1 0.3 0.2 0.3 0.3 0.3 0.2 0.2 0.2 0.3 0.3 0.3 0.1 0.3 0.1 0.3 0.1l0.3 0.2h0.1 0.3 0.2 0.2 0.2 0.2 0.3 0.1 0.3 0.3 0.1 0.3 0.3 0.3 0.2 0.2l0.2 0.1h0.3 0.3 0.1 0.3 0.1 0.3 0.3 0.1 0.3 0.1l0.3 0.1h0.1 0.3 0.2 0.2 0.2 0.2 0.2 0.3 0.2 0.3 0.4 0.6 0.7l0.8-0.1 0.9-0.1m-28.8 0.4h0.6 0.5 0.4 0.5 0.4l0.4-0.2h0.3 0.2 0.3 0.4l0.3-0.1h0.3 0.2 0.3 0.3 0.3l0.4-0.1h0.2l0.5-0.2h0.4l0.4-0.1 0.5-0.1 0.6-0.2 0.7-0.3m15.9-21.2l-0.6-0.3-0.4-0.4-0.4-0.3-0.4-0.4-0.4-0.3-0.4-0.4-0.3-0.2-0.4-0.3-0.3-0.4-0.4-0.3-0.3-0.1-0.4-0.3-0.3-0.3-0.4-0.1-0.4-0.3-0.3-0.3-0.4-0.1-0.5-0.3-0.4-0.1-0.6-0.3-0.5-0.1-0.6-0.2h-0.7l-0.7-0.1m10.5 6.3l-1.8-2.1-0.4-2.4v-3.5l0.4-2.4 1.4-2.5m-1.8 10.4l-1.7-2.9-0.8-3-0.4-1.2m12.7-63.4l1.4-1.7 0.4-1.6v-3.4l-0.4-2.4-1.8-0.9-2.4 0.4-1.8 1.1-0.7 0.3m-71.3 13.5l-0.7-3.6v-3.4l-0.3-4 0.7-2.5 2.1-2h3.1l2.5 1.1 1.8 1.6m-1.4-1l2.9-1.1h3.8l5-0.4 3.5 0.9 2.5 0.9m-2.5 1.1l2.8-1.8 4.2-0.7 4.3-0.6h4.6l3.9 0.2 3.5 0.4 3.2 0.7 3.1 1.1 2.9 1.1 1.7 1m-5.2-2.5l0.6-0.3 4.6-0.6 3.5-0.5 5-0.4 4.6 0.4 2.1 0.7m-4.8 5.1l-4.1 4.3-4.5 2.8-7.2 4.3-8.8 1.6-5 2.1m39.1 22.2l0.2-2.5 0.7-3.8 0.4-3.6-0.7-6.3v-4l0.3-3.8-0.7-4.2-0.2-3.2-0.5-2.1-0.4-1.5m-75.1 26.9l-1.4-3.1-0.4-3.2v-3.6l-0.3-3.5v-4.3l1.4-2.7 1.1-1.5m66.1-7.3l-2.1 3.4-2 6.6-1.7 7.6-0.8 10 0.8 5"/>
		<path id="Path 26" class="s0" d="m1051.5 1089.7v6.9h-25.7v-6.9zm111.1 0v6.9h-25.6v-6.9z"/>
		<path id="Path 27" class="s1" d="m1053.8 1089.7v1.9m80.8 0v2.1m-40.3-4h-40.5m80.8 1.9h-80.8m80.8 2.1h2.3m-2.3-4h2.3m-83.1 0h-2.3m2.3 1.9v2.1h-2.3m83.1-2.1v-1.9m-40.3 4h40.3"/>
		<path id="Path 28" class="s2" d="m1094.3 1089.7h40.3m-40.3 4h-40.5"/>
		<path id="Path 29" class="s1" d="m1094.3 1089.7v4"/>
		<path id="Path 30" class="s2" d="m1136.9 1096.6h-85.4"/>
		<path id="Path 31" class="s4" d="m937.8 1243.3c-0.6 0-1.1 0.5-1.1 1.2m0-15.9c0 0.6 0.5 1.1 1.1 1.1m-0.9 2.3c0-0.3-0.2-0.5-0.4-0.5-0.3 0-0.5 0.2-0.5 0.5 0 0.3 0.2 0.5 0.5 0.5 0.2 0 0.4-0.2 0.4-0.5zm-4.1 1.8c0-2.6-2-4.6-4.6-4.6m-8.2 0c-2.2 0-4.1 1.5-4.5 3.7m4.5-6.2c-3.4 0-6.2 2.4-6.9 5.7m6.8-5.7h10.9m-10.9 2.5h16.6m0.2-0.8c0-1-0.9-1.8-1.9-1.8m-4 0.1h4m1.7 1.8v0.1m-23.4 12.2c0.7 3.3 3.5 5.7 6.9 5.7m-0.1 0.1h10.9m5.7-2.6h-16.6m-4.3-11.2c-0.4 2.4-0.4 5 0 7.5m-2.5-8c-0.6 2.8-0.6 5.7 0 8.5m2.4-0.5c0.4 2.1 2.3 3.7 4.5 3.7m12.8-10.2v5.7m-8.6 0c1.5-0.3 2.5-1.5 2.6-3m0 0c-0.1-1.5-1.1-2.7-2.6-3m0.1 0q0 0 0 0m3.9 10.5c2.6 0 4.6-2.1 4.6-4.6m-8.5 0.3q0 0 0 0m12.6 1.5c0-0.3-0.2-0.5-0.4-0.5-0.3 0-0.5 0.2-0.5 0.5 0 0.2 0.2 0.5 0.5 0.5 0.2 0 0.4-0.3 0.4-0.5zm-0.4 3.6v-0.3m-1.7 2.1c1 0 1.9-0.8 1.9-1.9m-5.9 1.9h4m7.8-18.2q-0.3 4-0.3 8.1m-1.8-8.3q-0.3 4.2-0.3 8.3m9.8-10.9v22m0-19.9h-6.7m6.7-2.1h-6.7m0 0c-1.5 0-2.7 1.1-2.8 2.6m2.8-0.5c-0.4 0-0.7 0.3-0.7 0.7m-4.8 1.3h2.4m0.3 15.1c0.1 1.5 1.3 2.6 2.8 2.6m-1-10.9q0 4.1 0.3 8.2m-2.4-8.2q0 4.2 0.3 8.3m9.5 0.7h-6.7m-0.7-0.8c0 0.4 0.3 0.7 0.7 0.7m-5.5-2h2.4m9.8 4.2h-6.7m6.7 18c0-2-1.7-3.6-3.7-3.6m0 19.8c2 0 3.7-1.6 3.7-3.6m-23.1-13.6h11.7m-11.7-2.6h10m-6.5 4.2c-2.5 0-4.7 1.9-5.1 4.5m5.1-4.1c-2.3 0-4.3 1.8-4.7 4.1m12.9 8.7h-11.7m0 2.6h19.4m-21-8.9c0.4 2.6 2.6 4.5 5.1 4.5m-4.7-4.5c0.4 2.3 2.4 4.1 4.7 4.1m-5.1-5.3q0 0.6 0.1 1.2m0.3-1.2q0 0.6 0.1 1.2m-5.8-5.5c-0.6 2.8-0.6 5.7 0 8.6m2.5-8c-0.5 2.4-0.5 5 0 7.4m4.5-13.6c-3.4 0-6.3 2.3-6.9 5.6m6.9-3.2c-2.2 0-4.1 1.6-4.5 3.7m2.9 2.5q-0.1 0.7-0.1 1.3m0.5-1.2q-0.1 0.6-0.1 1.2m-5.6 4.3c0.6 3.3 3.5 5.6 6.9 5.6m-4.5-6.1c0.4 2.1 2.3 3.7 4.5 3.7m18.5-6.3q0.1-0.6 0.1-1.2m-0.5 1.2q0.1-0.6 0.1-1.2m-3.7 1.3c-0.7 0-1.3-0.6-1.3-1.3 0-0.7 0.6-1.3 1.3-1.3 0.8 0 1.3 0.6 1.3 1.3 0 0.7-0.5 1.3-1.3 1.3zm1.7-2c-0.3-0.8-1.2-1.3-2-1.1-0.9 0.2-1.5 0.9-1.5 1.8 0 0.9 0.6 1.6 1.5 1.8 0.8 0.2 1.7-0.3 2-1.1m5.7-0.7c0-0.6-0.5-1-1.1-1-0.5 0-1 0.4-1 1 0 0.6 0.5 1 1 1 0.6 0 1.1-0.4 1.1-1zm-18.5-5.6h10m-10 0.5h10m-3.5-4.8h9.4m-15.5 9.9c0-0.4-0.4-0.8-0.8-0.8-0.4 0-0.7 0.4-0.7 0.8 0 0.4 0.3 0.7 0.7 0.7 0.4 0 0.8-0.3 0.8-0.7zm11.8-5.3c-0.9-1.4-2.4-2.2-3.9-2.2m6.8 6.3c-0.3-2.6-2.5-4.5-5.1-4.5m4.7 4.5c-0.3-2.3-2.3-4.1-4.7-4.1m2.8 6c0.2-0.4 0.2-1 0-1.4m3.5-4.7c0-0.5-0.5-1-1-1-0.6 0-1.1 0.5-1.1 1 0 0.6 0.5 1.1 1.1 1.1 0.5 0 1-0.5 1-1.1zm-1.5 5.4q0-0.6-0.1-1.2m0.5 1.2q0-0.6-0.1-1.3m3.2-2.5c0-0.3-0.2-0.5-0.4-0.5-0.3 0-0.5 0.2-0.5 0.5 0 0.2 0.2 0.4 0.5 0.4 0.2 0 0.4-0.2 0.4-0.4zm-18.3 9.6h10m-10-0.5h10m0 0.4c2.6 0 4.8-1.9 5.1-4.5m-5.1 4.1c2.4 0 4.4-1.8 4.7-4.1m-6.4 6.3c1.5 0 3-0.9 3.9-2.2m4.1 0c0-0.5-0.5-1-1-1-0.6 0-1.1 0.5-1.1 1 0 0.6 0.5 1.1 1.1 1.1 0.5 0 1-0.5 1-1.1zm3.3-11.5v12.6m-101.9-59.3h102.6m-102.6 1.1h102.6m-8.5-25.2h8.5m-8.5 1.2h8.5m-6.9-1.3c-0.3-0.7-1.1-1.1-1.9-1-0.8 0.2-1.4 0.9-1.4 1.8 0 0.8 0.6 1.5 1.5 1.6 0.8 0.1 1.6-0.3 1.8-1.1m-1.6-1.3c-0.2 0.2-0.3 0.5-0.3 0.7 0 0.3 0.1 0.5 0.3 0.7m1.5-1.4c-0.3-1.8-2-3-3.8-2.8-1.8 0.2-3.1 1.8-3.1 3.6 0.1 1.8 1.5 3.3 3.3 3.4 1.8 0.1 3.4-1.2 3.7-2.9"/>
		<path id="Path 32" class="s0" d="m950.7 1296.4v6.8h-34.2v-6.8zm-102.6-95.6v136.6h-6.8v-136.6zm109.4-34.2v136.6h-6.8v-136.6zm-109.5 0v34.2h-6.9v-34.2zm102.6 0v6.8h-34.1v-6.8zm-98.6 129.8v6.8h-4v-6.8zm64.5 0v6.8h-18.8v-6.8zm246 39.3v34.2h-6.8v-34.2z"/>
		<path id="Path 33" class="s4" d="m1162.6 1337.4h-205.1"/>
		<path id="Path 34" class="s0" d="m1066.8 1294.6v6.8h-34.1v-6.8zm34.1 0v6.8h-34.1v-6.8zm34.3 0v6.8h-34.3v-6.8zm-102.6 0v6.8h-34.2v-6.8zm-75.1 42.8v34.3h-6.9v-34.3z"/>
		<path id="Path 35" class="s4" d="m950.7 1337.4h-102.6m102.6-134.4v82.7m-1.3 1.2c0.7 0 1.3-0.6 1.3-1.3m0-82.7c0-0.7-0.6-1.3-1.3-1.3"/>
		<path id="Path 36" class="s0" d="m916.5 1166.6v6.8h-34.3v-6.8zm-34.3 0v6.8h-34.1v-6.8zm-34.2 170.8v34.3h-6.8v-34.3z"/>
		<path id="Path 37" class="s1" d="m853.6 1300.5v-4.1m0 2h2.8m41.3-2v4.1h-1.5v-4.1zm-44.2 4.1h-1.5m1.5-4.1h-1.5m1.5 2v-42.8m2.9 42.8v-42.8m-2.9 0h2.9m39.9 40.7c0.2-22.2-17.6-40.4-39.8-40.7m-3 42.8h42.7"/>
		<path id="Path 38" class="s0" d="m848.1 1162.5v4.1h-6.9v-4.1zm0-64.3v18.8h-6.8v-18.8z"/>
		<path id="Path 39" class="s1" d="m844.1 1118.5h4m-2 0v2.8m2 39.9v1.3h-4v-1.3zm-4-42.7v-1.5m4 1.5v-1.5m-1.9 1.5h42.6m-42.6 2.8h42.6m0-2.8v2.8m-40.5 39.7c22.2 0.2 40.4-17.6 40.7-39.8m-42.8-2.7v42.7"/>
		<path id="Path 40" class="s0" d="m588.4 1371.7v6.7h-34.1v-6.7z"/>
		<path id="Path 41" class="s4" d="m751.7 1294.7c0.7 0 1.2-0.5 1.2-1.1m0 15.9c0-0.7-0.5-1.2-1.2-1.2m0.9-2.3c0 0.3 0.2 0.5 0.5 0.5 0.3 0 0.5-0.2 0.5-0.5 0-0.2-0.2-0.4-0.5-0.4-0.3 0-0.5 0.2-0.5 0.4zm4-1.6c0 2.5 2 4.6 4.6 4.6m8.3 0c2.2 0 4.1-1.6 4.6-3.7m-4.6 6.2c3.4 0 6.3-2.4 7-5.7m-7 5.8h-10.9m10.9-2.6h-16.8m0.2 0.6c0 1 0.8 1.9 1.8 1.9m3.9 0.1h-3.9m-2-1.9v-0.2m23.8-12.3c-0.7-3.3-3.6-5.6-7-5.6m0 0h-10.9m-5.9 2.6h16.8m4.4 11.1c0.5-2.5 0.5-5.1 0-7.5m2.6 8c0.5-2.8 0.5-5.7 0-8.5m-2.4 0.4c-0.5-2.1-2.4-3.7-4.6-3.7m-12.9 10.5v-5.8m8.6-0.2c-1.4 0.3-2.5 1.5-2.6 3m0 0c0.1 1.5 1.2 2.7 2.6 3m0.1 0.1q0 0 0 0m-4.1-10.6c-2.6 0-4.6 2.1-4.6 4.6m8.7-0.3q0 0 0 0m-12.7-1.3c0 0.3 0.2 0.5 0.5 0.5 0.3 0 0.5-0.2 0.5-0.5 0-0.3-0.2-0.5-0.5-0.5-0.3 0-0.5 0.2-0.5 0.5zm0.1-3.6v0.2m2-2.2c-1 0-1.8 0.9-1.8 1.9m5.7-1.7h-3.9m-7.7 18.1q0.3-4.1 0.3-8.2m1.7 8.3q0.3-4.1 0.3-8.3m-10 11.1v-22m0 19.9h6.9m-6.9 2.1h6.9m0-0.2c1.5 0 2.7-1.1 2.8-2.6m-2.8 0.6c0.4 0 0.8-0.3 0.8-0.7m4.7-1.3h-2.5m-0.2-15.2c-0.1-1.4-1.3-2.6-2.8-2.6m1.1 10.9q0-4.1-0.3-8.1m2.3 8.1q0-4.1-0.3-8.3m-9.7-0.5h6.9m0.8 0.7c0-0.4-0.4-0.7-0.8-0.7m5.5 2h-2.5m-9.9-4.1h6.9m-6.6-18.2c0 2 1.6 3.7 3.6 3.7m0-19.9c-2 0-3.6 1.6-3.6 3.6m22.9 13.8h-11.7m11.7 2.6h-10m6.6-4.4c2.6 0 4.8-1.9 5.1-4.4m-5.1 4c2.4 0 4.4-1.7 4.7-4.1m-13-8.5h11.7m0-2.6h-19.4m21.1 8.7c-0.3-2.6-2.5-4.5-5.1-4.5m4.7 4.6c-0.3-2.4-2.3-4.1-4.7-4.1m5.2 5.2q0-0.6-0.1-1.2m-0.3 1.2q0-0.6-0.1-1.2m5.8 5.5c0.6-2.8 0.6-5.7 0-8.5m-2.6 8c0.5-2.5 0.5-5 0-7.5m-4.4 13.7c3.3 0 6.2-2.4 6.9-5.7m-6.9 3.2c2.1 0 4-1.5 4.5-3.7m-2.9-2.5q0.1-0.6 0.1-1.3m-0.5 1.2q0.1-0.6 0.1-1.2m5.6-4.2c-0.7-3.3-3.6-5.7-6.9-5.7m4.5 6.1c-0.5-2.1-2.4-3.6-4.5-3.6m-18.5 6.2q-0.1 0.6-0.1 1.2m0.5-1.2q-0.1 0.6-0.1 1.2m3.6 1.3c-0.7 0-1.3-0.5-1.3-1.3 0-0.7 0.6-1.3 1.3-1.3 0.7 0 1.3 0.6 1.3 1.3 0 0.8-0.6 1.3-1.3 1.3zm-1.7-0.6c0.3 0.9 1.2 1.3 2.1 1.2 0.8-0.2 1.5-1 1.5-1.9 0-0.8-0.7-1.6-1.5-1.8-0.9-0.2-1.8 0.3-2.1 1.1m-5.6 0.7c0 0.6 0.4 1.1 1 1.1 0.6 0 1-0.5 1-1.1 0-0.5-0.4-1-1-1-0.6 0-1 0.5-1 1zm18.4 5.9h-10.1m10.1-0.6h-10.1m3.5 4.8h-9.4m15.5-10.1c0 0.5 0.4 0.8 0.8 0.8 0.4 0 0.8-0.3 0.8-0.8 0-0.4-0.4-0.7-0.8-0.7-0.4 0-0.8 0.3-0.8 0.7zm-11.6 5.3c0.8 1.4 2.3 2.2 3.9 2.2m-6.9-6.2c0.4 2.5 2.5 4.4 5.1 4.4m-4.7-4.5c0.3 2.4 2.3 4.1 4.7 4.1m-2.8-6c-0.2 0.5-0.2 1 0 1.4m-3.4 4.8c0 0.6 0.4 1 1 1 0.6 0 1-0.4 1-1 0-0.5-0.4-1-1-1-0.6 0-1 0.5-1 1zm1.5-5.5q0 0.6 0.1 1.2m-0.5-1.2q0 0.7 0.1 1.3m-3.3 2.6c0 0.2 0.2 0.5 0.5 0.5 0.3 0 0.5-0.3 0.5-0.5 0-0.3-0.2-0.5-0.5-0.5-0.3 0-0.5 0.2-0.5 0.5zm18.3-9.4h-10.1m10.1 0.4h-10.1m0.1-0.6c-2.6 0-4.7 1.9-5.1 4.5m5.1-4c-2.4 0-4.4 1.7-4.7 4.1m6.5-6.3c-1.6 0-3.1 0.8-3.9 2.1m-4.1 0c0 0.6 0.4 1 1 1 0.6 0 1-0.4 1-1 0-0.6-0.4-1-1-1-0.6 0-1 0.4-1 1zm-3.5 11.7v-12.6m0.5-14.7h14.6m-13.8-2.6h14.2m-14.2-29.5h14.2m-15-2.6h14.6m11.1 17.2q0.1-3.8-0.2-7.6m-2.5 7.6q0.1-3.7-0.3-7.3m-16 7.4v-11.8m18.7 4.1c-0.5-5.5-5.2-9.7-10.7-9.7m8.1 10c-0.4-4.2-3.9-7.4-8.1-7.4m-5.1 0c-1.6 0-2.9 1.3-2.9 2.9m18.8 19.5q0.3-3.8 0.2-7.6m-19 0v11.8m8 2.9c4.2 0 7.7-3.2 8.1-7.4m-0.1 0q0.4-3.7 0.3-7.3m-0.2-0.3q0-0.1 0-0.1m0.1 0.2q-0.1 0-0.1-0.1m0.1 0.2q0-0.1 0-0.1m0 0.3q0-0.1 0-0.2m-0.1 0.4q0-0.1 0.1-0.1m-0.1 0.2q0 0 0-0.1m-0.2 0q0 0.1 0 0.1m0-0.2q0 0 0 0.1m0-0.4q0 0.1 0 0.2m0-0.3q0 0 0 0.1m0-0.2q0 0.1 0 0.1m0-0.2q0 0 0 0.1m0.2-3q0 0 0-0.1m0 0q0-0.1 0.1-0.1m0 0.1q0-0.1 0-0.2m0 0q0-0.1 0-0.2m0-0.1q-0.1 0-0.1-0.1m0 0q0-0.1 0-0.1m-0.2 0q0 0 0 0.1m0 0q0 0.1 0 0.1m0 0.1q0 0.1 0 0.2m0 0q0 0.1 0 0.2m0-0.1q0 0 0 0.1m0 0q0 0.1 0 0.1m0.2 6.6q0-0.1 0-0.2m0.1 0.3q-0.1-0.1-0.1-0.1m0.1 0.3q0 0 0-0.1m0 0.3q0-0.1 0-0.2m-0.1 0.3q0-0.1 0.1-0.2m-0.1 0.3q0 0 0-0.1m-0.2 0q0 0.1 0 0.1m0-0.3q0 0.1 0 0.2m0-0.3q0 0.1 0 0.2m0-0.3q0 0.1 0 0.1m0-0.3q0 0 0 0.1m0-0.3q0 0.1 0 0.2m-12.7-2.1c-0.7 0-1.3-0.5-1.3-1.3 0-0.7 0.6-1.3 1.3-1.3 0.7 0 1.3 0.6 1.3 1.3 0 0.8-0.6 1.3-1.3 1.3zm4.8 16.1c5.5 0 10.2-4.2 10.7-9.7m-18.7 4.1c0 1.7 1.3 3 2.9 3m-9.9-14.7v-17m0.8 17v-9.6m0 7.7v-12.6m-0.5-2.9c-0.2 0-0.3 0.1-0.3 0.3m1.1 2.3c-0.1 0-0.2 0.1-0.2 0.2m3.3 7.7c0.5 0 1-0.4 1-1 0-0.5-0.5-1-1-1-0.6 0-1.1 0.5-1.1 1 0 0.6 0.5 1 1.1 1zm-3.4 6.9v14.5m-0.8-14.5v17.1m4.2-8.3c0.5 0 1-0.5 1-1 0-0.6-0.5-1.1-1-1.1-0.6 0-1.1 0.5-1.1 1.1 0 0.5 0.5 1 1.1 1zm-3.4-6.9v7.7m2.7-8.6c0.5 0 1-0.5 1-1.1 0-0.5-0.5-1-1-1-0.6 0-1.1 0.5-1.1 1 0 0.6 0.5 1.1 1.1 1.1zm-2.6 13.5c0 0.1 0.1 0.2 0.2 0.2m-1.1 2.4c0 0.2 0.1 0.3 0.3 0.3m101.3 74.1h-102.4m102.4-1.3h-102.4m8.5 25.3h-8.5m8.5-1.3h-8.5m6.9 1.2c0.4 0.7 1.2 1.2 2 1 0.8-0.2 1.4-0.9 1.3-1.7 0-0.8-0.6-1.5-1.4-1.7-0.8-0.1-1.6 0.4-1.9 1.1m1.7 1.3c0.2-0.2 0.3-0.4 0.3-0.7 0-0.2-0.1-0.5-0.3-0.7m-1.7 1.4c0.4 1.8 2 3 3.8 2.8 1.8-0.2 3.2-1.8 3.1-3.6 0-1.8-1.5-3.3-3.3-3.4-1.8-0.1-3.4 1.2-3.6 3"/>
		<path id="Path 42" class="s0" d="m772.9 1200.8v6.8h-34.1v-6.8zm-34.2 0v136.6h-6.9v-136.6zm0 136.6v34.3h-6.8v-34.3z"/>
		<path id="Path 43" class="s1" d="m793.2 1203.5v4.1m0-2h2.8m41.2-2.1v4.1h-1.3v-4.1zm-44.1 0h-1.5m1.5 4.1h-1.5m1.5-2v42.6m2.8-42.6v42.6m-2.8 0h2.8m0 0c22.3-0.3 40.1-18.4 39.9-40.7m-42.7-1.9h42.7"/>
		<path id="Path 44" class="s0" d="m841.2 1200.8v6.8h-4v-6.8zm-49.5 0v6.8h-18.8v-6.8zm-175.9-111.1v6.9h-34.2v-6.9zm6.9 282v6.7h-34.2v-6.7zm116.2-205.1v34.2h-6.9v-34.2zm-293.9-77v6.8h-34.1v-6.8zm34.1 0v6.8h-34.1v-6.8zm-307.5 220.5v34.1h-6.9v-34.1zm0 34.1v34.2h-6.9v-34.2zm225.5-184.4v6.8h-34.1v-6.8z"/>
		<path id="Path 45" class="s4" d="m451.7 508.8v403.2h-68.3v-403.2z"/>
		<path id="Path 46" class="s0" d="m273.9 1098.2v34.2h-6.7v-34.2zm0 34.2v34.2h-6.7v-34.2zm88.9 27.4v6.8h-34.2v-6.8z"/>
		<path id="Path 47" class="s4" d="m267.2 1159.8h-95.7m533.1 6.8v205.1m-458-107.3v105.3h-45.5v-105.3zm-5.7 79.3v-79.3m-5.7 75.3v-75.3m-5.7 71.5v-71.5m-5.7 67.6v-67.6m-5.7 63.8v-63.8m-5.6 59.8v-59.8m-5.8 57.6v-57.6m-5.6 103.7h-1.8v3.4h49v-3.4h-1.7m-41.5-19.5c-1.5 0-2.8 1.3-2.8 2.8m2.8-2.8h37m2.9 2.8c0-1.5-1.3-2.8-2.8-2.8m2.8 2.9v13.7m-2.8 2.8c1.5 0 2.8-1.3 2.8-2.9m-2.9 3h-37m-2.8-3c0 1.6 1.3 2.9 2.8 2.9m-2.9-2.8v-13.7m44.4-4l-45.5-13m6.2-13.7l39.3 26.7m-45.5-13l6.2-13.7m-13.1 28.1v22.8h-22.7v-22.8zm157.9-818.8c-2.4 0-4.3-2-4.3-4.4 0-2.3 1.9-4.3 4.3-4.3 2.4 0 4.3 2 4.3 4.3 0 2.4-1.9 4.4-4.3 4.4z"/>
		<path id="Path 48" fill-rule="evenodd" class="s5" d="m352.3 519.8v3.8l-0.5-3.8zm-0.4 3.8h0.4l-0.4-3.8z"/>
		<path id="Path 49" fill-rule="evenodd" class="s5" d="m346.1 525.5h3.8l-3.8 0.5zm3.8 0.4v-0.4l-3.8 0.4z"/>
		<path id="Path 50" fill-rule="evenodd" class="s5" d="m351.8 531.7v-3.7l0.5 3.7zm0.4-3.7h-0.4l0.4 3.7z"/>
		<path id="Path 51" fill-rule="evenodd" class="s5" d="m358 526h-3.7l3.7-0.5zm-3.7-0.4v0.4l3.7-0.4z"/>
		<path id="Path 52" class="s4" d="m368.5 530.1c-2.4 0-4.3-2-4.3-4.4 0-2.3 1.9-4.3 4.3-4.3 2.4 0 4.3 2 4.3 4.3 0 2.4-1.9 4.4-4.3 4.4z"/>
		<path id="Path 53" fill-rule="evenodd" class="s5" d="m368.6 519.8v3.8l-0.4-3.8zm-0.4 3.8h0.4l-0.4-3.8z"/>
		<path id="Path 54" fill-rule="evenodd" class="s5" d="m362.4 525.5h3.8l-3.8 0.5zm3.8 0.4v-0.4l-3.8 0.4z"/>
		<path id="Path 55" fill-rule="evenodd" class="s5" d="m368.2 531.7v-3.7l0.4 3.7zm0.4-3.7h-0.4l0.4 3.7z"/>
		<path id="Path 56" fill-rule="evenodd" class="s5" d="m374.3 526h-3.8l3.8-0.5zm-3.8-0.4v0.4l3.8-0.4z"/>
		<path id="Path 57" class="s4" d="m368.5 546.9c-2.4 0-4.3-1.9-4.3-4.3 0-2.4 1.9-4.3 4.3-4.3 2.4 0 4.3 1.9 4.3 4.3 0 2.4-1.9 4.3-4.3 4.3z"/>
		<path id="Path 58" fill-rule="evenodd" class="s5" d="m368.6 536.8v3.8l-0.4-3.8zm-0.4 3.8h0.4l-0.4-3.8z"/>
		<path id="Path 59" fill-rule="evenodd" class="s5" d="m362.4 542.5h3.8l-3.8 0.5zm3.8 0.4v-0.4l-3.8 0.4z"/>
		<path id="Path 60" fill-rule="evenodd" class="s5" d="m368.2 548.7v-3.8l0.4 3.8zm0.4-3.8h-0.4l0.4 3.8z"/>
		<path id="Path 61" fill-rule="evenodd" class="s5" d="m374.3 543h-3.8l3.8-0.5zm-3.8-0.4v0.4l3.8-0.4z"/>
		<path id="Path 62" fill-rule="evenodd" class="s5" d="m358 543h-3.7l3.7-0.5zm-3.7-0.4v0.4l3.7-0.4z"/>
		<path id="Path 63" fill-rule="evenodd" class="s5" d="m351.8 548.7v-3.8l0.5 3.8zm0.4-3.8h-0.4l0.4 3.8z"/>
		<path id="Path 64" fill-rule="evenodd" class="s5" d="m346.1 542.5h3.8l-3.8 0.5zm3.8 0.4v-0.4l-3.8 0.4z"/>
		<path id="Path 65" fill-rule="evenodd" class="s5" d="m352.3 536.8v3.8l-0.5-3.8zm-0.4 3.8h0.4l-0.4-3.8z"/>
		<path id="Path 66" class="s4" d="m352.2 546.9c-2.4 0-4.3-1.9-4.3-4.3 0-2.4 1.9-4.3 4.3-4.3 2.4 0 4.3 1.9 4.3 4.3 0 2.4-1.9 4.3-4.3 4.3zm24.3-30h-32.6m0-1.4v32.7m0.1-0.1c0 1.5 1.2 2.7 2.7 2.7m-0.1 0.1h27.2m0.1-0.1c1.4 0 2.6-1.2 2.6-2.7m0 0.1v-32.7h-32.6m-92.7 2.5l-0.6-0.5m1.1 0.1l-0.1-0.7m0.8 0.6l0.1-0.6m0.6 1l0.4-0.6m-0.8 2.9l0.1 0.5m-0.9-0.5l-0.2 0.7m-0.8-1.7l-0.7 0.3m0.6-1l-0.6-0.1m2 1.8c-0.8 0-1.4-0.6-1.4-1.4 0-0.8 0.6-1.5 1.4-1.5 0.8 0 1.4 0.7 1.4 1.5 0 0.8-0.6 1.4-1.4 1.4zm1.3-1.8l0.7-0.3m-0.7 1l0.7 0.1m-1 0.6l0.6 0.4m-2.5-0.3l-0.5 0.6m-9-0.6l-0.5 0.6m1.1-0.3l-0.1 0.7m0.8-0.7l0.3 0.5m0.4-0.9l0.4 0.4m-0.2-1.1l0.7 0.1m-0.7-0.8l0.6-0.3m-1.7-0.6l0.2-0.6m0.5 1l0.4-0.6m-1.3 2.9c-0.8 0-1.4-0.6-1.4-1.4 0-0.8 0.6-1.5 1.4-1.5 0.8 0 1.5 0.7 1.5 1.5 0 0.8-0.7 1.4-1.5 1.4zm-0.4-2.6l-0.3-0.7m-0.3 1.1l-0.5-0.5m0.1 1l-0.7-0.1m0.8 0.8l-0.6 0.3m-9.4 4.1h14m1.5 1.2q0-0.1 0-0.2m-2.7 3c-0.5-0.6-1.3-0.7-1.9-0.4-0.6 0.4-0.9 1.2-0.6 1.9 0.3 0.6 1 1 1.7 0.8m1.2 1.5l-1.7-0.5m0.1-0.1c-0.2 0.5 0.1 1 0.6 1.1 0.4 0.2 0.9-0.1 1.1-0.5m3.3-10.1l-3.4 10.1m1.8-10.7l-3.5 10.2m4.6-8.2l1.3-1.8m-0.8 0.4l-1.6-0.6m-0.4 1.4v-2.2m0.4-1.4l-0.4 1.4m3.4-0.4c-0.7-0.9-1.9-1.3-3-1m3 1l-0.6 1.4m3.3 9c-0.8 0-1.5-0.6-1.5-1.4 0-0.8 0.7-1.4 1.5-1.4 0.8 0 1.4 0.6 1.4 1.4 0 0.8-0.6 1.4-1.4 1.4zm-5.2 13.5v-18.5m2.2-1.3h14.3m-15.4 19.8v-18.5m1.2-1.3c-0.7 0-1.2 0.5-1.2 1.2m-2.2 19.7c0.6 0 1.1-0.6 1.1-1.2m1.1 0c0 0.6 0.5 1.2 1.2 1.2m-0.1 0h14.3m-20.7-23.6c-1.1 0-2.1-1-2.1-2.1 0-1.2 1-2.2 2.1-2.2 1.2 0 2.2 1 2.2 2.2 0 1.1-1 2.1-2.2 2.1zm9.5 0c-1.2 0-2.1-1-2.1-2.1 0-1.2 0.9-2.2 2.1-2.2 1.2 0 2.1 1 2.1 2.2 0 1.1-0.9 2.1-2.1 2.1zm-20.7 2.7c-0.7 0-1.2 0.5-1.2 1.2m0 18.5c0 0.6 0.5 1.2 1.2 1.2m32 0c0.6 0 1.1-0.6 1.1-1.2m0-18.5c0-0.7-0.5-1.2-1.1-1.2m-32.1 20.9h14.3m18.8-19.6v18.5m-34.2-18.5v18.5m-64.6 4.9l178.2-0.1"/>
		<path id="Path 67" class="s3" d="m165.7 548.3h-1.1v51.3"/>
		<path id="Path 68" class="s4" d="m171.5 599.6h157.7m0 0v34.1m0 0h-157.7m45.7 84.1v-21.4m77.3 21.4v-21.4m-89.3 7.3l0.4-8.7m0-0.6l-0.4-8.7m-1.3 4.4h1.6m-1.6 0.6h1.7m-1.7 8h1.7m17.3 7.7l-17.7-2.7m-1.3-4.4l1.6 0.1m17.4-16.4l-17.7 2.7m14.8 9.2h71.6m-74.4-1.4h77.3m-77.3 2.9h77.3m0-24.3l-11-1.3-11.1-1.1-11.1-0.4h-11.1l-11 0.4-11.1 1.1-10.9 1.3m77.3 0v21.4m-2.9 0v1.4m0 1.5v-1.5m-66.3-0.5c-0.1-3.9-0.9-7.8-2.4-11.4m-5.7-10.9v21.4m5.7 12.9c1.5-3.6 2.3-7.5 2.4-11.4m-5.3-1.5v1.4m0 1.5v-1.5m5.3-0.5v0.6m-19.7-0.6v0.6m-2.4-10.7c-1.5 6.9-1.5 13.9 0 20.8m-2.1-21.8c-1.8 7.5-1.8 15.3 0 22.8m-0.1-22.9l2.2 1.1m0.7 14.4h-1.7m1.7-8h-1.7m1.7-0.6h-1.7m-1.2 16l2.2-1m0.7-5.8h-1.7m-0.8 6.7h-0.1m-0.3 0h0.3m15.9 11.8l10.9 1.4 11.1 1.1 11 0.4h11.1l11.1-0.4 11.1-1.1 11-1.4m-22.8-6.9c-4 0.1-7.9 0.9-11.5 2.4m11.5 17.3q-4.4 0-8.8 0.5m-1.3 1.9c6.8 1.5 13.9 1.5 20.7 0m-21.7 2.1c7.5 1.8 15.3 1.8 22.8 0m-15.6-2.8v-1.7m-0.6 1.7v-1.6m9.3 1.6v-1.6m-0.6 1.6v-1.7m7.8-17.3c-3.6-1.5-7.5-2.3-11.5-2.4m11.3 2.5l-2.7 17.6m-8.6-20.1h-0.6m9.4 20.2q-4.4-0.5-8.8-0.5m0 0h-0.6m11.7 4.6l-1.1-2m-6.3-0.9v1.8m0.6-1.8v1.7m-8.7-1.7v1.8m-0.6-1.8v1.7m-37.7-1c6.8 1.5 13.9 1.5 20.7 0m-21.7 2.1c7.5 1.8 15.3 1.8 22.8 0m-11.7-24.2c-4 0.1-7.8 0.9-11.5 2.4m0 0.1l2.8 17.6m4.2 1.3v-1.6m0.6 1.6l0.1-1.7m8.1 1.7v-1.7m0.6 1.7v-1.6m4.3 0.3l-8.7-0.4m11.5-17.3c-3.6-1.5-7.5-2.3-11.5-2.4m20 2.5l2.7 17.6m-11.2-17.6l-2.8 17.6m-9.3-20.1h0.6m-0.6 19.7l-8.6 0.4m8.6-0.4h0.6m20.4 4.6l1-2m-0.9 1.7h-0.1m0 0.3v-0.3m-9.3 0.3l-1-2m1 2l-0.2-0.3m-7.1-2.6v1.8m0.6-1.8v1.7m-8.8-1.7v1.8m-0.6-1.8v1.7m-6.7 1.2l1.1-2m-1.4-56.7l2.8-17.5m20.7 17.5l-2.8-17.5m11.3 17.5l2.7-17.5m20.7 17.5l-2.7-17.5m-40.7 19.9c4-0.1 7.9-0.9 11.5-2.4m20.6 2.4c4-0.1 7.9-0.9 11.5-2.4m-23.5 0c3.6 1.5 7.5 2.3 11.5 2.4m0.5 0.1h-0.6m-43.5-2.5c3.7 1.5 7.5 2.3 11.5 2.4m-0.1 0.1h0.6m10.1-22.2c-6.8-1.5-13.9-1.5-20.7 0m21.8-2.1c-7.5-1.8-15.3-1.8-22.8 0m11.6 4.7l8.7-0.4m33.5-2.2c-6.8-1.5-13.9-1.5-20.7 0m21.8-2.1c-7.5-1.8-15.3-1.8-22.8 0m11.6 4.5q4.4 0 8.8-0.4m2.3-4.1l-1.1 2.1m-5.7 0.8v1.6m-0.6-1.6v1.6m0-1.6v-1.8m0.6 1.8v-1.6m-13.6 2.8q4.4 0.4 8.8 0.4m-3.9-1.6v1.6m-0.6-1.6v1.6m5 0.2h-0.6m-3.8-1.8v-1.8m-0.6 1.8v-1.6m-6.7-1.3l1 2.1m-0.9-1.8h-0.1m0-0.3v0.3m-9.3-0.3l-1 2.1m1-2.1l-0.2 0.3m-20.1 4l8.6 0.4m4.4-1.8v1.6m0.6-1.6v1.6m-5 0.2h0.6m3.8-1.8v-1.8m0.6 1.8v-1.6m-9.4 1.6v1.6m0.6-1.6l0.1 1.6m-0.1-1.6v-1.8m-0.6 1.8v-1.6m-6.7-1.3l1.1 2.1m59.3 49.6l17.6-2.7m-19.8-8.7c0 3.9 0.8 7.8 2.3 11.4m0-23.4c-1.5 3.6-2.3 7.5-2.3 11.4m-0.2 0v0.6m2.4-12l17.6 2.7m0.1 0q-0.4 4.3-0.5 8.7m2.6 10.7c1.5-6.9 1.5-13.9 0-20.8m2.1 21.8c1.8-7.5 1.8-15.3 0-22.8m0-0.1l-2.2 1.1m-0.7 5.8h-1.6m1.6 0.6h-1.8m1.8 8h-1.8m1.8 0.6l-1.8 0.1m0-4.4q0.1 4.4 0.5 8.7m-0.6-9.3v0.6m1.9 3.7h1.7m-1.7-8h1.7m-1.7-0.6h1.7m-1.7 9.2h1.7m1.2 6.8l-2.2-1m1.8 0.9h0.1m0.3 0h-0.3m178.7 622.2c-19.9 0-35.9-16-35.9-35.9 0-19.8 16-35.8 35.9-35.8 19.8 0 35.8 16 35.8 35.8 0 19.9-16 35.9-35.8 35.9zm-32.4-79.8c-11.5 0-20.8-9.3-20.8-20.8 0-11.5 9.3-20.8 20.8-20.8 11.5 0 20.8 9.3 20.8 20.8 0 11.5-9.3 20.8-20.8 20.8zm-29.8 26.6c-7.8 0-14.2-6.4-14.2-14.2 0-7.9 6.4-14.2 14.2-14.2 7.9 0 14.2 6.3 14.2 14.2 0 7.8-6.3 14.2-14.2 14.2zm-118.4-425.5v-23.5m0 0h-132.5m0 0v83.1m0 13.7v2.6m0 0h15m-13.1-8.2c-0.8 0-1.3-0.6-1.3-1.3 0-0.7 0.5-1.3 1.3-1.3 0.7 0 1.3 0.6 1.3 1.3 0 0.7-0.6 1.3-1.3 1.3zm63.9-37.7c-16.1 0-29.2-7.8-29.2-17.5 0-9.7 13.1-17.5 29.2-17.5 16.1 0 29.1 7.8 29.1 17.5 0 9.7-13 17.5-29.1 17.5zm0-7.3c-5.7 0-10.2-4.5-10.2-10.2 0-5.6 4.5-10.2 10.2-10.2 5.6 0 10.2 4.6 10.2 10.2 0 5.7-4.6 10.2-10.2 10.2zm0-9c-0.7 0-1.2-0.6-1.2-1.2 0-0.6 0.5-1.2 1.2-1.2 0.6 0 1.1 0.6 1.1 1.2 0 0.6-0.5 1.2-1.1 1.2zm-56.5 45.9h-13.7m0 0v13.7m0 0h13.7m0 0v-13.7m101.5-4.4h-90.3m91.3 0.9c0-0.5-0.4-0.9-0.9-0.9m-95.9 1v39.6m0.1-0.1c0 0.5 0.4 0.9 0.9 0.9m0-41.4c-0.5 0-0.9 0.4-0.9 0.9m0.8 40.7h94.9m0.1-0.2c0.5 0 0.9-0.4 0.9-0.9m-0.1-4.4v-35.1m-92.2 0v35.1m0.1-0.1c0 0.5 0.4 0.9 0.9 0.9m0-36.9c-0.5 0-0.9 0.4-0.9 0.9m0 0c0-0.5-0.4-0.9-0.9-0.9m1.8 36.9h90.3m0.1 0c0.5 0 0.9-0.4 0.9-0.9m-0.1 1.9v2.7m0.1-2.8c0-0.5-0.4-0.9-0.9-0.9m-92.2-36.9h-2.8m95.8-54.3v90.4m1-91.3c-0.5 0-0.9 0.4-0.9 0.8m0.8 96h39.7m-40.5-1.1c0 0.5 0.4 0.9 0.9 0.9m39.6-96.6h-39.7m0 92.1h35.1m0.1 0c0.5 0 0.9-0.4 0.9-0.9m-36.9 0c0 0.5 0.4 0.9 0.9 0.9m0 0c-0.5 0-0.9 0.4-0.9 0.9m-0.1 0.1v2.7m41.5 0v-94.9m0-0.1c0-0.4-0.4-0.8-0.9-0.8m0 96.6c0.5 0 0.9-0.4 0.9-0.9m-4.5-4.4v-91.3"/>
		<path id="Path 69" class="s0" d="m277.9 1159.8v6.8h-4v-6.8zm64.5 0v6.8h-18.8v-6.8z"/>
		<path id="Path 70" class="s1" d="m322.1 1162.5v4.1m0-2h-2.8m-39.9-2.1v4.1h-1.5v-4.1zm42.7 0h1.5m-1.5 4.1h1.5m-1.5-2v42.6m-2.8-42.6v42.6m2.8 0h-2.8m-39.7-40.7c-0.2 22.2 17.6 40.4 39.8 40.7m2.7-42.6h-42.7"/>
		<path id="Path 71" class="s0" d="m567.9 1159.8v6.8h-4v-6.8z"/>
		<path id="Path 72" class="s1" d="m569.2 1162.5v4.1m0-2h2.9m41.3-2.1v4.1h-1.4v-4.1zm-44.1 0h-1.4m1.4 4.1h-1.4m1.4-2v42.6m2.8-42.6v42.6m-2.8 0h2.8m0.1 0c22.2-0.3 40-18.5 39.9-40.7m-42.8-1.9h42.8"/>
		<path id="Path 73" class="s0" d="m632.2 1159.8v6.8h-18.8v-6.8zm15.5 0v6.8h-34.3v-6.8z"/>
		<path id="Path 74" class="s4" d="m845.9 910.6l-0.7 178.4 313.9 1.4 3.5-178.4zm-184.6 353.8v105.3h-45.6v-105.3zm-39.8 79.3v-79.3m5.7 75.3v-75.3m5.7 71.4v-71.4m5.7 67.6v-67.6m5.7 63.8v-63.8m5.6 59.8v-59.8m5.8 57.6v-57.6m5.6 103.7h1.8v3.4h-49v-3.4h1.7m44.4-16.7c0-1.5-1.2-2.8-2.8-2.8m-0.1 0h-37m0.1 0c-1.6 0-2.8 1.3-2.8 2.8m0 0.1v13.7m0-0.1c0 1.6 1.2 2.8 2.8 2.8m-0.1 0.2h37m0.1-0.2c1.6 0 2.8-1.2 2.8-2.8m0 0.1v-13.7m-44.4-4l45.5-13m-6.2-13.7l-39.3 26.7m45.5-13l-6.2-13.7m35.8 28.1v22.7h-22.7v-22.7zm-188.7-279.6c-19.8 0-35.8-16.1-35.8-35.9 0-19.8 16-35.9 35.8-35.9 19.9 0 35.9 16.1 35.9 35.9 0 19.8-16 35.9-35.9 35.9zm-32.3-79.9c-11.5 0-20.8-9.2-20.8-20.7 0-11.5 9.3-20.8 20.8-20.8 11.4 0 20.7 9.3 20.7 20.8 0 11.5-9.3 20.7-20.7 20.7zm-29.8 26.6c-7.9 0-14.2-6.3-14.2-14.2 0-7.8 6.3-14.1 14.2-14.1 7.8 0 14.2 6.3 14.2 14.1 0 7.9-6.4 14.2-14.2 14.2zm188.8-501.3v397.3h-177.2v-397.3z"/>
		<path id="Path 75" class="s0" d="m376.5 1096.6v-6.9h34.2v6.9h-34.2 34.2v-6.9h-34.2zm-204.9-177.7v34.1h-6.8v-34.1zm204.9-410v6.7h-34.2v-6.7zm6.9 179.3v25.7h-6.9v-25.7zm0-111.1v25.7h-6.8v-25.7z"/>
		<path id="Path 76" class="s1" d="m376.5 685.9h2m0-81h2m-4 40.5v40.5m2-81v81m2-81v-2.2m-4 2.2v-2.2m0 83.2v2.3m2-2.3h2v2.3m-2-83.3h-2m4 40.5v-40.5"/>
		<path id="Path 77" class="s2" d="m376.5 645.4v-40.5m4 40.5v40.5"/>
		<path id="Path 78" class="s1" d="m376.5 645.4h4"/>
		<path id="Path 79" class="s2" d="m383.4 602.7v85.5"/>
		<path id="Path 80" class="s0" d="m383.4 859.1v25.6h-6.9v-25.6zm0-111.1v25.6h-6.8v-25.6z"/>
		<path id="Path 81" class="s1" d="m376.5 856.7h2m0-80.9h2m-4 40.5v40.4m2-80.9v80.9m2-80.9v-2.2m-4 2.2v-2.2m0 83.1v2.4m2-2.4h2v2.4m-2-83.3h-2m4 40.5v-40.5"/>
		<path id="Path 82" class="s2" d="m376.5 816.3v-40.5m4 40.5v40.4"/>
		<path id="Path 83" class="s1" d="m376.5 816.3h4"/>
		<path id="Path 84" class="s2" d="m383.4 773.6v85.5m0 88.3v28.4"/>
		<path id="Path 85" class="s1" d="m380.5 975.8v-28.4m-4 28.4v-28.4m2 26.7v-25.1m-2 25.1h4m0-25.1h-4"/>
		<path id="Path 86" class="s2" d="m383.4 975.8v28.5"/>
		<path id="Path 87" class="s1" d="m380.5 1004.3v-28.5m-4 28.5v-28.5m2 26.7v-25m-2 25h4m0-25h-4"/>
		<path id="Path 88" class="s2" d="m383.4 1004.3v28.5"/>
		<path id="Path 89" class="s1" d="m380.5 1032.8v-28.5m-4 28.5v-28.5m2 26.7v-25.1m-2 25.1h4m0-25.1h-4"/>
		<path id="Path 90" class="s2" d="m383.4 1032.8v28.4"/>
		<path id="Path 91" class="s1" d="m380.5 1061.2v-28.4m-4 28.4v-28.4m2 26.7v-25.1m-2 25.1h4m0-25.1h-4"/>
		<path id="Path 92" class="s2" d="m383.4 1061.2v28.5"/>
		<path id="Path 93" class="s1" d="m380.5 1089.7v-28.5m-4 28.5v-28.5m2 26.7v-24.9m-2 24.9h4m0-24.9h-4"/>
		<path id="Path 94" class="s0" d="m383.4 913.1v34.3h-6.9v-34.3zm-82 178.3v6.8h-34.1v-6.8zm-27.5-104.3v34.2h-6.7v-34.2zm0 20.6v34.2h-6.7v-34.2zm40.6 83.7v6.8h-34.2v-6.8z"/>
		<path id="Path 95" class="s2" d="m376.5 1229.2v28.5"/>
		<path id="Path 96" class="s1" d="m373.7 1257.7v-28.5m-4 28.5v-28.5m2 26.9v-25.1m-2 25.1h4m0-25.1h-4"/>
		<path id="Path 97" class="s2" d="m376.5 1257.7v28.5"/>
		<path id="Path 98" class="s1" d="m373.7 1286.2v-28.5m-4 28.5v-28.5m2 26.7v-25.1m-2 25.1h4m0-25.1h-4"/>
		<path id="Path 99" class="s2" d="m376.5 1286.2v28.4"/>
		<path id="Path 100" class="s1" d="m373.7 1314.6v-28.4m-4 28.4v-28.4m2 26.8v-25.1m-2 25.1h4m0-25.1h-4"/>
		<path id="Path 101" class="s2" d="m376.5 1314.6v28.5"/>
		<path id="Path 102" class="s1" d="m373.7 1343.1v-28.5m-4 28.5v-28.5m2 26.9v-25.1m-2 25.1h4m0-25.1h-4"/>
		<path id="Path 103" class="s2" d="m376.5 1343.1v28.6"/>
		<path id="Path 104" class="s1" d="m373.7 1371.7v-28.6m-4 28.6v-28.6m2 26.8v-25.1m-2 25.1h4m0-25.1h-4"/>
		<path id="Path 105" class="s2" d="m376.5 1172.3v28.5"/>
		<path id="Path 106" class="s1" d="m373.7 1200.8v-34.2m-4 34.2v-34.2m2 32.4v-30.7m-2 30.7h4m0-30.7h-4"/>
		<path id="Path 107" class="s2" d="m376.5 1200.8v28.4"/>
		<path id="Path 108" class="s1" d="m373.7 1229.2v-28.4m-4 28.4v-28.4m2 26.7v-25.1m-2 25.1h4m0-25.1h-4"/>
		<path id="Path 109" class="s2" d="m554.3 1172.3v28.5m0 28.4v28.5"/>
		<path id="Path 110" class="s1" d="m557 1257.7v-28.5m4 28.5v-28.5m-1.9 26.9v-25.1m1.9 25.1h-4m0-25.1h4"/>
		<path id="Path 111" class="s2" d="m554.3 1257.7v28.5"/>
		<path id="Path 112" class="s1" d="m557 1286.2v-28.5m4 28.5v-28.5m-1.9 26.7v-25.1m1.9 25.1h-4m0-25.1h4"/>
		<path id="Path 113" class="s2" d="m554.3 1286.2v28.4"/>
		<path id="Path 114" class="s1" d="m557 1314.6v-28.4m4 28.4v-28.4m-1.9 26.8v-25.1m1.9 25.1h-4m0-25.1h4"/>
		<path id="Path 115" class="s2" d="m554.3 1314.6v28.5"/>
		<path id="Path 116" class="s1" d="m557 1343.1v-28.5m4 28.5v-28.5m-1.9 26.9v-25.1m1.9 25.1h-4m0-25.1h4"/>
		<path id="Path 117" class="s2" d="m554.3 1343.1v28.6"/>
		<path id="Path 118" class="s1" d="m557 1371.7v-28.6m4 28.6v-28.6m-1.9 26.8v-25.1m1.9 25.1h-4m0-25.1h4m-4-144v-34.2m4 34.2v-34.2m-1.9 32.4v-30.7m1.9 30.7h-4m0-30.7h4"/>
		<path id="Path 119" class="s2" d="m554.3 1200.8v28.4"/>
		<path id="Path 120" class="s1" d="m557 1229.2v-28.4m4 28.4v-28.4m-1.9 26.7v-25.1m1.9 25.1h-4m0-25.1h4"/>
		<path id="Path 121" class="s0" d="m308.2 946.3v6.8h-34.3v-6.8zm16.4 0v6.8h-34.2v-6.8z"/>
		<path id="Path 122" class="s4" d="m305.9 759.8v5.9h-107.3v-5.9z"/>
		<path id="Path 123" class="s6" d="m171.5 516.9h205v432.1l-204.9 4v-436.1"/>
		<path id="Path 124" class="s7" d="m1169 277.5v1331.9h-1010.7v-1331.9z"/>
	</g>
</svg>